<svg width="20" height="20" viewBox="0 0 20 20" fill="none" xmlns="http://www.w3.org/2000/svg">
<path d="M4.16406 12.4993C3.38749 12.4993 2.99921 12.4993 2.69292 12.3725C2.28454 12.2033 1.96009 11.8789 1.79093 11.4705C1.66406 11.1642 1.66406 10.7759 1.66406 9.99935V4.33268C1.66406 3.39926 1.66406 2.93255 1.84572 2.57603C2.00551 2.26243 2.26047 2.00746 2.57408 1.84767C2.9306 1.66602 3.39731 1.66602 4.33073 1.66602H9.9974C10.774 1.66602 11.1622 1.66602 11.4685 1.79288C11.8769 1.96204 12.2014 2.2865 12.3705 2.69488C12.4974 3.00116 12.4974 3.38945 12.4974 4.16602M10.1641 18.3327H15.6641C16.5975 18.3327 17.0642 18.3327 17.4207 18.151C17.7343 17.9912 17.9893 17.7363 18.1491 17.4227C18.3307 17.0661 18.3307 16.5994 18.3307 15.666V10.166C18.3307 9.23259 18.3307 8.76588 18.1491 8.40937C17.9893 8.09576 17.7343 7.84079 17.4207 7.68101C17.0642 7.49935 16.5975 7.49935 15.6641 7.49935H10.1641C9.23064 7.49935 8.76393 7.49935 8.40741 7.68101C8.09381 7.84079 7.83884 8.09576 7.67905 8.40937C7.4974 8.76588 7.4974 9.2326 7.4974 10.166V15.666C7.4974 16.5994 7.4974 17.0661 7.67905 17.4227C7.83884 17.7363 8.09381 17.9912 8.40741 18.151C8.76393 18.3327 9.23064 18.3327 10.1641 18.3327Z" stroke="#344054" stroke-width="1.66667" stroke-linecap="round" stroke-linejoin="round"/>
</svg>
