<svg width="585" height="459" viewBox="0 0 585 459" fill="none" xmlns="http://www.w3.org/2000/svg">
<g clip-path="url(#clip0_75_7993)">
<rect x="0.5" y="0.25" width="584" height="458.5" rx="24" fill="#DBECF2"/>
<g filter="url(#filter0_d_75_7993)">
<g clip-path="url(#clip1_75_7993)">
<rect x="50.6016" y="40.793" width="554" height="371.414" rx="23.7275" fill="white"/>
<mask id="path-3-inside-1_75_7993" fill="white">
<path d="M50.6016 44.817C50.6016 42.5946 52.4032 40.793 54.6256 40.793H600.297C602.52 40.793 604.321 42.5946 604.321 44.817V81.6077H50.6016V44.817Z"/>
</mask>
<path d="M50.6016 44.817C50.6016 42.5946 52.4032 40.793 54.6256 40.793H600.297C602.52 40.793 604.321 42.5946 604.321 44.817V81.6077H50.6016V44.817Z" fill="white"/>
<path d="M50.6016 40.793H604.321H50.6016ZM604.321 82.0101H50.6016V81.2053H604.321V82.0101ZM50.6016 81.6077V40.793V81.6077ZM604.321 40.793V81.6077V40.793Z" fill="#E5E7EB" mask="url(#path-3-inside-1_75_7993)"/>
<rect x="68.7671" y="58.8008" width="9.48782" height="9.48782" rx="4.74391" fill="#EE6A5F" stroke="#C7493E" stroke-width="0.424828"/>
<rect x="85.7593" y="58.8008" width="9.48782" height="9.48782" rx="4.74391" fill="#F4BE50" stroke="#CD9B35" stroke-width="0.424828"/>
<rect x="102.753" y="58.8008" width="9.48782" height="9.48782" rx="4.74391" fill="#5FC454" stroke="#39A430" stroke-width="0.424828"/>
<rect x="68.2891" y="111.539" width="102.919" height="8.16295" rx="4.08147" fill="#EDF1FF"/>
<rect x="68.2891" y="136.027" width="103.397" height="8.16295" rx="4.08147" fill="#EDF1FF"/>
<rect x="68.2891" y="160.516" width="103.397" height="8.16295" rx="4.08147" fill="#EDF1FF"/>
<rect x="68.2891" y="185.005" width="103.397" height="8.16295" rx="4.08147" fill="#EDF1FF"/>
<rect x="68.2891" y="209.494" width="103.397" height="8.16295" rx="4.08147" fill="#EDF1FF"/>
<rect x="68.2891" y="233.983" width="103.397" height="8.16295" rx="4.08147" fill="#EDF1FF"/>
<rect x="68.2891" y="258.472" width="103.397" height="8.16295" rx="4.08147" fill="#EDF1FF"/>
<rect x="68.2891" y="380.916" width="103.397" height="8.16295" rx="4.08147" fill="#EDF1FF"/>
<rect x="68.2891" y="360.509" width="103.397" height="8.16295" rx="4.08147" fill="#EDF1FF"/>
<path d="M566.155 217.657H207.13C199.577 217.657 193.453 220.957 193.453 225.028V384.429C193.453 388.5 199.577 391.8 207.13 391.8H566.155C573.709 391.8 579.833 388.5 579.833 384.429V225.028C579.833 220.957 573.709 217.657 566.155 217.657Z" fill="white"/>
<path d="M312.369 326.31V319.191H315.039C315.586 319.191 316.045 319.286 316.416 319.476C316.789 319.666 317.07 319.933 317.26 320.275C317.453 320.616 317.549 321.014 317.549 321.468C317.549 321.924 317.451 322.321 317.257 322.657C317.065 322.991 316.781 323.249 316.405 323.432C316.029 323.613 315.568 323.703 315.022 323.703H313.12V322.633H314.848C315.167 322.633 315.429 322.589 315.634 322.501C315.837 322.41 315.988 322.279 316.085 322.108C316.185 321.934 316.234 321.721 316.234 321.468C316.234 321.215 316.185 321 316.085 320.821C315.985 320.641 315.834 320.504 315.63 320.411C315.426 320.316 315.163 320.269 314.841 320.269H313.659V326.31H312.369ZM316.047 323.084L317.809 326.31H316.37L314.639 323.084H316.047ZM320.967 326.414C320.432 326.414 319.97 326.303 319.58 326.081C319.194 325.856 318.896 325.539 318.687 325.128C318.478 324.716 318.374 324.23 318.374 323.672C318.374 323.123 318.478 322.641 318.687 322.226C318.898 321.809 319.192 321.484 319.57 321.253C319.948 321.018 320.392 320.901 320.901 320.901C321.23 320.901 321.541 320.955 321.833 321.061C322.127 321.166 322.387 321.328 322.612 321.548C322.839 321.768 323.017 322.048 323.147 322.389C323.277 322.728 323.342 323.131 323.342 323.599V323.985H318.965V323.136H322.135C322.133 322.896 322.081 322.681 321.979 322.493C321.877 322.304 321.734 322.154 321.552 322.045C321.37 321.936 321.16 321.881 320.919 321.881C320.661 321.881 320.436 321.944 320.241 322.069C320.046 322.192 319.894 322.354 319.785 322.556C319.679 322.755 319.624 322.974 319.622 323.213V323.954C319.622 324.264 319.679 324.53 319.793 324.753C319.906 324.973 320.065 325.142 320.269 325.26C320.473 325.376 320.712 325.434 320.985 325.434C321.168 325.434 321.334 325.409 321.482 325.358C321.63 325.304 321.759 325.227 321.868 325.125C321.977 325.023 322.059 324.896 322.114 324.746L323.29 324.878C323.216 325.189 323.074 325.46 322.866 325.692C322.659 325.921 322.395 326.099 322.073 326.227C321.751 326.352 321.382 326.414 320.967 326.414ZM327.969 328.313V325.469H327.917C327.852 325.599 327.758 325.736 327.635 325.883C327.513 326.026 327.351 326.149 327.149 326.251C326.947 326.353 326.694 326.404 326.388 326.404C325.968 326.404 325.592 326.296 325.261 326.081C324.93 325.865 324.668 325.552 324.476 325.142C324.283 324.732 324.187 324.234 324.187 323.648C324.187 323.054 324.284 322.554 324.479 322.146C324.676 321.736 324.941 321.426 325.275 321.218C325.609 321.007 325.981 320.901 326.391 320.901C326.704 320.901 326.961 320.955 327.163 321.061C327.364 321.166 327.524 321.292 327.642 321.44C327.761 321.586 327.852 321.724 327.917 321.854H327.994V320.971H329.231V328.313H327.969ZM326.739 325.372C327.005 325.372 327.232 325.3 327.42 325.156C327.608 325.01 327.75 324.808 327.847 324.548C327.945 324.288 327.994 323.986 327.994 323.64C327.994 323.295 327.945 322.995 327.847 322.74C327.753 322.485 327.611 322.287 327.423 322.146C327.238 322.004 327.01 321.934 326.739 321.934C326.458 321.934 326.224 322.007 326.037 322.153C325.849 322.299 325.707 322.501 325.613 322.758C325.517 323.015 325.47 323.309 325.47 323.64C325.47 323.974 325.517 324.272 325.613 324.534C325.71 324.794 325.852 324.999 326.04 325.149C326.23 325.298 326.463 325.372 326.739 325.372ZM333.927 324.065V320.971H335.185V326.31H333.965V325.361H333.91C333.789 325.66 333.591 325.905 333.316 326.095C333.042 326.285 332.704 326.38 332.304 326.38C331.954 326.38 331.644 326.302 331.376 326.147C331.109 325.989 330.901 325.761 330.75 325.462C330.599 325.161 330.524 324.797 330.524 324.371V320.971H331.782V324.176C331.782 324.514 331.875 324.783 332.06 324.983C332.246 325.181 332.489 325.281 332.791 325.281C332.976 325.281 333.155 325.236 333.329 325.146C333.503 325.055 333.645 324.921 333.757 324.743C333.871 324.562 333.927 324.336 333.927 324.065ZM338.843 326.414C338.308 326.414 337.845 326.303 337.456 326.081C337.069 325.856 336.772 325.539 336.563 325.128C336.354 324.716 336.25 324.23 336.25 323.672C336.25 323.123 336.354 322.641 336.563 322.226C336.773 321.809 337.068 321.484 337.446 321.253C337.823 321.018 338.267 320.901 338.777 320.901C339.106 320.901 339.417 320.955 339.709 321.061C340.003 321.166 340.262 321.328 340.488 321.548C340.715 321.768 340.893 322.048 341.023 322.389C341.153 322.728 341.218 323.131 341.218 323.599V323.985H336.841V323.136H340.011C340.009 322.896 339.957 322.681 339.854 322.493C339.753 322.304 339.61 322.154 339.427 322.045C339.246 321.936 339.035 321.881 338.794 321.881C338.537 321.881 338.311 321.944 338.117 322.069C337.922 322.192 337.77 322.354 337.661 322.556C337.555 322.755 337.5 322.974 337.498 323.213V323.954C337.498 324.264 337.555 324.53 337.669 324.753C337.782 324.973 337.941 325.142 338.144 325.26C338.348 325.376 338.587 325.434 338.86 325.434C339.044 325.434 339.21 325.409 339.358 325.358C339.506 325.304 339.635 325.227 339.744 325.125C339.853 325.023 339.935 324.896 339.99 324.746L341.165 324.878C341.091 325.189 340.95 325.46 340.741 325.692C340.535 325.921 340.27 326.099 339.949 326.227C339.626 326.352 339.258 326.414 338.843 326.414ZM346.502 322.382L345.354 322.507C345.322 322.392 345.266 322.283 345.184 322.181C345.105 322.078 344.999 321.996 344.864 321.934C344.73 321.871 344.566 321.84 344.371 321.84C344.109 321.84 343.889 321.897 343.711 322.011C343.534 322.124 343.447 322.271 343.45 322.452C343.447 322.607 343.504 322.733 343.62 322.83C343.738 322.928 343.933 323.008 344.204 323.071L345.115 323.265C345.62 323.374 345.996 323.547 346.241 323.783C346.489 324.02 346.614 324.329 346.617 324.711C346.614 325.047 346.516 325.344 346.321 325.601C346.129 325.856 345.861 326.055 345.518 326.199C345.175 326.343 344.781 326.414 344.336 326.414C343.683 326.414 343.157 326.278 342.758 326.004C342.36 325.728 342.122 325.345 342.045 324.854L343.273 324.735C343.328 324.976 343.446 325.158 343.627 325.281C343.808 325.404 344.043 325.465 344.333 325.465C344.632 325.465 344.872 325.404 345.052 325.281C345.235 325.158 345.327 325.006 345.327 324.826C345.327 324.673 345.268 324.546 345.149 324.447C345.034 324.348 344.853 324.271 344.607 324.218L343.696 324.026C343.184 323.92 342.806 323.74 342.56 323.487C342.314 323.233 342.193 322.91 342.195 322.521C342.193 322.192 342.282 321.907 342.462 321.666C342.645 321.423 342.899 321.235 343.224 321.103C343.551 320.969 343.927 320.901 344.354 320.901C344.979 320.901 345.472 321.035 345.831 321.301C346.193 321.568 346.416 321.928 346.502 322.382ZM350.32 320.971V321.944H347.251V320.971H350.32ZM348.009 319.692H349.267V324.704C349.267 324.874 349.293 325.003 349.343 325.093C349.397 325.181 349.466 325.242 349.552 325.274C349.638 325.307 349.733 325.323 349.837 325.323C349.916 325.323 349.988 325.317 350.052 325.306C350.12 325.294 350.171 325.284 350.205 325.274L350.418 326.258C350.35 326.281 350.254 326.307 350.129 326.335C350.006 326.362 349.855 326.379 349.677 326.383C349.362 326.392 349.078 326.345 348.826 326.24C348.573 326.134 348.372 325.969 348.224 325.747C348.078 325.525 348.007 325.246 348.009 324.913V319.692ZM353.856 326.31V319.191H355.146V325.229H358.282V326.31H353.856ZM361.674 326.414C361.153 326.414 360.701 326.3 360.318 326.07C359.936 325.841 359.639 325.52 359.429 325.107C359.22 324.695 359.115 324.213 359.115 323.661C359.115 323.11 359.22 322.627 359.429 322.212C359.639 321.797 359.936 321.475 360.318 321.246C360.701 321.016 361.153 320.901 361.674 320.901C362.195 320.901 362.647 321.016 363.03 321.246C363.412 321.475 363.708 321.797 363.916 322.212C364.127 322.627 364.232 323.11 364.232 323.661C364.232 324.213 364.127 324.695 363.916 325.107C363.708 325.52 363.412 325.841 363.03 326.07C362.647 326.3 362.195 326.414 361.674 326.414ZM361.681 325.407C361.964 325.407 362.2 325.329 362.39 325.173C362.58 325.016 362.721 324.805 362.814 324.541C362.909 324.277 362.957 323.982 362.957 323.658C362.957 323.331 362.909 323.036 362.814 322.772C362.721 322.505 362.58 322.293 362.39 322.135C362.2 321.978 361.964 321.899 361.681 321.899C361.391 321.899 361.15 321.978 360.958 322.135C360.768 322.293 360.625 322.505 360.531 322.772C360.438 323.036 360.392 323.331 360.392 323.658C360.392 323.982 360.438 324.277 360.531 324.541C360.625 324.805 360.768 325.016 360.958 325.173C361.15 325.329 361.391 325.407 361.681 325.407ZM366.837 326.418C366.499 326.418 366.194 326.358 365.923 326.237C365.654 326.114 365.441 325.933 365.283 325.695C365.128 325.456 365.05 325.162 365.05 324.812C365.05 324.511 365.106 324.262 365.217 324.065C365.328 323.868 365.48 323.71 365.673 323.592C365.865 323.474 366.081 323.385 366.322 323.324C366.566 323.262 366.817 323.216 367.077 323.189C367.39 323.156 367.643 323.127 367.838 323.102C368.033 323.074 368.174 323.032 368.262 322.977C368.352 322.918 368.398 322.83 368.398 322.709V322.688C368.398 322.427 368.32 322.223 368.165 322.08C368.01 321.936 367.786 321.864 367.494 321.864C367.186 321.864 366.941 321.932 366.76 322.066C366.582 322.2 366.461 322.359 366.399 322.542L365.224 322.375C365.317 322.051 365.469 321.78 365.683 321.562C365.896 321.342 366.157 321.177 366.465 321.068C366.773 320.957 367.114 320.901 367.487 320.901C367.744 320.901 368 320.931 368.255 320.992C368.51 321.052 368.743 321.152 368.954 321.29C369.165 321.427 369.334 321.614 369.461 321.85C369.591 322.087 369.656 322.382 369.656 322.737V326.31H368.446V325.577H368.405C368.328 325.725 368.22 325.864 368.081 325.994C367.945 326.121 367.772 326.225 367.564 326.303C367.357 326.38 367.115 326.418 366.837 326.418ZM367.164 325.493C367.416 325.493 367.635 325.443 367.821 325.344C368.006 325.242 368.149 325.107 368.248 324.94C368.35 324.774 368.401 324.592 368.401 324.395V323.766C368.362 323.798 368.295 323.828 368.199 323.856C368.107 323.884 368.002 323.908 367.887 323.929C367.771 323.95 367.656 323.968 367.543 323.985C367.429 324.001 367.331 324.015 367.247 324.026C367.06 324.052 366.891 324.094 366.743 324.152C366.595 324.209 366.478 324.291 366.392 324.395C366.306 324.497 366.264 324.629 366.264 324.791C366.264 325.023 366.348 325.198 366.517 325.316C366.686 325.434 366.902 325.493 367.164 325.493ZM372.18 323.181V326.31H370.921V320.971H372.124V321.878H372.186C372.309 321.579 372.505 321.342 372.774 321.166C373.045 320.989 373.38 320.901 373.779 320.901C374.147 320.901 374.468 320.98 374.742 321.138C375.017 321.295 375.231 321.524 375.381 321.823C375.534 322.121 375.609 322.484 375.607 322.91V326.31H374.349V323.105C374.349 322.748 374.256 322.469 374.071 322.267C373.888 322.066 373.634 321.965 373.31 321.965C373.089 321.965 372.894 322.014 372.722 322.111C372.553 322.206 372.419 322.344 372.322 322.524C372.227 322.706 372.18 322.925 372.18 323.181Z" fill="white"/>
<path d="M262.785 316.973H252.009C246.72 316.973 242.432 319.971 242.432 323.67V342.927C242.432 346.626 246.72 349.624 252.009 349.624H262.785C268.074 349.624 272.362 346.626 272.362 342.927V323.67C272.362 319.971 268.074 316.973 262.785 316.973Z" fill="#F0F1F8"/>
<path d="M315.603 304.728H303.946C298.524 304.728 294.129 307.706 294.129 311.38V342.973C294.129 346.647 298.524 349.624 303.946 349.624H315.603C321.025 349.624 325.42 346.647 325.42 342.973V311.38C325.42 307.706 321.025 304.728 315.603 304.728Z" fill="#F0F1F8"/>
<path d="M367.542 295.205H356.767C351.478 295.205 347.189 298.136 347.189 301.752V343.078C347.189 346.693 351.478 349.624 356.767 349.624H367.542C372.832 349.624 377.12 346.693 377.12 343.078V301.752C377.12 298.136 372.832 295.205 367.542 295.205Z" fill="#F0F1F8"/>
<path d="M419.24 258.472H408.465C403.175 258.472 398.887 262.478 398.887 267.419V340.677C398.887 345.619 403.175 349.624 408.465 349.624H419.24C424.529 349.624 428.818 345.619 428.818 340.677V267.419C428.818 262.478 424.529 258.472 419.24 258.472Z" fill="#F0F1F8"/>
<path d="M522.638 295.205H511.863C506.573 295.205 502.285 297.596 502.285 300.547V344.283C502.285 347.233 506.573 349.624 511.863 349.624H522.638C527.928 349.624 532.216 347.233 532.216 344.283V300.547C532.216 297.596 527.928 295.205 522.638 295.205Z" fill="#F0F1F8"/>
<path d="M470.939 295.205H460.164C454.874 295.205 450.586 297.395 450.586 300.096V344.733C450.586 347.434 454.874 349.624 460.164 349.624H470.939C476.229 349.624 480.517 347.434 480.517 344.733V300.096C480.517 297.395 476.229 295.205 470.939 295.205Z" fill="#F0F1F8"/>
<path d="M574.337 312.891H563.562C558.273 312.891 553.984 314.369 553.984 316.193V346.323C553.984 348.146 558.273 349.624 563.562 349.624H574.337C579.627 349.624 583.915 348.146 583.915 346.323V316.193C583.915 314.369 579.627 312.891 574.337 312.891Z" fill="#F0F1F8"/>
<path d="M252.786 362.128V366.854C252.786 367.38 252.624 367.802 252.299 368.12C251.975 368.432 251.547 368.588 251.015 368.588C250.476 368.588 250.045 368.429 249.721 368.111C249.396 367.787 249.234 367.346 249.234 366.79H250.069C250.076 367.102 250.155 367.356 250.308 367.551C250.467 367.747 250.703 367.845 251.015 367.845C251.327 367.845 251.559 367.753 251.712 367.57C251.865 367.38 251.942 367.141 251.942 366.854V362.128H252.786ZM258.212 367.102H255.422L254.908 368.524H254.027L256.34 362.165H257.303L259.607 368.524H258.726L258.212 367.102ZM257.973 366.423L256.817 363.192L255.661 366.423H257.973ZM265.644 368.524H264.809L261.45 363.431V368.524H260.615V362.119H261.45L264.809 367.203V362.119H265.644V368.524Z" fill="#8D9092"/>
<path d="M211.115 347.011C211.115 346.029 211.275 345.264 211.595 344.716C211.915 344.162 212.474 343.885 213.274 343.885C214.067 343.885 214.624 344.162 214.944 344.716C215.264 345.264 215.423 346.029 215.423 347.011C215.423 348.01 215.264 348.787 214.944 349.341C214.624 349.895 214.067 350.172 213.274 350.172C212.474 350.172 211.915 349.895 211.595 349.341C211.275 348.787 211.115 348.01 211.115 347.011ZM214.653 347.011C214.653 346.514 214.618 346.095 214.55 345.752C214.487 345.404 214.353 345.124 214.147 344.913C213.947 344.702 213.656 344.596 213.274 344.596C212.885 344.596 212.588 344.702 212.383 344.913C212.183 345.124 212.049 345.404 211.98 345.752C211.917 346.095 211.886 346.514 211.886 347.011C211.886 347.525 211.917 347.956 211.98 348.304C212.049 348.653 212.183 348.933 212.383 349.144C212.588 349.355 212.885 349.461 213.274 349.461C213.656 349.461 213.947 349.355 214.147 349.144C214.353 348.933 214.487 348.653 214.55 348.304C214.618 347.956 214.653 347.525 214.653 347.011Z" fill="#8D9092"/>
<path d="M211.02 315.897C211.745 315.314 212.313 314.838 212.724 314.466C213.135 314.089 213.481 313.698 213.76 313.293C214.046 312.882 214.189 312.479 214.189 312.085C214.189 311.714 214.097 311.423 213.915 311.212C213.738 310.994 213.449 310.886 213.049 310.886C212.661 310.886 212.359 311.009 212.142 311.254C211.93 311.494 211.816 311.817 211.799 312.222H211.045C211.068 311.583 211.262 311.089 211.628 310.74C211.993 310.392 212.464 310.218 213.041 310.218C213.629 310.218 214.094 310.381 214.437 310.706C214.785 311.032 214.959 311.48 214.959 312.051C214.959 312.525 214.817 312.988 214.531 313.438C214.252 313.884 213.932 314.278 213.572 314.62C213.212 314.958 212.753 315.352 212.193 315.802H215.139V316.453H211.02V315.897Z" fill="#8D9092"/>
<path d="M210.926 281.496V280.905L213.932 276.743H214.866V280.82H215.722V281.496H214.866V282.875H214.095V281.496H210.926ZM214.129 277.556L211.825 280.82H214.129V277.556Z" fill="#8D9092"/>
<path d="M214.566 244.507C214.441 243.873 214.05 243.557 213.393 243.557C212.885 243.557 212.505 243.754 212.254 244.148C212.002 244.536 211.88 245.178 211.886 246.075C212.017 245.778 212.234 245.547 212.537 245.381C212.845 245.21 213.188 245.124 213.564 245.124C214.152 245.124 214.621 245.307 214.969 245.672C215.323 246.037 215.5 246.543 215.5 247.188C215.5 247.577 215.423 247.925 215.269 248.233C215.12 248.541 214.892 248.787 214.584 248.97C214.281 249.153 213.912 249.244 213.479 249.244C212.891 249.244 212.431 249.112 212.1 248.85C211.769 248.587 211.538 248.225 211.406 247.762C211.274 247.3 211.209 246.729 211.209 246.049C211.209 243.954 211.94 242.906 213.402 242.906C213.961 242.906 214.401 243.057 214.721 243.36C215.041 243.662 215.229 244.045 215.286 244.507H214.566ZM213.402 245.783C213.156 245.783 212.925 245.835 212.708 245.938C212.491 246.035 212.314 246.186 212.177 246.392C212.045 246.592 211.98 246.837 211.98 247.128C211.98 247.562 212.105 247.916 212.357 248.19C212.608 248.459 212.968 248.593 213.436 248.593C213.835 248.593 214.152 248.47 214.387 248.225C214.626 247.973 214.746 247.637 214.746 247.214C214.746 246.768 214.632 246.42 214.404 246.169C214.176 245.912 213.842 245.783 213.402 245.783Z" fill="#8D9092"/>
<path d="M305.909 362.128V362.807H303.128V364.963H305.386V365.643H303.128V368.524H302.293V362.128H305.909ZM307.753 362.807V364.945H310.084V365.633H307.753V367.836H310.359V368.524H306.917V362.119H310.359V362.807H307.753ZM314.825 365.23C315.057 365.266 315.268 365.361 315.458 365.514C315.654 365.667 315.807 365.857 315.917 366.083C316.033 366.309 316.091 366.551 316.091 366.808C316.091 367.132 316.009 367.426 315.844 367.689C315.678 367.946 315.437 368.151 315.119 368.304C314.807 368.451 314.436 368.524 314.008 368.524H311.622V362.128H313.916C314.351 362.128 314.721 362.201 315.027 362.348C315.333 362.489 315.562 362.682 315.715 362.926C315.868 363.171 315.944 363.446 315.944 363.752C315.944 364.131 315.84 364.447 315.632 364.697C315.431 364.942 315.161 365.119 314.825 365.23ZM312.457 364.89H313.861C314.253 364.89 314.556 364.798 314.77 364.615C314.984 364.431 315.091 364.177 315.091 363.853C315.091 363.529 314.984 363.275 314.77 363.091C314.556 362.908 314.247 362.816 313.843 362.816H312.457V364.89ZM313.935 367.836C314.351 367.836 314.675 367.738 314.907 367.542C315.14 367.346 315.256 367.074 315.256 366.725C315.256 366.371 315.134 366.092 314.889 365.89C314.644 365.682 314.317 365.578 313.907 365.578H312.457V367.836H313.935Z" fill="#8D9092"/>
<path d="M359.119 362.175V368.526H358.284V363.79L356.173 368.526H355.586L353.466 363.781V368.526H352.631V362.175H353.53L355.879 367.424L358.229 362.175H359.119ZM364.316 367.103H361.526L361.012 368.526H360.131L362.444 362.166H363.408L365.711 368.526H364.83L364.316 367.103ZM364.077 366.424L362.921 363.194L361.765 366.424H364.077ZM370.086 368.526L368.563 365.91H367.554V368.526H366.719V362.129H368.783C369.267 362.129 369.674 362.212 370.004 362.377C370.34 362.542 370.591 362.766 370.756 363.047C370.922 363.328 371.004 363.65 371.004 364.011C371.004 364.451 370.876 364.839 370.619 365.176C370.368 365.512 369.989 365.736 369.481 365.846L371.087 368.526H370.086ZM367.554 365.24H368.783C369.236 365.24 369.576 365.13 369.802 364.91C370.028 364.683 370.142 364.384 370.142 364.011C370.142 363.631 370.028 363.338 369.802 363.13C369.582 362.922 369.242 362.818 368.783 362.818H367.554V365.24Z" fill="#8D9092"/>
<path d="M409.874 367.103H407.084L406.57 368.526H405.689L408.002 362.166H408.966L411.269 368.526H410.388L409.874 367.103ZM409.636 366.424L408.479 363.194L407.323 366.424H409.636ZM416.553 364.001C416.553 364.534 416.369 364.977 416.002 365.332C415.641 365.681 415.088 365.855 414.341 365.855H413.112V368.526H412.277V362.129H414.341C415.063 362.129 415.611 362.304 415.984 362.652C416.363 363.001 416.553 363.451 416.553 364.001ZM414.341 365.167C414.806 365.167 415.149 365.066 415.369 364.864C415.589 364.662 415.7 364.375 415.7 364.001C415.7 363.212 415.247 362.818 414.341 362.818H413.112V365.167H414.341ZM420.959 368.526L419.436 365.91H418.426V368.526H417.591V362.129H419.656C420.139 362.129 420.546 362.212 420.877 362.377C421.213 362.542 421.464 362.766 421.629 363.047C421.794 363.328 421.877 363.65 421.877 364.011C421.877 364.451 421.748 364.839 421.491 365.176C421.241 365.512 420.861 365.736 420.353 365.846L421.959 368.526H420.959ZM418.426 365.24H419.656C420.109 365.24 420.448 365.13 420.675 364.91C420.901 364.683 421.014 364.384 421.014 364.011C421.014 363.631 420.901 363.338 420.675 363.13C420.454 362.922 420.115 362.818 419.656 362.818H418.426V365.24Z" fill="#8D9092"/>
<path d="M461.573 367.103H458.784L458.27 368.526H457.389L459.701 362.166H460.665L462.968 368.526H462.087L461.573 367.103ZM461.335 366.424L460.178 363.194L459.022 366.424H461.335ZM468.252 364.001C468.252 364.534 468.069 364.977 467.702 365.332C467.341 365.681 466.787 365.855 466.041 365.855H464.811V368.526H463.976V362.129H466.041C466.763 362.129 467.31 362.304 467.683 362.652C468.063 363.001 468.252 363.451 468.252 364.001ZM466.041 365.167C466.506 365.167 466.848 365.066 467.068 364.864C467.289 364.662 467.399 364.375 467.399 364.001C467.399 363.212 466.946 362.818 466.041 362.818H464.811V365.167H466.041ZM472.658 368.526L471.135 365.91H470.126V368.526H469.29V362.129H471.355C471.839 362.129 472.245 362.212 472.576 362.377C472.912 362.542 473.163 362.766 473.328 363.047C473.493 363.328 473.576 363.65 473.576 364.011C473.576 364.451 473.448 364.839 473.191 365.176C472.94 365.512 472.56 365.736 472.053 365.846L473.659 368.526H472.658ZM470.126 365.24H471.355C471.808 365.24 472.148 365.13 472.374 364.91C472.6 364.683 472.713 364.384 472.713 364.011C472.713 363.631 472.6 363.338 472.374 363.13C472.154 362.922 471.814 362.818 471.355 362.818H470.126V365.24Z" fill="#8D9092"/>
<path d="M511.911 367.103H509.121L508.608 368.526H507.727L510.039 362.166H511.003L513.306 368.526H512.425L511.911 367.103ZM511.673 366.424L510.516 363.194L509.36 366.424H511.673ZM518.59 364.001C518.59 364.534 518.407 364.977 518.04 365.332C517.679 365.681 517.125 365.855 516.378 365.855H515.149V368.526H514.314V362.129H516.378C517.1 362.129 517.648 362.304 518.021 362.652C518.4 363.001 518.59 363.451 518.59 364.001ZM516.378 365.167C516.843 365.167 517.186 365.066 517.406 364.864C517.627 364.662 517.737 364.375 517.737 364.001C517.737 363.212 517.284 362.818 516.378 362.818H515.149V365.167H516.378ZM522.996 368.526L521.473 365.91H520.463V368.526H519.628V362.129H521.693C522.176 362.129 522.583 362.212 522.914 362.377C523.25 362.542 523.501 362.766 523.666 363.047C523.831 363.328 523.914 363.65 523.914 364.011C523.914 364.451 523.785 364.839 523.529 365.176C523.278 365.512 522.898 365.736 522.391 365.846L523.997 368.526H522.996ZM520.463 365.24H521.693C522.146 365.24 522.485 365.13 522.712 364.91C522.938 364.683 523.051 364.384 523.051 364.011C523.051 363.631 522.938 363.338 522.712 363.13C522.492 362.922 522.152 362.818 521.693 362.818H520.463V365.24Z" fill="#8D9092"/>
<path d="M564.972 367.103H562.182L561.668 368.526H560.787L563.1 362.166H564.063L566.367 368.526H565.486L564.972 367.103ZM564.733 366.424L563.577 363.194L562.421 366.424H564.733ZM571.651 364.001C571.651 364.534 571.467 364.977 571.1 365.332C570.739 365.681 570.185 365.855 569.439 365.855H568.209V368.526H567.374V362.129H569.439C570.161 362.129 570.709 362.304 571.082 362.652C571.461 363.001 571.651 363.451 571.651 364.001ZM569.439 365.167C569.904 365.167 570.247 365.066 570.467 364.864C570.687 364.662 570.797 364.375 570.797 364.001C570.797 363.212 570.344 362.818 569.439 362.818H568.209V365.167H569.439ZM576.057 368.526L574.533 365.91H573.524V368.526H572.689V362.129H574.754C575.237 362.129 575.644 362.212 575.974 362.377C576.311 362.542 576.562 362.766 576.727 363.047C576.892 363.328 576.974 363.65 576.974 364.011C576.974 364.451 576.846 364.839 576.589 365.176C576.338 365.512 575.959 365.736 575.451 365.846L577.057 368.526H576.057ZM573.524 365.24H574.754C575.206 365.24 575.546 365.13 575.772 364.91C575.999 364.683 576.112 364.384 576.112 364.011C576.112 363.631 575.999 363.338 575.772 363.13C575.552 362.922 575.213 362.818 574.754 362.818H573.524V365.24Z" fill="#8D9092"/>
<path d="M243.791 305.245C286.722 305.245 292.013 246.002 334.944 246.002C377.875 246.002 368.88 229.901 411.812 229.901C454.743 229.901 441.681 281.394 484.613 281.394C527.544 281.394 534.816 299.576 577.747 299.576" stroke="#FFBA69" stroke-width="2.47609" stroke-linecap="round"/>
<path d="M243.791 304.728C285.811 304.728 291.179 259.998 333.199 259.998C375.219 259.998 368.253 224.459 410.273 224.459C452.293 224.459 451.49 274.704 493.51 274.704C535.53 274.704 537.812 300.028 579.832 300.028" stroke="#8676FF" stroke-width="2.47609" stroke-linecap="round"/>
<rect x="204.338" y="96.573" width="379.577" height="107.479" rx="16.3259" fill="#F0F1F8" fill-opacity="0.3"/>
<rect x="220.664" y="137.388" width="352.367" height="8.16295" rx="4.08147" fill="#EDF1FF"/>
<rect x="220.664" y="155.074" width="352.367" height="8.16295" rx="4.08147" fill="#EDF1FF"/>
<rect x="220.664" y="178.202" width="80.269" height="19.0469" rx="7.90445" fill="#F0F1F8"/>
<path d="M226.499 113.891C226.453 113.479 226.262 113.161 225.925 112.934C225.589 112.705 225.166 112.591 224.656 112.591C224.29 112.591 223.974 112.649 223.708 112.765C223.441 112.878 223.234 113.034 223.086 113.234C222.941 113.432 222.869 113.656 222.869 113.908C222.869 114.12 222.918 114.303 223.016 114.456C223.118 114.61 223.25 114.739 223.412 114.843C223.577 114.945 223.754 115.03 223.943 115.1C224.131 115.167 224.312 115.222 224.486 115.265L225.356 115.491C225.64 115.561 225.931 115.655 226.23 115.774C226.528 115.893 226.805 116.049 227.06 116.243C227.315 116.438 227.521 116.678 227.678 116.965C227.837 117.252 227.917 117.596 227.917 117.996C227.917 118.5 227.786 118.948 227.525 119.339C227.267 119.731 226.892 120.039 226.399 120.265C225.909 120.492 225.317 120.605 224.621 120.605C223.954 120.605 223.377 120.499 222.89 120.287C222.403 120.076 222.022 119.776 221.747 119.387C221.471 118.996 221.319 118.532 221.29 117.996H222.638C222.664 118.317 222.769 118.586 222.951 118.8C223.137 119.012 223.373 119.17 223.66 119.274C223.95 119.376 224.267 119.426 224.612 119.426C224.992 119.426 225.33 119.367 225.625 119.248C225.924 119.126 226.159 118.958 226.33 118.744C226.501 118.526 226.586 118.273 226.586 117.983C226.586 117.719 226.511 117.503 226.36 117.335C226.212 117.167 226.011 117.028 225.756 116.917C225.504 116.807 225.218 116.71 224.899 116.626L223.847 116.339C223.134 116.145 222.569 115.859 222.151 115.482C221.737 115.106 221.529 114.607 221.529 113.987C221.529 113.474 221.668 113.026 221.947 112.643C222.225 112.261 222.602 111.963 223.077 111.752C223.553 111.537 224.089 111.43 224.686 111.43C225.289 111.43 225.821 111.536 226.282 111.747C226.746 111.959 227.111 112.25 227.378 112.621C227.644 112.99 227.783 113.413 227.795 113.891H226.499ZM232.296 120.592C231.638 120.592 231.072 120.451 230.596 120.17C230.124 119.886 229.759 119.487 229.501 118.974C229.246 118.458 229.118 117.854 229.118 117.161C229.118 116.477 229.246 115.874 229.501 115.352C229.759 114.83 230.118 114.423 230.579 114.13C231.043 113.837 231.585 113.691 232.205 113.691C232.582 113.691 232.947 113.753 233.301 113.878C233.655 114.003 233.972 114.198 234.253 114.465C234.534 114.732 234.756 115.078 234.918 115.504C235.081 115.927 235.162 116.442 235.162 117.048V117.509H229.853V116.535H233.888C233.888 116.193 233.818 115.89 233.679 115.626C233.54 115.359 233.344 115.149 233.092 114.995C232.843 114.842 232.55 114.765 232.214 114.765C231.849 114.765 231.53 114.855 231.257 115.035C230.988 115.211 230.779 115.443 230.631 115.73C230.486 116.014 230.414 116.323 230.414 116.656V117.417C230.414 117.864 230.492 118.244 230.649 118.557C230.808 118.87 231.03 119.109 231.314 119.274C231.598 119.436 231.93 119.518 232.31 119.518C232.556 119.518 232.781 119.483 232.983 119.413C233.186 119.341 233.362 119.234 233.51 119.091C233.657 118.949 233.771 118.774 233.849 118.565L235.079 118.787C234.981 119.149 234.804 119.467 234.549 119.739C234.297 120.009 233.979 120.219 233.597 120.37C233.217 120.518 232.783 120.592 232.296 120.592ZM237.905 111.552V120.457H236.604V111.552H237.905ZM242.532 120.592C241.874 120.592 241.307 120.451 240.832 120.17C240.359 119.886 239.994 119.487 239.736 118.974C239.481 118.458 239.354 117.854 239.354 117.161C239.354 116.477 239.481 115.874 239.736 115.352C239.994 114.83 240.354 114.423 240.815 114.13C241.278 113.837 241.82 113.691 242.441 113.691C242.818 113.691 243.183 113.753 243.536 113.878C243.89 114.003 244.208 114.198 244.489 114.465C244.77 114.732 244.992 115.078 245.154 115.504C245.316 115.927 245.397 116.442 245.397 117.048V117.509H240.088V116.535H244.123C244.123 116.193 244.054 115.89 243.915 115.626C243.776 115.359 243.58 115.149 243.328 114.995C243.078 114.842 242.786 114.765 242.449 114.765C242.084 114.765 241.765 114.855 241.493 115.035C241.223 115.211 241.015 115.443 240.867 115.73C240.722 116.014 240.649 116.323 240.649 116.656V117.417C240.649 117.864 240.728 118.244 240.884 118.557C241.044 118.87 241.265 119.109 241.549 119.274C241.833 119.436 242.165 119.518 242.545 119.518C242.791 119.518 243.016 119.483 243.219 119.413C243.422 119.341 243.597 119.234 243.745 119.091C243.893 118.949 244.006 118.774 244.084 118.565L245.315 118.787C245.216 119.149 245.039 119.467 244.784 119.739C244.532 120.009 244.215 120.219 243.832 120.37C243.452 120.518 243.019 120.592 242.532 120.592ZM249.653 120.592C249.007 120.592 248.45 120.445 247.984 120.152C247.52 119.857 247.163 119.449 246.914 118.931C246.665 118.412 246.54 117.817 246.54 117.148C246.54 116.47 246.668 115.871 246.923 115.352C247.178 114.83 247.537 114.423 248.001 114.13C248.465 113.837 249.011 113.691 249.64 113.691C250.147 113.691 250.6 113.785 250.997 113.974C251.394 114.159 251.714 114.42 251.958 114.756C252.204 115.093 252.351 115.485 252.397 115.935H251.132C251.062 115.622 250.903 115.352 250.653 115.126C250.407 114.9 250.076 114.787 249.662 114.787C249.3 114.787 248.982 114.882 248.71 115.074C248.44 115.262 248.23 115.532 248.079 115.883C247.928 116.23 247.853 116.642 247.853 117.117C247.853 117.604 247.927 118.025 248.075 118.378C248.223 118.732 248.431 119.006 248.701 119.2C248.973 119.394 249.294 119.491 249.662 119.491C249.908 119.491 250.132 119.447 250.332 119.357C250.534 119.264 250.704 119.132 250.84 118.961C250.979 118.79 251.077 118.584 251.132 118.344H252.397C252.351 118.775 252.21 119.161 251.975 119.5C251.74 119.839 251.426 120.106 251.032 120.3C250.64 120.494 250.181 120.592 249.653 120.592ZM256.905 113.778V114.822H253.257V113.778H256.905ZM254.235 112.178H255.535V118.496C255.535 118.748 255.573 118.938 255.648 119.065C255.724 119.19 255.821 119.276 255.94 119.322C256.061 119.365 256.193 119.387 256.335 119.387C256.44 119.387 256.531 119.38 256.609 119.365C256.687 119.351 256.748 119.339 256.792 119.331L257.027 120.405C256.951 120.434 256.844 120.463 256.705 120.492C256.566 120.523 256.392 120.541 256.183 120.544C255.841 120.55 255.522 120.489 255.227 120.361C254.931 120.234 254.692 120.036 254.509 119.77C254.326 119.503 254.235 119.168 254.235 118.765V112.178ZM261.688 120.457V111.552H264.862C265.552 111.552 266.124 111.671 266.58 111.908C267.038 112.146 267.38 112.475 267.606 112.895C267.832 113.313 267.945 113.795 267.945 114.343C267.945 114.888 267.83 115.368 267.601 115.783C267.375 116.194 267.033 116.514 266.575 116.743C266.12 116.972 265.548 117.087 264.858 117.087H262.453V115.93H264.736C265.171 115.93 265.524 115.868 265.797 115.743C266.072 115.619 266.274 115.438 266.401 115.2C266.529 114.962 266.593 114.677 266.593 114.343C266.593 114.007 266.527 113.716 266.397 113.469C266.269 113.223 266.068 113.034 265.793 112.904C265.52 112.771 265.162 112.704 264.719 112.704H263.031V120.457H261.688ZM266.084 116.439L268.284 120.457H266.753L264.597 116.439H266.084ZM272.27 120.592C271.612 120.592 271.045 120.451 270.57 120.17C270.098 119.886 269.732 119.487 269.474 118.974C269.219 118.458 269.092 117.854 269.092 117.161C269.092 116.477 269.219 115.874 269.474 115.352C269.732 114.83 270.092 114.423 270.553 114.13C271.016 113.837 271.559 113.691 272.179 113.691C272.556 113.691 272.921 113.753 273.275 113.878C273.628 114.003 273.946 114.198 274.227 114.465C274.508 114.732 274.73 115.078 274.892 115.504C275.054 115.927 275.136 116.442 275.136 117.048V117.509H269.827V116.535H273.862C273.862 116.193 273.792 115.89 273.653 115.626C273.514 115.359 273.318 115.149 273.066 114.995C272.817 114.842 272.524 114.765 272.188 114.765C271.822 114.765 271.503 114.855 271.231 115.035C270.961 115.211 270.753 115.443 270.605 115.73C270.46 116.014 270.387 116.323 270.387 116.656V117.417C270.387 117.864 270.466 118.244 270.622 118.557C270.782 118.87 271.003 119.109 271.288 119.274C271.572 119.436 271.904 119.518 272.283 119.518C272.53 119.518 272.754 119.483 272.957 119.413C273.16 119.341 273.336 119.234 273.483 119.091C273.631 118.949 273.744 118.774 273.822 118.565L275.053 118.787C274.954 119.149 274.778 119.467 274.523 119.739C274.27 120.009 273.953 120.219 273.57 120.37C273.191 120.518 272.757 120.592 272.27 120.592ZM276.578 122.961V113.778H277.848V114.861H277.957C278.032 114.722 278.141 114.561 278.283 114.378C278.425 114.195 278.622 114.036 278.874 113.9C279.126 113.761 279.46 113.691 279.874 113.691C280.413 113.691 280.894 113.827 281.318 114.1C281.741 114.372 282.073 114.765 282.313 115.278C282.557 115.791 282.679 116.409 282.679 117.13C282.679 117.852 282.558 118.471 282.318 118.987C282.077 119.5 281.747 119.896 281.326 120.174C280.906 120.45 280.426 120.587 279.887 120.587C279.481 120.587 279.149 120.519 278.891 120.383C278.636 120.247 278.436 120.087 278.291 119.905C278.146 119.722 278.035 119.56 277.957 119.418H277.878V122.961H276.578ZM277.852 117.117C277.852 117.587 277.92 117.999 278.057 118.352C278.193 118.706 278.39 118.983 278.648 119.183C278.906 119.38 279.222 119.478 279.596 119.478C279.984 119.478 280.309 119.376 280.57 119.17C280.831 118.961 281.028 118.678 281.161 118.322C281.297 117.965 281.365 117.564 281.365 117.117C281.365 116.677 281.299 116.281 281.165 115.93C281.035 115.58 280.838 115.303 280.574 115.1C280.313 114.897 279.987 114.795 279.596 114.795C279.219 114.795 278.9 114.893 278.639 115.087C278.381 115.281 278.186 115.552 278.052 115.9C277.919 116.248 277.852 116.654 277.852 117.117ZM286.949 120.592C286.322 120.592 285.776 120.448 285.309 120.161C284.843 119.874 284.48 119.473 284.222 118.957C283.964 118.441 283.835 117.838 283.835 117.148C283.835 116.455 283.964 115.849 284.222 115.33C284.48 114.811 284.843 114.408 285.309 114.122C285.776 113.835 286.322 113.691 286.949 113.691C287.575 113.691 288.121 113.835 288.588 114.122C289.054 114.408 289.417 114.811 289.675 115.33C289.933 115.849 290.062 116.455 290.062 117.148C290.062 117.838 289.933 118.441 289.675 118.957C289.417 119.473 289.054 119.874 288.588 120.161C288.121 120.448 287.575 120.592 286.949 120.592ZM286.953 119.5C287.359 119.5 287.695 119.393 287.962 119.178C288.228 118.964 288.425 118.678 288.553 118.322C288.683 117.965 288.749 117.573 288.749 117.143C288.749 116.717 288.683 116.326 288.553 115.969C288.425 115.61 288.228 115.322 287.962 115.104C287.695 114.887 287.359 114.778 286.953 114.778C286.544 114.778 286.205 114.887 285.935 115.104C285.669 115.322 285.47 115.61 285.34 115.969C285.212 116.326 285.148 116.717 285.148 117.143C285.148 117.573 285.212 117.965 285.34 118.322C285.47 118.678 285.669 118.964 285.935 119.178C286.205 119.393 286.544 119.5 286.953 119.5ZM291.513 120.457V113.778H292.77V114.839H292.839C292.961 114.48 293.175 114.197 293.483 113.991C293.793 113.782 294.144 113.678 294.535 113.678C294.616 113.678 294.712 113.681 294.822 113.687C294.935 113.692 295.023 113.7 295.087 113.708V114.952C295.035 114.938 294.942 114.922 294.809 114.904C294.676 114.884 294.542 114.874 294.409 114.874C294.102 114.874 293.828 114.939 293.587 115.069C293.349 115.197 293.161 115.375 293.022 115.604C292.883 115.83 292.813 116.088 292.813 116.378V120.457H291.513ZM299.724 113.778V114.822H296.076V113.778H299.724ZM297.055 112.178H298.355V118.496C298.355 118.748 298.393 118.938 298.468 119.065C298.543 119.19 298.64 119.276 298.759 119.322C298.881 119.365 299.013 119.387 299.155 119.387C299.259 119.387 299.351 119.38 299.429 119.365C299.507 119.351 299.568 119.339 299.611 119.331L299.846 120.405C299.771 120.434 299.664 120.463 299.524 120.492C299.385 120.523 299.211 120.541 299.003 120.544C298.661 120.55 298.342 120.489 298.046 120.361C297.75 120.234 297.511 120.036 297.329 119.77C297.146 119.503 297.055 119.168 297.055 118.765V112.178Z" fill="#383838"/>
</g>
</g>
</g>
<defs>
<filter id="filter0_d_75_7993" x="-15.3414" y="-0.416306" width="710.348" height="527.762" filterUnits="userSpaceOnUse" color-interpolation-filters="sRGB">
<feFlood flood-opacity="0" result="BackgroundImageFix"/>
<feColorMatrix in="SourceAlpha" type="matrix" values="0 0 0 0 0 0 0 0 0 0 0 0 0 0 0 0 0 0 127 0" result="hardAlpha"/>
<feOffset dx="12.2308" dy="36.9645"/>
<feGaussianBlur stdDeviation="39.0869"/>
<feColorMatrix type="matrix" values="0 0 0 0 0.180392 0 0 0 0 0.203922 0 0 0 0 0.47451 0 0 0 0.19 0"/>
<feBlend mode="normal" in2="BackgroundImageFix" result="effect1_dropShadow_75_7993"/>
<feBlend mode="normal" in="SourceGraphic" in2="effect1_dropShadow_75_7993" result="shape"/>
</filter>
<clipPath id="clip0_75_7993">
<rect x="0.5" y="0.25" width="584" height="458.5" rx="24" fill="white"/>
</clipPath>
<clipPath id="clip1_75_7993">
<rect x="50.6016" y="40.793" width="554" height="371.414" rx="23.7275" fill="white"/>
</clipPath>
</defs>
</svg>
