<svg width="19" height="23" viewBox="0 0 19 23" fill="none" xmlns="http://www.w3.org/2000/svg">
<path d="M11.5 1.43823V5.56877C11.5 6.12883 11.5 6.40885 11.609 6.62276C11.7049 6.81093 11.8578 6.96391 12.046 7.05978C12.2599 7.16877 12.5399 7.16877 13.1 7.16877H17.2305M11.5 16.1687H5.5M13.5 12.1687H5.5M17.5 9.15693V16.3687C17.5 18.0489 17.5 18.8889 17.173 19.5307C16.8854 20.0952 16.4265 20.5541 15.862 20.8417C15.2202 21.1687 14.3802 21.1687 12.7 21.1687H6.3C4.61984 21.1687 3.77976 21.1687 3.13803 20.8417C2.57354 20.5541 2.1146 20.0952 1.82698 19.5307C1.5 18.8889 1.5 18.0489 1.5 16.3687V5.9687C1.5 4.28854 1.5 3.44846 1.82698 2.80673C2.1146 2.24224 2.57354 1.7833 3.13803 1.49568C3.77976 1.1687 4.61984 1.1687 6.3 1.1687H9.51178C10.2455 1.1687 10.6124 1.1687 10.9577 1.25159C11.2638 1.32508 11.5564 1.44629 11.8249 1.61078C12.1276 1.79631 12.387 2.05573 12.9059 2.57459L16.0941 5.76281C16.613 6.28167 16.8724 6.5411 17.0579 6.84385C17.2224 7.11226 17.3436 7.4049 17.4171 7.71101C17.5 8.05627 17.5 8.42315 17.5 9.15693Z" stroke="#D97FC0" stroke-width="2" stroke-linecap="round" stroke-linejoin="round"/>
</svg>
