<svg width="25" height="25" viewBox="0 0 25 25" fill="none" xmlns="http://www.w3.org/2000/svg">
<path d="M12.5 2.3374C15.757 2.3374 16.1428 2.3498 17.429 2.40848C18.6182 2.46277 19.2641 2.66147 19.694 2.82847C20.2632 3.04975 20.6696 3.31412 21.0965 3.74093C21.5233 4.16776 21.7877 4.57414 22.0089 5.14345C22.1759 5.57332 22.3746 6.21919 22.4289 7.4084C22.4876 8.69467 22.5 9.08042 22.5 12.3374C22.5 15.5944 22.4876 15.9802 22.4289 17.2664C22.3746 18.4556 22.1759 19.1015 22.0089 19.5314C21.7877 20.1007 21.5233 20.507 21.0965 20.9339C20.6696 21.3607 20.2632 21.6251 19.694 21.8464C19.2641 22.0133 18.6182 22.2121 17.429 22.2664C16.1429 22.325 15.7571 22.3375 12.5 22.3375C9.24283 22.3375 8.85707 22.325 7.57106 22.2664C6.38178 22.2121 5.73592 22.0133 5.30609 21.8464C4.73674 21.6251 4.33036 21.3607 3.90353 20.9339C3.47672 20.507 3.21235 20.1007 2.99113 19.5314C2.82407 19.1015 2.62537 18.4556 2.57108 17.2664C2.5124 15.9802 2.49999 15.5944 2.49999 12.3374C2.49999 9.08042 2.5124 8.69467 2.57108 7.40846C2.62537 6.21919 2.82407 5.57332 2.99113 5.14345C3.21235 4.57414 3.47672 4.16776 3.90353 3.74093C4.33036 3.31412 4.73674 3.04975 5.30609 2.82847C5.73592 2.66147 6.38179 2.46277 7.571 2.40848C8.85727 2.3498 9.24302 2.3374 12.5 2.3374ZM12.5 0.337402C9.24095 0.337402 8.83235 0.351216 7.55241 0.409616C6.2751 0.46792 5.40284 0.670746 4.63949 0.967411C3.85038 1.27408 3.18117 1.6844 2.51407 2.35151C1.84695 3.01862 1.43663 3.68785 1.12996 4.47695C0.833295 5.24029 0.63047 6.11255 0.572166 7.38986C0.513766 8.66975 0.5 9.0784 0.5 12.3374C0.5 15.5965 0.513766 16.0051 0.572166 17.285C0.63047 18.5623 0.833295 19.4345 1.12996 20.1979C1.43663 20.987 1.84695 21.6562 2.51407 22.3234C3.18117 22.9904 3.85038 23.4008 4.63949 23.7074C5.40284 24.0041 6.2751 24.2069 7.55241 24.2653C8.83235 24.3236 9.24095 24.3374 12.5 24.3374C15.7591 24.3374 16.1677 24.3236 17.4476 24.2653C18.7248 24.2069 19.5971 24.0041 20.3605 23.7074C21.1496 23.4008 21.8188 22.9904 22.486 22.3234C23.153 21.6562 23.5632 20.987 23.87 20.1979C24.1667 19.4345 24.3695 18.5623 24.4278 17.285C24.4862 16.0051 24.5 15.5965 24.5 12.3374C24.5 9.0784 24.4862 8.66975 24.4278 7.38986C24.3695 6.11255 24.1667 5.24029 23.87 4.47695C23.5632 3.68785 23.153 3.01862 22.486 2.35151C21.8188 1.6844 21.1496 1.27408 20.3605 0.967411C19.5971 0.670746 18.7248 0.46792 17.4476 0.409616C16.1677 0.351216 15.7591 0.337402 12.5 0.337402ZM12.5 6.3374C9.18631 6.3374 6.5 9.02371 6.5 12.3374C6.5 15.6511 9.18631 18.3374 12.5 18.3374C15.8137 18.3374 18.5 15.6511 18.5 12.3374C18.5 9.02371 15.8137 6.3374 12.5 6.3374ZM12.5 16.3375C10.2909 16.3375 8.5 14.5465 8.5 12.3374C8.5 10.1283 10.2909 8.3374 12.5 8.3374C14.7091 8.3374 16.5 10.1283 16.5 12.3374C16.5 14.5465 14.7091 16.3375 12.5 16.3375ZM20.5 5.67071C20.5 6.40711 19.9031 7.00406 19.1667 7.00406C18.4303 7.00406 17.8334 6.40711 17.8334 5.67071C17.8334 4.93433 18.4303 4.33741 19.1667 4.33741C19.9031 4.33741 20.5 4.93433 20.5 5.67071Z" fill="#314351"/>
</svg>
