<svg width="378" height="378" viewBox="0 0 378 378" fill="none" xmlns="http://www.w3.org/2000/svg">
<path d="M311.843 190.973C301.941 184.762 286.788 193.737 285.449 194.551C271.076 203.296 273.183 215.66 261.973 219.453C250.118 223.464 242.997 211.25 232.216 215.572C221.348 219.933 217.684 236.728 215.665 245.989C211.757 263.914 216.277 273.12 209.499 278.734C203.382 283.8 196.969 278.56 190.511 282.561C178.091 290.25 175.393 325.97 195.088 346.19C212.158 363.714 239.674 363.044 257.707 353.793C270.154 347.41 285.606 333.085 285.383 316.911C285.21 304.379 275.77 301.058 277.732 291.478C281.068 275.185 310.912 272.369 310.492 261.645C310.201 254.226 295.771 251.83 296.177 244.647C296.546 238.129 308.54 238.165 315.412 228.097C322.989 217.017 321.902 197.276 311.843 190.973Z" fill="url(#paint0_linear_299_10140)"/>
<mask id="mask0_299_10140" style="mask-type:luminance" maskUnits="userSpaceOnUse" x="180" y="188" width="141" height="173">
<path d="M311.843 190.972C301.941 184.762 286.788 193.737 285.449 194.551C271.076 203.296 273.183 215.659 261.973 219.453C250.118 223.463 242.997 211.25 232.216 215.571C221.348 219.933 217.684 236.727 215.665 245.988C211.757 263.914 216.277 273.119 209.499 278.733C203.382 283.8 196.969 278.56 190.511 282.56C178.091 290.249 175.393 325.97 195.088 346.189C212.158 363.714 239.674 363.044 257.707 353.793C270.154 347.409 285.606 333.084 285.383 316.911C285.21 304.379 275.77 301.058 277.732 291.477C281.068 275.184 310.912 272.369 310.492 261.645C310.201 254.226 295.771 251.83 296.177 244.647C296.546 238.129 308.54 238.165 315.412 228.096C322.989 217.016 321.902 197.275 311.843 190.972Z" fill="white"/>
</mask>
<g mask="url(#mask0_299_10140)">
<g style="mix-blend-mode:soft-light">
<g style="mix-blend-mode:soft-light">
<path d="M197.294 368.222L196.477 367.859C210.579 336.216 225.644 307.18 241.256 281.569C253.749 261.072 266.615 242.704 279.509 226.97C301.474 200.167 316.091 190.185 316.236 190.087L316.735 190.829C316.592 190.926 302.052 200.863 280.16 227.588C259.953 252.26 229.175 296.682 197.294 368.222Z" fill="white"/>
<path d="M277.498 229.619C277.196 201.891 289.733 181.453 289.86 181.25L290.619 181.724C290.49 181.924 278.094 202.153 278.392 229.609L277.498 229.619Z" fill="white"/>
<path d="M238.948 285.195C229.244 256.591 228.266 237.31 229.159 226.172C230.132 214.041 233.383 208.771 233.521 208.552L234.278 209.029C234.245 209.081 230.986 214.392 230.044 226.344C229.172 237.387 230.156 256.51 239.795 284.908L238.948 285.195Z" fill="white"/>
<path d="M209.073 341.288C181.295 296.374 185.244 265.487 185.286 265.18L186.173 265.31C186.161 265.386 185.162 273.396 187.773 287.014C190.072 299.005 195.766 318.075 209.834 340.821L209.073 341.288Z" fill="white"/>
<path d="M253.425 278.87C250.273 278.872 247.124 278.693 243.992 278.332L244.096 277.443C264.916 279.858 284.244 273.591 296.791 267.907C310.391 261.745 319.165 254.933 319.251 254.865L319.804 255.57C319.716 255.638 310.858 262.516 297.162 268.723C286.426 273.583 270.766 278.87 253.425 278.87Z" fill="white"/>
<path d="M219.754 331.246C218.081 331.246 216.386 331.185 214.668 331.063L214.731 330.171C236.528 331.732 254.663 322.809 266.04 315.05C278.376 306.64 285.634 297.749 285.705 297.66L286.4 298.223C286.328 298.312 278.987 307.301 266.543 315.789C255.947 323.017 239.539 331.246 219.754 331.246Z" fill="white"/>
</g>
</g>
</g>
<path d="M171.221 357.978C196.281 332.249 192.842 286.798 177.044 277.014C168.827 271.924 160.667 278.591 152.882 272.144C144.257 265.003 150.011 253.289 145.038 230.484C142.468 218.699 137.808 197.328 123.977 191.779C110.263 186.275 101.206 201.819 86.1166 196.713C71.8524 191.886 74.5332 176.153 56.244 165.027C54.5427 163.992 35.2598 152.578 22.6621 160.474C9.86255 168.495 8.48206 193.613 18.1079 207.716C26.854 220.524 42.1144 220.482 42.5841 228.776C43.1016 237.916 24.7387 240.965 24.3699 250.405C23.8343 264.05 61.8086 267.632 66.0536 288.365C68.5506 300.556 56.5377 304.782 56.319 320.728C56.0357 341.307 75.6963 359.535 91.5337 367.658C114.483 379.424 149.496 380.276 171.221 357.978Z" fill="url(#paint1_linear_299_10140)"/>
<mask id="mask1_299_10140" style="mask-type:luminance" maskUnits="userSpaceOnUse" x="11" y="157" width="179" height="219">
<path d="M171.214 357.978C196.273 332.249 192.834 286.798 177.036 277.014C168.819 271.924 160.659 278.591 152.874 272.144C144.25 265.003 150.003 253.289 145.03 230.484C142.46 218.699 137.8 197.328 123.969 191.779C110.255 186.275 101.198 201.819 86.1087 196.713C71.8446 191.886 74.5254 176.153 56.2362 165.027C54.5348 163.992 35.252 152.578 22.6543 160.474C9.85473 168.495 8.47425 193.613 18.1001 207.716C26.8462 220.524 42.1066 220.482 42.5762 228.776C43.0938 237.916 24.7309 240.965 24.3621 250.405C23.8265 264.05 61.8008 267.632 66.0458 288.365C68.5428 300.556 56.5299 304.782 56.3112 320.728C56.0279 341.307 75.6885 359.535 91.5259 367.658C114.475 379.424 149.488 380.276 171.214 357.978Z" fill="white"/>
</mask>
<g mask="url(#mask1_299_10140)">
<g style="mix-blend-mode:soft-light">
<path d="M159.813 379.863L160.849 379.4C142.906 339.137 123.736 302.195 103.87 269.602C87.9765 243.521 71.5983 220.149 55.2007 200.134C27.2546 166.027 8.6523 153.327 8.46728 153.201L7.83203 154.146C8.01575 154.275 26.5158 166.913 54.3713 200.919C80.083 232.308 119.248 288.833 159.813 379.863Z" fill="white"/>
<path d="M57.7616 203.497C58.1497 168.216 42.192 142.21 42.0303 141.951L41.0625 142.559C41.2216 142.818 56.9995 168.556 56.6217 203.497H57.7616Z" fill="white"/>
<path d="M106.812 274.217C119.165 237.819 120.405 213.285 119.268 199.113C118.029 183.676 113.893 176.969 113.718 176.691L112.755 177.299C112.796 177.365 116.943 184.124 118.143 199.331C119.252 213.382 117.998 237.717 105.734 273.854L106.812 274.217Z" fill="white"/>
<path d="M144.821 345.592C180.166 288.442 175.142 249.14 175.088 248.751L173.96 248.909C173.974 249.007 175.246 259.198 171.923 276.527C168.998 291.785 161.753 316.05 143.848 344.993L144.821 345.592Z" fill="white"/>
<path d="M88.3851 266.166C92.3958 266.17 96.4034 265.942 100.388 265.482L100.258 264.351C73.7664 267.425 49.1726 259.45 33.2084 252.218C15.9012 244.378 4.74476 235.709 4.62702 235.622L3.92578 236.519C4.03705 236.607 15.3112 245.36 32.7374 253.254C46.3922 259.441 66.3193 266.166 88.3851 266.166Z" fill="white"/>
<path d="M131.241 332.812C133.368 332.812 135.524 332.734 137.71 332.58L137.628 331.444C109.895 333.431 86.8183 322.078 72.342 312.204C56.6456 301.496 47.4104 290.19 47.3185 290.08L46.4336 290.797C46.5267 290.911 55.8667 302.348 71.7015 313.148C85.1816 322.342 106.064 332.812 131.241 332.812Z" fill="white"/>
</g>
</g>
<path d="M197.591 94.7784C208.052 183.188 218.513 270.674 228.973 357.236C229.442 361.118 226.76 364.55 223.008 364.87C180.969 368.857 138.929 372.933 96.8885 377.096C89.3844 377.46 85.2715 373.269 84.7889 369.074C74.0219 275.628 63.2549 181.204 52.4878 85.802C52.0053 81.5183 55.6344 77.8348 63.1345 78.2009C105.381 81.2129 147.628 84.1852 189.875 87.1178C193.652 87.3675 197.122 90.8077 197.591 94.7784Z" fill="#26264F"/>
<path d="M203.433 94.5975C213.962 183.391 224.489 271.251 235.012 358.177C235.484 362.071 232.786 365.523 229.011 365.845C185.358 369.542 141.705 373.312 98.0512 377.156C94.0675 377.51 90.4061 374.355 89.9209 370.14C79.0858 276.265 68.251 181.401 57.4168 85.5487C56.9303 81.2455 59.8181 77.9424 63.8288 78.2141C107.776 81.1467 151.722 84.0431 195.667 86.9033C199.47 87.1556 202.96 90.6139 203.433 94.5975Z" fill="url(#paint2_linear_299_10140)"/>
<path d="M200.894 109.124C210.641 191.391 220.391 272.857 230.143 353.523C230.585 357.168 228.064 360.388 224.536 360.675C183.479 364.032 142.426 367.453 101.375 370.939C97.666 371.257 94.2594 368.303 93.804 364.387C83.7848 277.678 73.7665 190.124 63.749 101.725C63.2962 97.7258 65.9834 94.631 69.716 94.8522C111.026 97.257 152.336 99.6371 193.644 101.993C197.193 102.193 200.455 105.408 200.894 109.124Z" fill="url(#paint3_linear_299_10140)"/>
<path style="mix-blend-mode:multiply" opacity="0.3" d="M193.643 101.993C152.824 99.6641 112.004 97.3119 71.1836 94.9365C72.5566 102.949 74.9674 110.748 78.3551 118.137C91.896 147.506 111.787 149.13 119.569 174.729C127.591 201.101 109.505 209.355 118.339 233.166C127.925 259.003 151.433 255.264 163.859 283.606C174.567 308.035 160.781 319.201 171.854 334.046C183.993 350.317 206.448 344.8 229.756 350.312C220.135 270.696 210.514 190.3 200.894 109.124C200.454 105.409 197.192 102.193 193.643 101.993Z" fill="url(#paint4_linear_299_10140)"/>
<path d="M134.016 91.1481C134.181 92.579 133.22 93.6736 131.868 93.5959C130.516 93.5183 129.28 92.284 129.116 90.8466C128.952 89.4092 129.913 88.3121 131.266 88.4013C132.62 88.4906 133.849 89.7158 134.016 91.1481Z" fill="#DE8BDF"/>
<path d="M148.764 170.648C153.981 170.648 158.211 165.658 158.211 159.502C158.211 153.346 153.981 148.356 148.764 148.356C143.546 148.356 139.316 153.346 139.316 159.502C139.316 165.658 143.546 170.648 148.764 170.648Z" fill="url(#paint5_linear_299_10140)"/>
<path d="M186.373 170.648C191.591 170.648 195.82 165.658 195.82 159.502C195.82 153.346 191.591 148.356 186.373 148.356C181.155 148.356 176.926 153.346 176.926 159.502C176.926 165.658 181.155 170.648 186.373 170.648Z" fill="url(#paint6_linear_299_10140)"/>
<path d="M167.462 170.648C172.755 170.648 177.045 165.658 177.045 159.502C177.045 153.346 172.755 148.356 167.462 148.356C162.169 148.356 157.879 153.346 157.879 159.502C157.879 165.658 162.169 170.648 167.462 170.648Z" fill="#D8DEE8"/>
<path d="M223.986 170.648C229.204 170.648 233.434 165.658 233.434 159.502C233.434 153.346 229.204 148.356 223.986 148.356C218.769 148.356 214.539 153.346 214.539 159.502C214.539 165.658 218.769 170.648 223.986 170.648Z" fill="url(#paint7_linear_299_10140)"/>
<path d="M205.071 170.648C210.364 170.648 214.655 165.658 214.655 159.502C214.655 153.346 210.364 148.356 205.071 148.356C199.779 148.356 195.488 153.346 195.488 159.502C195.488 165.658 199.779 170.648 205.071 170.648Z" fill="#D8DEE8"/>
<path d="M242.685 170.648C247.977 170.648 252.268 165.658 252.268 159.502C252.268 153.346 247.977 148.356 242.685 148.356C237.392 148.356 233.102 153.346 233.102 159.502C233.102 165.658 237.392 170.648 242.685 170.648Z" fill="#D8DEE8"/>
<path d="M129.861 170.648C135.153 170.648 139.444 165.658 139.444 159.502C139.444 153.346 135.153 148.356 129.861 148.356C124.568 148.356 120.277 153.346 120.277 159.502C120.277 165.658 124.568 170.648 129.861 170.648Z" fill="#D8DEE8"/>
<path d="M61.8516 93.7488L120.48 161.012H271.802L198.477 102.268L61.8516 93.7488Z" fill="url(#paint8_linear_299_10140)"/>
<path d="M61.8516 93.7488L120.48 161.012H139.441L77.623 94.7321L61.8516 93.7488Z" fill="#F4F7FA"/>
<path d="M94.5586 95.7878L158.127 161.012H176.856L111.617 96.8513L94.5586 95.7878Z" fill="#F4F7FA"/>
<path d="M128.801 97.9224L195.628 161.012H214.448L146.116 99.0027L128.801 97.9224Z" fill="#F4F7FA"/>
<path d="M181.148 101.187L163.566 100.091L233.315 161.012H252.227L181.148 101.187Z" fill="#F4F7FA"/>
<path d="M252.238 161.012C252.864 166.453 256.807 170.65 261.59 170.65C266.373 170.65 270.315 166.453 270.94 161.012H252.238Z" fill="url(#paint9_linear_299_10140)"/>
<path opacity="0.63" d="M180.326 203.031C172.142 184.17 151.381 175.011 133.953 182.572C116.526 190.133 109.033 211.553 117.217 230.414C125.4 249.275 146.163 258.434 163.589 250.873C181.015 243.312 188.509 221.892 180.326 203.031ZM154.628 229.908L155.327 235.221L150.221 235.891L149.574 230.942C146.064 231.246 142.556 230.753 140.425 229.867L141.187 223.569C143.532 224.474 146.75 225.169 150.135 224.724C153.11 224.336 154.984 222.92 154.71 220.843C154.451 218.863 152.619 217.833 148.594 217.037C142.772 215.895 138.632 213.79 137.965 208.736C137.364 204.154 140.121 200.135 145.549 198.31L144.903 193.361L150.008 192.691L150.61 197.275C154.121 196.972 156.561 197.392 158.388 198.001L157.652 204.081C156.228 203.693 153.668 202.802 149.917 203.296C146.533 203.74 145.631 205.343 145.822 206.801C146.048 208.52 148.022 209.374 152.661 210.459C159.147 211.833 162.023 214.368 162.639 219.056C163.242 223.689 160.481 228.08 154.628 229.908Z" fill="#F4F7FA"/>
<g opacity="0.63">
<path d="M199.017 305.442L119.25 307.858C117.864 307.901 116.511 307.434 115.446 306.546C114.381 305.658 113.679 304.411 113.471 303.04L110.236 281.775C110.115 280.979 110.165 280.165 110.383 279.389C110.601 278.613 110.982 277.892 111.5 277.275C112.018 276.658 112.662 276.158 113.388 275.809C114.115 275.46 114.907 275.27 115.713 275.251L195.566 273.402C196.945 273.37 198.288 273.842 199.345 274.729C200.401 275.615 201.098 276.857 201.306 278.22L204.452 298.921C204.572 299.714 204.523 300.524 204.307 301.296C204.092 302.069 203.715 302.787 203.201 303.403C202.687 304.02 202.049 304.52 201.328 304.871C200.606 305.223 199.819 305.417 199.017 305.442Z" fill="#F4F7FA"/>
<path d="M201.698 322.923L121.979 325.649C120.589 325.697 119.231 325.233 118.161 324.345C117.091 323.457 116.385 322.207 116.176 320.833L116.146 320.633C116.026 319.84 116.075 319.03 116.29 318.257C116.506 317.484 116.883 316.766 117.396 316.149C117.91 315.533 118.548 315.032 119.27 314.681C119.991 314.329 120.778 314.135 121.58 314.11L201.33 311.584C202.717 311.54 204.072 312.006 205.139 312.894C206.205 313.781 206.909 315.029 207.117 316.401C207.238 317.193 207.189 318.002 206.975 318.774C206.76 319.546 206.384 320.263 205.872 320.879C205.36 321.496 204.724 321.996 204.004 322.349C203.284 322.701 202.498 322.897 201.698 322.923Z" fill="#F4F7FA"/>
</g>
<path d="M248.47 230.221C258.337 225.402 277.581 242.855 286.947 259.571C290.678 266.233 295.06 274.054 293.985 283.353C292.079 299.837 273.793 314.296 248.624 319.124C247.915 316.593 247.207 314.062 246.499 311.532C249.251 308.666 253.366 304.528 258.625 299.786C266.704 292.504 268.365 292.024 268.752 289.719C270.021 282.188 250.654 275.883 243.765 262.641C237.847 251.256 240.895 233.923 248.47 230.221Z" fill="url(#paint10_linear_299_10140)"/>
<path d="M261.429 362.71C261.429 362.71 259.809 366.706 260.616 368.274C261.422 369.842 265.308 368.849 270.787 369.686C276.267 370.524 280.05 371.806 280.354 370.67C280.658 369.534 269.301 363.541 268.393 362.713C267.484 361.885 261.429 362.71 261.429 362.71Z" fill="url(#paint11_linear_299_10140)"/>
<path d="M262.881 356.735L266.713 362.71C266.713 362.71 264.947 364.453 261.946 363.804L257.73 358.144L262.881 356.735Z" fill="url(#paint12_linear_299_10140)"/>
<path style="mix-blend-mode:multiply" opacity="0.3" d="M243.768 262.641C237.846 251.256 240.894 233.919 248.473 230.221C250.462 229.25 252.833 229.195 255.425 229.845C254.06 233.786 254.33 236.635 255.004 238.652C258.007 247.651 270.989 246.628 275.045 256.872C277.609 263.348 273.533 266.56 277.171 271.751C280.942 277.131 287.11 276.229 289.014 281.469C290.438 285.373 287.635 287.594 288.71 290.882C289.01 291.8 289.602 292.72 290.595 293.599C283.925 305.596 268.403 315.335 248.627 319.13C247.918 316.599 247.21 314.069 246.501 311.538C249.253 308.672 253.369 304.535 258.628 299.793C266.707 292.51 268.368 292.03 268.755 289.726C270.024 282.188 250.657 275.883 243.768 262.641Z" fill="url(#paint13_linear_299_10140)"/>
<path d="M255.2 233.793C254.773 251.047 255.013 269.703 256.263 289.564C257.733 312.89 260.485 336.118 264.507 359.142L259.638 360.694C242.948 344.43 237.95 330.122 236.583 319.831C235.615 312.556 237.078 311.93 235.774 302.825C233.289 285.488 226.808 279.547 222.256 263.314C220.547 257.221 218.645 248.017 218.763 236.015L255.2 233.793Z" fill="url(#paint14_linear_299_10140)"/>
<path d="M267.157 202.887C266.853 202.957 265.537 203.394 265.017 208.893C263.762 222.148 270.665 227.515 268.965 234.704C267.333 241.604 259.014 244.952 250.45 248.398C244.728 250.701 227.032 257.823 216.735 249.814C212.403 246.451 211.93 242.374 208.843 227.416C200.991 189.411 197.949 186.144 201.251 177.918C206.923 163.79 222.107 157.939 224.634 156.958C251.572 146.578 283.384 165.657 295.955 187.574C297.611 190.46 307.495 207.695 300.55 215.87C296.348 220.815 286.692 221.615 280.32 218.242C271.802 213.742 269.993 202.238 267.157 202.887Z" fill="url(#paint15_linear_299_10140)"/>
<path d="M296.596 212.943C296.698 212.942 296.798 212.916 296.887 212.867C296.976 212.818 297.051 212.748 297.106 212.662C297.161 212.577 297.194 212.479 297.201 212.378C297.209 212.276 297.191 212.175 297.149 212.082C296.919 211.578 291.358 199.644 278.507 194.934C278.432 194.907 278.352 194.894 278.273 194.898C278.193 194.901 278.115 194.92 278.042 194.954C277.97 194.987 277.905 195.035 277.851 195.093C277.797 195.152 277.756 195.221 277.728 195.296C277.701 195.371 277.689 195.45 277.692 195.53C277.695 195.609 277.714 195.687 277.748 195.76C277.781 195.832 277.829 195.897 277.888 195.951C277.946 196.005 278.015 196.047 278.09 196.074C290.45 200.602 295.988 212.468 296.043 212.587C296.091 212.693 296.169 212.783 296.267 212.846C296.366 212.909 296.48 212.942 296.596 212.943Z" fill="url(#paint16_linear_299_10140)"/>
<path style="mix-blend-mode:multiply" opacity="0.3" d="M218.865 173.06C220.565 177.688 215.463 181.699 217.65 186.725C220.785 193.928 233.239 190.23 237.692 197.354C242.97 205.794 230.884 219.641 235.87 224.38C238.142 226.539 240.768 223.773 247.41 225.285C256.869 227.446 259.711 234.922 264.112 233.788C265.495 233.431 267.173 232.175 268.584 228.308C269.199 230.454 269.49 232.491 268.972 234.699C267.341 241.599 259.022 244.947 250.458 248.393C244.736 250.696 227.04 257.818 216.743 249.809C212.411 246.446 211.938 242.369 208.851 227.411C200.999 189.406 197.957 186.139 201.259 177.913C203.06 173.427 205.821 169.779 208.83 166.852C215.311 168.291 217.975 170.635 218.865 173.06Z" fill="url(#paint17_linear_299_10140)"/>
<path d="M235.143 202.097C234.416 202.758 227.047 209.25 218.181 207.033C210.46 205.102 205.721 197.596 204.89 191.279C202.915 176.258 222.486 163.649 220.073 160.616C218.637 158.805 210.931 162.313 205.801 165.475C200.474 168.757 186.084 177.629 183.017 195.038C182.758 196.517 179.373 217.272 191.22 225.843C202.176 233.769 223.633 229.458 238.167 210.706L235.143 202.097Z" fill="url(#paint18_linear_299_10140)"/>
<path d="M282.662 188.376L273.888 216.406C273.747 216.855 273.471 217.248 273.097 217.533C272.724 217.818 272.271 217.98 271.801 217.996L224.577 219.665C224.232 219.677 223.888 219.611 223.572 219.47C223.256 219.329 222.977 219.118 222.755 218.852C222.533 218.587 222.375 218.274 222.292 217.939C222.21 217.603 222.205 217.253 222.278 216.915L228.384 188.771C228.491 188.276 228.761 187.831 229.15 187.507C229.539 187.183 230.025 186.998 230.531 186.983L280.422 185.43C280.784 185.418 281.143 185.493 281.471 185.649C281.798 185.805 282.083 186.036 282.302 186.325C282.522 186.613 282.669 186.95 282.731 187.307C282.794 187.664 282.77 188.03 282.662 188.376Z" fill="#D8DEE8"/>
<path d="M282.242 189.297L273.727 216.502C273.591 216.937 273.323 217.32 272.96 217.596C272.597 217.873 272.158 218.03 271.702 218.045L225.873 219.67C225.537 219.683 225.203 219.619 224.896 219.482C224.589 219.346 224.317 219.141 224.102 218.883C223.887 218.626 223.733 218.322 223.653 217.996C223.573 217.67 223.569 217.329 223.641 217.001L229.568 189.685C229.671 189.205 229.933 188.773 230.311 188.458C230.689 188.144 231.161 187.965 231.652 187.95L280.071 186.443C280.422 186.432 280.771 186.504 281.088 186.655C281.405 186.806 281.681 187.03 281.893 187.31C282.106 187.589 282.249 187.915 282.309 188.261C282.37 188.607 282.347 188.962 282.242 189.297Z" fill="url(#paint19_linear_299_10140)"/>
<path d="M223.642 216.996L229.299 190.922C230.259 193.193 231.498 194.339 232.681 194.924C236.092 196.606 238.747 193.573 246.194 193.861C249.041 193.972 254.863 194.197 258.493 197.961C261.902 201.499 260.453 205.132 262.592 210.107C263.672 212.619 265.676 215.466 269.538 218.128L225.874 219.671C225.538 219.684 225.203 219.619 224.896 219.482C224.588 219.346 224.316 219.14 224.101 218.882C223.885 218.624 223.732 218.319 223.652 217.992C223.573 217.666 223.569 217.325 223.642 216.996Z" fill="url(#paint20_linear_299_10140)"/>
<path d="M252.401 154.265C252.281 154.683 252.247 155.12 252.3 155.551C252.354 155.982 252.494 156.398 252.713 156.774C252.931 157.15 253.223 157.477 253.571 157.737C253.919 157.997 254.316 158.184 254.738 158.287C256.897 158.805 259.526 159.527 260.659 160.176C262.742 161.369 254.319 159.991 246.556 159.81C241.718 159.696 238.101 159.153 236.068 158.761C235.952 158.737 235.848 158.675 235.771 158.586C235.694 158.496 235.648 158.384 235.642 158.266C235.635 158.148 235.667 158.031 235.733 157.934C235.8 157.836 235.896 157.763 236.008 157.726C237.949 157.096 241.094 156.173 243.755 155.833C247.051 155.419 250.584 148.148 250.584 148.148L253.408 150.712L252.401 154.265Z" fill="url(#paint21_linear_299_10140)"/>
<path d="M280.45 197.31L279.914 196.434C279.685 195.554 279.144 194.787 278.392 194.276C277.64 193.766 276.728 193.545 275.826 193.656L273.009 194.003C272.802 194.029 272.602 194.098 272.422 194.205C272.243 194.312 272.087 194.455 271.966 194.625C271.844 194.795 271.759 194.989 271.716 195.193C271.673 195.398 271.673 195.609 271.715 195.814C271.974 197.07 272.651 198.574 274.381 198.457C277.32 198.259 279.199 202.542 279.199 202.542L280.326 200.953C280.7 200.424 280.912 199.797 280.934 199.15C280.956 198.502 280.788 197.863 280.45 197.31Z" fill="url(#paint22_linear_299_10140)"/>
<path d="M258.693 150.539C261.129 150.178 263.856 148.129 263.803 146.438C263.731 144.11 258.416 142.84 255.733 142.197C253.049 141.554 251.898 141.786 251.128 142.372C250.358 142.958 249.824 144.044 249.654 144.97C249.562 145.473 249.557 146.167 249.644 147.55C249.72 148.776 249.697 148.723 249.729 149.086C249.806 149.955 250.044 151.487 250.894 153.614C251.326 153.139 251.798 152.701 252.305 152.307C252.965 151.795 253.688 151.37 254.456 151.041C256.21 150.329 257.214 150.757 258.693 150.539Z" fill="url(#paint23_linear_299_10140)"/>
<path d="M249.592 151.244C249.592 151.244 249.75 154.636 252.947 156.127C255.809 157.459 259.609 151.483 258.563 149.201C258.214 148.44 257.14 147.612 256.029 147.356C255.375 147.203 255.054 147.334 253.991 147.066C253.012 146.819 252.827 146.59 252.438 146.666C251.965 146.762 251.361 147.302 250.91 149.409C250.675 148.586 250.155 148.035 249.591 148.002C249.391 148 249.196 148.055 249.025 148.158C248.256 148.655 248.407 149.912 249.592 151.244Z" fill="url(#paint24_linear_299_10140)"/>
<path d="M326.856 155.659C326.856 165.208 319.39 172.721 309.845 172.428C299.911 172.122 291.559 163.544 291.559 153.279C291.559 143.014 299.911 135.561 309.845 136.596C319.39 137.589 326.856 146.109 326.856 155.659Z" fill="url(#paint25_linear_299_10140)"/>
<path d="M329.432 154.835C329.432 164.385 321.964 171.897 312.419 171.604C302.487 171.299 294.133 162.721 294.133 152.456C294.133 142.191 302.487 134.739 312.419 135.766C321.964 136.765 329.432 145.285 329.432 154.835Z" fill="url(#paint26_linear_299_10140)"/>
<path d="M328.675 154.784C328.675 163.914 321.529 171.086 312.412 170.788C302.94 170.482 294.988 162.294 294.988 152.513C294.988 142.732 302.94 135.617 312.412 136.588C321.531 137.522 328.675 145.655 328.675 154.784Z" fill="url(#paint27_linear_299_10140)"/>
<path d="M328.141 154.748C328.141 163.577 321.227 170.501 312.415 170.205C303.273 169.898 295.605 161.992 295.605 152.555C295.605 143.118 303.273 136.245 312.415 137.172C321.227 138.063 328.141 145.924 328.141 154.748Z" fill="url(#paint28_linear_299_10140)"/>
<path d="M312.326 140.174C312.558 140.202 312.772 140.312 312.928 140.486C313.084 140.66 313.172 140.884 313.175 141.117V142.742C314.123 142.849 315.063 143.012 315.991 143.232C316.681 143.395 317.371 143.589 318.061 143.814C318.263 143.881 318.436 144.013 318.553 144.19C318.67 144.367 318.725 144.578 318.708 144.789L318.508 146.827C318.499 146.951 318.46 147.071 318.394 147.176C318.328 147.282 318.237 147.37 318.13 147.432C318.022 147.495 317.901 147.53 317.777 147.535C317.653 147.54 317.529 147.515 317.417 147.461C316.966 147.26 316.504 147.087 316.031 146.943C315.179 146.689 314.303 146.525 313.417 146.454L313.177 146.435V151.093C315.623 151.777 317.425 152.698 318.581 153.856C319.738 155.015 320.315 156.452 320.313 158.17C320.313 160.034 319.674 161.528 318.398 162.654C317.113 163.786 315.312 164.423 312.982 164.56V166.354C312.984 166.465 312.963 166.576 312.921 166.678C312.878 166.781 312.816 166.874 312.736 166.952C312.657 167.029 312.562 167.09 312.459 167.13C312.355 167.17 312.244 167.188 312.133 167.184H312.118C311.887 167.17 311.67 167.068 311.512 166.9C311.354 166.732 311.266 166.509 311.266 166.278V164.508L310.889 164.491C309.837 164.447 308.789 164.335 307.751 164.156C307.02 164.03 306.296 163.863 305.583 163.658C305.375 163.6 305.194 163.472 305.07 163.296C304.946 163.12 304.887 162.906 304.902 162.692L305.138 160.072C305.149 159.941 305.192 159.815 305.263 159.704C305.333 159.593 305.428 159.5 305.542 159.433C305.655 159.367 305.782 159.328 305.913 159.32C306.044 159.312 306.175 159.336 306.296 159.388C306.918 159.635 307.555 159.844 308.203 160.015C309.201 160.278 310.221 160.448 311.251 160.523L311.266 155.348C308.919 154.767 307.165 153.906 306.004 152.767C304.844 151.627 304.263 150.161 304.262 148.368C304.262 146.525 304.892 145.101 306.152 144.098C307.403 143.105 309.182 142.61 311.477 142.612V140.949C311.476 140.841 311.497 140.733 311.54 140.633C311.583 140.533 311.647 140.444 311.727 140.371C311.807 140.297 311.902 140.242 312.005 140.208C312.109 140.174 312.218 140.163 312.326 140.174ZM311.475 146.385C310.748 146.438 310.183 146.637 309.778 146.982C309.578 147.154 309.418 147.369 309.313 147.611C309.207 147.853 309.158 148.116 309.169 148.38C309.162 148.637 309.209 148.894 309.306 149.133C309.403 149.372 309.549 149.588 309.733 149.768C310.107 150.139 310.687 150.435 311.475 150.657V146.385ZM312.979 155.761V160.509C313.769 160.509 314.372 160.321 314.791 159.945C315.212 159.567 315.423 159.039 315.423 158.346C315.442 157.768 315.231 157.206 314.836 156.783C314.446 156.371 313.827 156.032 312.979 155.765V155.761Z" fill="url(#paint29_linear_299_10140)"/>
<path style="mix-blend-mode:multiply" opacity="0.3" d="M309.568 156.909C310.1 151.662 314.923 149.44 314.293 144.618C313.905 141.643 311.651 139.136 309.135 137.179C301.501 137.979 295.605 144.295 295.605 152.56C295.605 161.997 303.273 169.897 312.415 170.21C313.283 170.238 314.152 170.195 315.012 170.08C311.381 166.465 309.113 161.418 309.568 156.909Z" fill="url(#paint30_linear_299_10140)"/>
<path d="M328.118 50.3793C328.118 46.9649 325.329 44.0771 321.89 43.9284L232.671 40.047C228.805 39.8788 225.582 42.6954 225.582 46.3387V117.552C225.582 121.195 228.793 124.123 232.66 124.091L234.75 124.069L234.848 123.912L321.825 122.193C325.264 122.166 328.118 120.538 328.118 117.124V50.3793ZM250.08 56.1716C246.758 56.0577 244.054 53.4016 244.054 50.2382C244.054 47.0749 246.758 44.6218 250.08 44.759C253.403 44.8961 256.061 47.5497 256.061 50.6898C256.061 53.8298 253.388 56.2842 250.08 56.1716ZM278.518 57.1381C275.312 57.0281 272.704 54.4211 272.704 51.316C272.704 48.2108 275.312 45.7979 278.518 45.9286C281.724 46.0592 284.29 48.6663 284.29 51.7507C284.29 54.8351 281.711 57.2454 278.518 57.1381ZM305.967 58.0748C302.872 57.9687 300.353 55.4082 300.353 52.3549C300.353 49.3015 302.872 46.9313 305.967 47.0581C309.062 47.1849 311.542 49.744 311.542 52.7754C311.542 55.8067 309.052 58.1744 305.967 58.0748Z" fill="url(#paint31_linear_299_10140)"/>
<path d="M329.979 62.7389V50.3793C329.973 48.7316 329.331 47.1498 328.188 45.9634C327.045 44.7769 325.488 44.0772 323.842 44.0099L234.935 40.1414C233.312 40.0703 231.794 40.4985 230.603 41.3304C228.974 42.4638 227.91 44.257 227.91 46.3555V62.7389H329.979ZM307.937 47.1344C311.012 47.2638 313.5 49.8165 313.5 52.8465C313.5 55.8766 311.015 58.2417 307.937 58.1369C304.859 58.0321 302.336 55.4755 302.336 52.4274C302.336 49.3792 304.85 47.0076 307.937 47.1344ZM280.558 46.0101C283.742 46.1395 286.316 48.7426 286.316 51.8322C286.316 54.9218 283.742 57.3218 280.558 57.2131C277.373 57.1044 274.756 54.4961 274.756 51.3988C274.756 48.3014 277.361 45.8794 280.558 46.0101ZM252.194 44.8457C255.493 44.9751 258.161 47.6312 258.161 50.77C258.161 53.9088 255.493 56.3553 252.194 56.2428C248.894 56.1302 246.181 53.4792 246.181 50.3198C246.181 47.1603 248.88 44.7098 252.194 44.8457Z" fill="url(#paint32_linear_299_10140)"/>
<path d="M227.91 59.0166V117.533C227.91 121.169 230.938 124.1 234.793 124.069L323.791 123.347C325.435 123.335 327.007 122.675 328.166 121.509C329.325 120.344 329.977 118.767 329.979 117.124V62.2524L227.91 59.0166Z" fill="white"/>
<path d="M294.098 70.7137C294.104 70.5215 294.071 70.33 294.003 70.1502C293.934 69.9705 293.831 69.8061 293.699 69.6663C293.566 69.5265 293.408 69.4142 293.232 69.3358C293.057 69.2573 292.867 69.2142 292.675 69.209L283.869 68.98C283.028 68.958 281.98 69.5972 281.98 70.4149V78.6616C281.98 79.4779 283.069 80.1611 283.91 80.1766L292.472 80.3409C293.302 80.3577 294.098 79.7121 294.098 78.9009V70.7137Z" fill="#BFC8D6"/>
<path d="M309.479 71.1073C309.469 70.7135 309.308 70.3389 309.029 70.0611C308.749 69.7833 308.374 69.6237 307.98 69.6155L299.745 69.4008C299.554 69.3941 299.364 69.4263 299.187 69.4954C299.009 69.5646 298.847 69.6693 298.711 69.8031C298.575 69.937 298.468 70.0971 298.396 70.2737C298.325 70.4503 298.289 70.6398 298.293 70.8304V78.9969C298.287 79.3855 298.435 79.7606 298.706 80.0398C298.976 80.3191 299.346 80.4796 299.735 80.4861L308.006 80.6439C308.197 80.6496 308.387 80.6171 308.565 80.5482C308.743 80.4793 308.905 80.3755 309.042 80.2428C309.179 80.1102 309.289 79.9514 309.364 79.7759C309.438 79.6003 309.477 79.4116 309.478 79.2207L309.479 71.1073Z" fill="#BFC8D6"/>
<path d="M324.862 71.5032C324.862 70.7075 324.153 70.0464 323.353 70.0244L315.191 69.8045C314.382 69.7838 313.676 70.4112 313.676 71.2121V79.2932C313.684 79.6842 313.843 80.0569 314.119 80.3333C314.396 80.6097 314.769 80.7683 315.16 80.7759L323.343 80.9363C324.143 80.9518 324.862 80.3231 324.862 79.5274V71.5032Z" fill="#BFC8D6"/>
<path d="M294.098 85.6895C294.104 85.4978 294.072 85.3068 294.003 85.1276C293.935 84.9485 293.831 84.7848 293.699 84.6461C293.566 84.5073 293.408 84.3963 293.232 84.3196C293.056 84.2429 292.867 84.2019 292.675 84.1991L283.869 84.0503C283.028 84.036 281.98 84.6816 281.98 85.4993V93.746C281.98 94.5624 283.069 95.2391 283.91 95.2468L292.472 95.3309C293.302 95.3387 294.098 94.684 294.098 93.878V85.6895Z" fill="#BFC8D6"/>
<path d="M309.478 85.9381C309.469 85.5455 309.307 85.1718 309.028 84.8959C308.748 84.6201 308.373 84.4635 307.98 84.4593L299.745 84.3299C299.554 84.326 299.364 84.3607 299.187 84.4317C299.01 84.5027 298.849 84.6087 298.713 84.7433C298.578 84.8779 298.471 85.0384 298.399 85.2152C298.326 85.392 298.291 85.5815 298.293 85.7725V93.9389C298.29 94.1308 298.324 94.3216 298.395 94.5C298.466 94.6784 298.571 94.8411 298.705 94.9784C298.839 95.1158 298.999 95.2251 299.176 95.3001C299.353 95.375 299.543 95.4142 299.735 95.4152L308.006 95.4954C308.197 95.4988 308.388 95.4641 308.566 95.3933C308.744 95.3224 308.907 95.2169 309.044 95.0828C309.181 94.9487 309.29 94.7887 309.364 94.6121C309.439 94.4355 309.477 94.2458 309.478 94.0541V85.9381Z" fill="url(#paint33_linear_299_10140)"/>
<path d="M324.862 86.1878C324.862 85.3921 324.153 84.7361 323.353 84.7219L315.191 84.5796C314.382 84.5653 313.676 85.1993 313.676 86.0028V94.0864C313.683 94.4765 313.842 94.8484 314.119 95.1229C314.396 95.3974 314.77 95.5529 315.16 95.5562L323.343 95.6403C324.143 95.648 324.862 95.0128 324.862 94.2171V86.1878Z" fill="#BFC8D6"/>
<path d="M246.092 84.9302C246.092 84.0944 245.316 83.3996 244.432 83.3776L235.526 83.2263C235.324 83.2168 235.123 83.2484 234.934 83.3193C234.746 83.3902 234.573 83.4988 234.428 83.6386C234.283 83.7783 234.167 83.9462 234.089 84.1321C234.011 84.3179 233.971 84.5177 233.973 84.7193V93.2222C233.969 93.4243 234.005 93.6252 234.08 93.8131C234.154 94.001 234.266 94.1719 234.408 94.3159C234.55 94.4598 234.719 94.5738 234.906 94.651C235.093 94.7283 235.294 94.7673 235.496 94.7657L244.479 94.8614C245.362 94.8692 246.091 94.2055 246.091 93.3697L246.092 84.9302Z" fill="#BFC8D6"/>
<path d="M262.408 85.1798C262.411 84.9813 262.374 84.7843 262.3 84.6002C262.226 84.416 262.116 84.2483 261.977 84.1069C261.838 83.9654 261.672 83.8529 261.489 83.7759C261.306 83.6989 261.11 83.6589 260.911 83.6582L252.001 83.5069C251.125 83.4913 250.289 84.1538 250.289 84.987V93.3967C250.289 94.2299 251.16 94.9169 252.036 94.9246L260.834 95.0113C261.699 95.0204 262.411 94.3554 262.411 93.5274L262.408 85.1798Z" fill="#BFC8D6"/>
<path d="M278.251 85.453C278.253 85.0545 278.097 84.6713 277.817 84.3872C277.538 84.1031 277.157 83.9411 276.759 83.9367L267.917 83.7827C267.059 83.7685 266.133 84.418 266.133 85.2434V93.5755C266.133 94.4009 267.081 95.0815 267.944 95.0892L276.638 95.1837C277.487 95.1914 278.256 94.5368 278.256 93.723L278.251 85.453Z" fill="#BFC8D6"/>
<path d="M294.098 100.666C294.098 99.8552 293.506 99.1941 292.675 99.1889L283.869 99.1204C283.028 99.1204 281.98 99.7673 281.98 100.584V108.83C281.98 109.647 283.069 110.316 283.91 110.317H292.472C293.302 110.317 294.098 109.661 294.098 108.85V100.666Z" fill="#BFC8D6"/>
<path d="M309.478 100.77C309.47 100.378 309.308 100.006 309.028 99.7315C308.748 99.4575 308.372 99.3041 307.98 99.3042L299.745 99.246C299.553 99.2434 299.363 99.2793 299.185 99.3516C299.007 99.424 298.846 99.5313 298.711 99.6671C298.575 99.803 298.469 99.9647 298.397 100.143C298.325 100.321 298.29 100.511 298.293 100.703V108.868C298.289 109.059 298.324 109.25 298.395 109.427C298.466 109.605 298.571 109.767 298.706 109.903C298.84 110.04 299 110.148 299.177 110.221C299.354 110.295 299.543 110.332 299.735 110.331H308.006C308.198 110.333 308.389 110.296 308.567 110.224C308.745 110.151 308.907 110.045 309.044 109.909C309.18 109.774 309.289 109.614 309.364 109.437C309.438 109.259 309.477 109.069 309.478 108.877V100.77Z" fill="#BFC8D6"/>
<path d="M246.093 100.365C246.093 99.5293 245.317 98.8423 244.433 98.8358L235.53 98.7633C235.327 98.7564 235.126 98.7903 234.937 98.8631C234.749 98.9359 234.577 99.046 234.432 99.1869C234.287 99.3278 234.172 99.4965 234.094 99.683C234.015 99.8694 233.976 100.07 233.977 100.272V108.775C233.972 108.976 234.008 109.177 234.083 109.364C234.158 109.551 234.27 109.722 234.412 109.864C234.554 110.007 234.724 110.12 234.911 110.195C235.098 110.271 235.298 110.308 235.5 110.304L244.483 110.312C245.366 110.312 246.095 109.64 246.095 108.805L246.093 100.365Z" fill="#BFC8D6"/>
<path d="M262.408 100.459C262.411 100.261 262.374 100.065 262.3 99.8814C262.226 99.6979 262.116 99.5311 261.977 99.3906C261.837 99.2502 261.671 99.1391 261.488 99.0638C261.305 98.9884 261.109 98.9505 260.911 98.952L252.001 98.8848C251.125 98.8848 250.289 99.5459 250.289 100.38V108.79C250.289 109.625 251.16 110.304 252.036 110.304H260.834C261.699 110.304 262.411 109.634 262.411 108.806L262.408 100.459Z" fill="#BFC8D6"/>
<path d="M278.251 100.58C278.252 100.383 278.214 100.188 278.14 100.006C278.066 99.8241 277.956 99.6586 277.817 99.519C277.679 99.3795 277.514 99.2688 277.332 99.1934C277.15 99.1179 276.955 99.0791 276.759 99.0793L267.917 99.0068C267.059 99.0068 266.133 99.6537 266.133 100.483V108.815C266.133 109.641 267.081 110.313 267.944 110.313L276.638 110.325C277.487 110.325 278.256 109.67 278.256 108.851L278.251 100.58Z" fill="#BFC8D6"/>
<path d="M251.64 29.5374C246.067 29.2553 241.454 33.7927 241.008 40.4053L245.716 40.6097C246.104 36.6584 248.661 33.7331 251.64 33.8819C254.861 34.0359 257.571 37.7789 257.571 42.0756C257.571 46.3723 254.854 49.8914 251.64 49.7698C249.958 49.7064 248.419 48.6571 247.32 47.0632C246.682 47.9404 245.584 49.9587 246.624 52.4635C248.113 53.4618 249.849 54.0287 251.64 54.1014C257.462 54.3072 262.171 49.0103 262.171 42.2735C262.171 35.5367 257.464 29.8323 251.64 29.5374Z" fill="#BFC8D6"/>
<path d="M279.977 30.9567C274.596 30.6837 270.144 35.146 269.715 41.6448L274.259 41.8427C274.629 37.9613 277.105 35.0826 279.977 35.2211C283.082 35.3698 285.704 39.0455 285.704 43.2672C285.704 47.4889 283.086 50.9498 279.977 50.8308C278.359 50.77 276.872 49.7401 275.806 48.1746C275.192 49.0363 274.132 51.0209 275.135 53.4792C276.567 54.4569 278.245 55.0136 279.977 55.0861C285.6 55.284 290.145 50.0765 290.145 43.4561C290.145 36.8357 285.598 31.24 279.977 30.9567Z" fill="#BFC8D6"/>
<path d="M307.42 32.3593C302.228 32.1005 297.931 36.4839 297.516 42.8675L301.9 43.059C302.259 39.2436 304.643 36.4166 307.42 36.5486C310.421 36.6922 312.948 40.3006 312.948 44.4498C312.948 48.5991 310.421 51.994 307.42 51.8853C305.858 51.8258 304.419 50.8153 303.395 49.2783C302.801 50.1257 301.779 52.0755 302.748 54.4923C304.124 55.4504 305.745 55.997 307.421 56.0682C312.855 56.2596 317.236 51.1388 317.236 44.6348C317.236 38.1309 312.847 32.6335 307.42 32.3593Z" fill="#BFC8D6"/>
<g style="mix-blend-mode:multiply" opacity="0.3">
<path d="M329.979 114.88V117.125C329.988 118.763 329.347 120.338 328.196 121.505C327.046 122.672 325.48 123.335 323.842 123.349L234.846 124.069C230.992 124.1 227.91 121.169 227.91 117.534V46.3553C227.909 45.3584 228.151 44.3762 228.615 43.4941C229.08 42.6121 229.753 41.8568 230.575 41.2939C234.115 42.567 238.673 46.1185 241.007 55.7483C245.124 72.7165 248.667 79.9644 264.539 79.6034C274.685 79.3731 282.465 79.8401 287.31 84.3115C289.913 86.7076 291.684 90.263 292.524 95.5068C293.016 98.5718 295.218 100.527 298.359 101.96C301.436 103.368 305.433 104.275 309.594 105.252C317.235 107.041 325.785 109.072 329.979 114.88Z" fill="#BFC8D6"/>
</g>
<path d="M302.235 93.3076C302.151 93.3148 302.066 93.2934 301.995 93.2468L300.011 91.9426C299.967 91.9114 299.93 91.8717 299.901 91.8258C299.873 91.7799 299.854 91.7287 299.845 91.6754C299.836 91.622 299.839 91.5674 299.851 91.5149C299.864 91.4624 299.887 91.4129 299.919 91.3695C299.98 91.2775 300.073 91.2126 300.181 91.1885C300.288 91.1643 300.4 91.1828 300.494 91.2401L302.176 92.3502L306.982 86.6652C307.015 86.6231 307.056 86.588 307.103 86.5618C307.15 86.5357 307.201 86.5191 307.255 86.5129C307.308 86.5068 307.362 86.5113 307.413 86.5261C307.464 86.5409 307.512 86.5658 307.554 86.5992C307.634 86.6736 307.68 86.7761 307.685 86.8847C307.69 86.9933 307.652 87.0994 307.579 87.1801L302.533 93.1562C302.457 93.2432 302.35 93.2974 302.235 93.3076Z" fill="white"/>
<path d="M359.037 118.883C359.037 129.975 350.369 138.7 339.278 138.36C327.741 138.006 318.039 128.042 318.039 116.118C318.039 104.195 327.743 95.5405 339.278 96.7411C350.363 97.9004 359.037 107.794 359.037 118.883Z" fill="url(#paint34_linear_299_10140)"/>
<path d="M362.033 117.93C362.033 129.022 353.365 137.747 342.274 137.407C330.739 137.054 321.035 127.09 321.035 115.166C321.035 103.243 330.739 94.595 342.274 95.7891C353.359 96.9432 362.033 106.838 362.033 117.93Z" fill="url(#paint35_linear_299_10140)"/>
<path d="M361.153 117.871C361.153 128.481 352.853 136.802 342.264 136.46C331.266 136.102 322.027 126.594 322.027 115.233C322.027 103.873 331.264 95.6104 342.264 96.7321C352.853 97.8228 361.153 107.267 361.153 117.871Z" fill="url(#paint36_linear_299_10140)"/>
<path d="M360.535 117.83C360.535 128.084 352.505 136.126 342.27 135.782C331.651 135.426 322.746 126.243 322.746 115.282C322.746 104.32 331.651 96.339 342.27 97.4142C352.505 98.4505 360.535 107.576 360.535 117.83Z" fill="url(#paint37_linear_299_10140)"/>
<path d="M342.165 100.899C342.435 100.931 342.683 101.06 342.865 101.261C343.046 101.463 343.148 101.724 343.151 101.995V103.883C344.252 104.006 345.345 104.196 346.423 104.451C347.228 104.64 348.028 104.865 348.823 105.126C349.057 105.204 349.258 105.358 349.394 105.563C349.53 105.769 349.594 106.014 349.575 106.26L349.343 108.626C349.333 108.77 349.287 108.909 349.211 109.032C349.135 109.154 349.029 109.256 348.905 109.329C348.78 109.402 348.639 109.443 348.495 109.449C348.351 109.455 348.207 109.425 348.077 109.363C347.553 109.13 347.015 108.929 346.466 108.763C345.477 108.467 344.459 108.277 343.429 108.195L343.151 108.173V113.579C345.992 114.373 348.084 115.442 349.427 116.787C350.77 118.132 351.441 119.802 351.438 121.797C351.438 123.963 350.697 125.699 349.215 127.006C347.722 128.32 345.63 129.06 342.925 129.221V131.304C342.927 131.433 342.903 131.561 342.854 131.68C342.805 131.799 342.732 131.907 342.639 131.998C342.547 132.088 342.437 132.158 342.317 132.204C342.196 132.25 342.068 132.272 341.939 132.266H341.921C341.653 132.251 341.402 132.135 341.218 131.94C341.034 131.746 340.931 131.489 340.931 131.221V129.166L340.492 129.146C339.271 129.094 338.053 128.964 336.848 128.757C335.999 128.61 335.158 128.416 334.33 128.178C334.089 128.111 333.879 127.962 333.735 127.758C333.591 127.553 333.522 127.306 333.54 127.056L333.812 124.013C333.827 123.861 333.876 123.715 333.958 123.586C334.04 123.457 334.151 123.35 334.282 123.272C334.414 123.194 334.561 123.149 334.714 123.14C334.866 123.131 335.018 123.158 335.158 123.219C336.999 123.947 338.94 124.392 340.914 124.538L340.931 118.523C338.204 117.849 336.167 116.85 334.82 115.526C333.474 114.202 332.799 112.501 332.797 110.423C332.797 108.28 333.53 106.628 334.996 105.466C336.463 104.305 338.525 103.729 341.182 103.739V101.81C341.179 101.683 341.202 101.557 341.251 101.44C341.301 101.323 341.374 101.218 341.467 101.132C341.56 101.046 341.671 100.98 341.791 100.94C341.912 100.9 342.039 100.886 342.165 100.899ZM341.177 108.116C340.335 108.178 339.676 108.41 339.206 108.811C338.973 109.01 338.789 109.26 338.666 109.541C338.543 109.823 338.486 110.128 338.499 110.435C338.491 110.734 338.545 111.032 338.658 111.309C338.771 111.586 338.939 111.837 339.153 112.047C339.585 112.478 340.259 112.823 341.177 113.082V108.116ZM342.925 119.007V124.522C343.841 124.522 344.544 124.303 345.034 123.867C345.524 123.43 345.769 122.812 345.769 122.01C345.789 121.34 345.544 120.689 345.087 120.199C344.63 119.716 343.91 119.32 342.925 119.013V119.007Z" fill="url(#paint38_linear_299_10140)"/>
<path style="mix-blend-mode:multiply" opacity="0.3" d="M338.965 120.34C339.582 114.245 345.183 111.672 344.452 106.059C344.002 102.604 341.383 99.6912 338.461 97.418C329.599 98.3469 322.746 105.685 322.746 115.281C322.746 126.243 331.651 135.426 342.27 135.782C343.278 135.816 344.287 135.767 345.287 135.634C341.07 131.433 338.435 125.578 338.965 120.34Z" fill="url(#paint39_linear_299_10140)"/>
<defs>
<linearGradient id="paint0_linear_299_10140" x1="247.741" y1="281.096" x2="692.176" y2="147.652" gradientUnits="userSpaceOnUse">
<stop stop-color="#AA80F9"/>
<stop offset="1" stop-color="#6165D7"/>
</linearGradient>
<linearGradient id="paint1_linear_299_10140" x1="142.097" y1="192.065" x2="-116.74" y2="573.738" gradientUnits="userSpaceOnUse">
<stop stop-color="#FFC444"/>
<stop offset="1" stop-color="#F36F56"/>
</linearGradient>
<linearGradient id="paint2_linear_299_10140" x1="78.9098" y1="226.993" x2="339.541" y2="185.755" gradientUnits="userSpaceOnUse">
<stop stop-color="#444B8C"/>
<stop offset="1" stop-color="#26264F"/>
</linearGradient>
<linearGradient id="paint3_linear_299_10140" x1="176.151" y1="166.997" x2="-80.5188" y2="699.379" gradientUnits="userSpaceOnUse">
<stop stop-color="#E38DDD"/>
<stop offset="1" stop-color="#9571F6"/>
</linearGradient>
<linearGradient id="paint4_linear_299_10140" x1="196.862" y1="126.399" x2="-59.8085" y2="658.78" gradientUnits="userSpaceOnUse">
<stop stop-color="#E38DDD"/>
<stop offset="1" stop-color="#9571F6"/>
</linearGradient>
<linearGradient id="paint5_linear_299_10140" x1="139.316" y1="159.502" x2="158.212" y2="159.502" gradientUnits="userSpaceOnUse">
<stop stop-color="#FF9085"/>
<stop offset="1" stop-color="#FB6FBB"/>
</linearGradient>
<linearGradient id="paint6_linear_299_10140" x1="176.924" y1="159.502" x2="195.82" y2="159.502" gradientUnits="userSpaceOnUse">
<stop stop-color="#FF9085"/>
<stop offset="1" stop-color="#FB6FBB"/>
</linearGradient>
<linearGradient id="paint7_linear_299_10140" x1="214.539" y1="159.502" x2="233.435" y2="159.502" gradientUnits="userSpaceOnUse">
<stop stop-color="#FF9085"/>
<stop offset="1" stop-color="#FB6FBB"/>
</linearGradient>
<linearGradient id="paint8_linear_299_10140" x1="61.8516" y1="127.38" x2="271.802" y2="127.38" gradientUnits="userSpaceOnUse">
<stop stop-color="#FF9085"/>
<stop offset="1" stop-color="#FB6FBB"/>
</linearGradient>
<linearGradient id="paint9_linear_299_10140" x1="252.238" y1="165.83" x2="270.94" y2="165.83" gradientUnits="userSpaceOnUse">
<stop stop-color="#FF9085"/>
<stop offset="1" stop-color="#FB6FBB"/>
</linearGradient>
<linearGradient id="paint10_linear_299_10140" x1="294.153" y1="274.265" x2="240.653" y2="274.265" gradientUnits="userSpaceOnUse">
<stop stop-color="#444B8C"/>
<stop offset="1" stop-color="#3E4177"/>
</linearGradient>
<linearGradient id="paint11_linear_299_10140" x1="280.359" y1="366.729" x2="260.39" y2="366.729" gradientUnits="userSpaceOnUse">
<stop stop-color="#311944"/>
<stop offset="1" stop-color="#6B3976"/>
</linearGradient>
<linearGradient id="paint12_linear_299_10140" x1="257.639" y1="331.735" x2="264.624" y2="375.465" gradientUnits="userSpaceOnUse">
<stop stop-color="#311944"/>
<stop offset="1" stop-color="#A03976"/>
</linearGradient>
<linearGradient id="paint13_linear_299_10140" x1="294.152" y1="274.269" x2="240.652" y2="274.269" gradientUnits="userSpaceOnUse">
<stop stop-color="#444B8C"/>
<stop offset="1" stop-color="#3E4177"/>
</linearGradient>
<linearGradient id="paint14_linear_299_10140" x1="264.5" y1="297.244" x2="218.754" y2="297.244" gradientUnits="userSpaceOnUse">
<stop stop-color="#444B8C"/>
<stop offset="1" stop-color="#3E4177"/>
</linearGradient>
<linearGradient id="paint15_linear_299_10140" x1="235.005" y1="143.38" x2="268.205" y2="261.609" gradientUnits="userSpaceOnUse">
<stop stop-color="#FFC444"/>
<stop offset="1" stop-color="#F36F56"/>
</linearGradient>
<linearGradient id="paint16_linear_299_10140" x1="288.263" y1="201.267" x2="282.494" y2="219.994" gradientUnits="userSpaceOnUse">
<stop stop-color="#FFC444"/>
<stop offset="1" stop-color="#F36F56"/>
</linearGradient>
<linearGradient id="paint17_linear_299_10140" x1="216.034" y1="148.709" x2="249.235" y2="266.937" gradientUnits="userSpaceOnUse">
<stop stop-color="#FFC444"/>
<stop offset="1" stop-color="#F36F56"/>
</linearGradient>
<linearGradient id="paint18_linear_299_10140" x1="194.724" y1="154.692" x2="227.925" y2="272.92" gradientUnits="userSpaceOnUse">
<stop stop-color="#FFC444"/>
<stop offset="1" stop-color="#F36F56"/>
</linearGradient>
<linearGradient id="paint19_linear_299_10140" x1="258.685" y1="190.35" x2="238.643" y2="226.486" gradientUnits="userSpaceOnUse">
<stop offset="0.49" stop-color="#EBEFF2"/>
<stop offset="1" stop-color="white"/>
</linearGradient>
<linearGradient id="paint20_linear_299_10140" x1="226.829" y1="228.783" x2="250.109" y2="203.78" gradientUnits="userSpaceOnUse">
<stop offset="0.49" stop-color="#EBEFF2"/>
<stop offset="1" stop-color="white"/>
</linearGradient>
<linearGradient id="paint21_linear_299_10140" x1="245.172" y1="132.621" x2="249.019" y2="165.417" gradientUnits="userSpaceOnUse">
<stop stop-color="#311944"/>
<stop offset="1" stop-color="#A03976"/>
</linearGradient>
<linearGradient id="paint22_linear_299_10140" x1="280.936" y1="198.087" x2="271.68" y2="198.087" gradientUnits="userSpaceOnUse">
<stop stop-color="#311944"/>
<stop offset="1" stop-color="#A03976"/>
</linearGradient>
<linearGradient id="paint23_linear_299_10140" x1="239.344" y1="158.62" x2="258.252" y2="142.812" gradientUnits="userSpaceOnUse">
<stop stop-color="#311944"/>
<stop offset="1" stop-color="#6B3976"/>
</linearGradient>
<linearGradient id="paint24_linear_299_10140" x1="248.645" y1="137.053" x2="252.288" y2="146.164" gradientUnits="userSpaceOnUse">
<stop stop-color="#311944"/>
<stop offset="1" stop-color="#A03976"/>
</linearGradient>
<linearGradient id="paint25_linear_299_10140" x1="303.158" y1="156.405" x2="282.572" y2="163.013" gradientUnits="userSpaceOnUse">
<stop stop-color="#FCB148"/>
<stop offset="0.05" stop-color="#FDBA46"/>
<stop offset="0.14" stop-color="#FFC244"/>
<stop offset="0.32" stop-color="#FFC444"/>
<stop offset="0.48" stop-color="#FDB946"/>
<stop offset="0.78" stop-color="#F99C4D"/>
<stop offset="0.87" stop-color="#F8924F"/>
<stop offset="1" stop-color="#F8924F"/>
</linearGradient>
<linearGradient id="paint26_linear_299_10140" x1="319.806" y1="135.914" x2="301.429" y2="176.459" gradientUnits="userSpaceOnUse">
<stop stop-color="#FFDB44"/>
<stop offset="1" stop-color="#FEEF06"/>
</linearGradient>
<linearGradient id="paint27_linear_299_10140" x1="316.42" y1="178.724" x2="312.874" y2="159.354" gradientUnits="userSpaceOnUse">
<stop stop-color="#FCB148"/>
<stop offset="0.05" stop-color="#FDBA46"/>
<stop offset="0.14" stop-color="#FFC244"/>
<stop offset="0.32" stop-color="#FFC444"/>
<stop offset="0.48" stop-color="#FDB946"/>
<stop offset="0.78" stop-color="#F99C4D"/>
<stop offset="0.87" stop-color="#F8924F"/>
<stop offset="1" stop-color="#F8924F"/>
</linearGradient>
<linearGradient id="paint28_linear_299_10140" x1="308.903" y1="147.369" x2="323.517" y2="178.392" gradientUnits="userSpaceOnUse">
<stop stop-color="#FCB148"/>
<stop offset="0.05" stop-color="#FDBA46"/>
<stop offset="0.14" stop-color="#FFC244"/>
<stop offset="0.32" stop-color="#FFC444"/>
<stop offset="0.48" stop-color="#FDB946"/>
<stop offset="0.78" stop-color="#F99C4D"/>
<stop offset="0.87" stop-color="#F8924F"/>
<stop offset="1" stop-color="#F8924F"/>
</linearGradient>
<linearGradient id="paint29_linear_299_10140" x1="308.323" y1="140.694" x2="315.67" y2="168.234" gradientUnits="userSpaceOnUse">
<stop stop-color="#FFDB44"/>
<stop offset="1" stop-color="#FEEF06"/>
</linearGradient>
<linearGradient id="paint30_linear_299_10140" x1="304.604" y1="149.377" x2="319.188" y2="180.336" gradientUnits="userSpaceOnUse">
<stop stop-color="#FCB148"/>
<stop offset="0.05" stop-color="#FDBA46"/>
<stop offset="0.14" stop-color="#FFC244"/>
<stop offset="0.32" stop-color="#FFC444"/>
<stop offset="0.48" stop-color="#FDB946"/>
<stop offset="0.78" stop-color="#F99C4D"/>
<stop offset="0.87" stop-color="#F8924F"/>
<stop offset="1" stop-color="#F8924F"/>
</linearGradient>
<linearGradient id="paint31_linear_299_10140" x1="225.582" y1="82.0657" x2="328.118" y2="82.0657" gradientUnits="userSpaceOnUse">
<stop stop-color="#311944"/>
<stop offset="1" stop-color="#893976"/>
</linearGradient>
<linearGradient id="paint32_linear_299_10140" x1="227.91" y1="51.4363" x2="329.979" y2="51.4363" gradientUnits="userSpaceOnUse">
<stop stop-color="#FF9085"/>
<stop offset="1" stop-color="#FB6FBB"/>
</linearGradient>
<linearGradient id="paint33_linear_299_10140" x1="298.293" y1="89.9062" x2="309.478" y2="89.9062" gradientUnits="userSpaceOnUse">
<stop stop-color="#FF9085"/>
<stop offset="1" stop-color="#FB6FBB"/>
</linearGradient>
<linearGradient id="paint34_linear_299_10140" x1="331.511" y1="119.754" x2="307.602" y2="127.427" gradientUnits="userSpaceOnUse">
<stop stop-color="#FCB148"/>
<stop offset="0.05" stop-color="#FDBA46"/>
<stop offset="0.14" stop-color="#FFC244"/>
<stop offset="0.32" stop-color="#FFC444"/>
<stop offset="0.48" stop-color="#FDB946"/>
<stop offset="0.78" stop-color="#F99C4D"/>
<stop offset="0.87" stop-color="#F8924F"/>
<stop offset="1" stop-color="#F8924F"/>
</linearGradient>
<linearGradient id="paint35_linear_299_10140" x1="350.855" y1="95.9547" x2="329.51" y2="143.045" gradientUnits="userSpaceOnUse">
<stop stop-color="#FFDB44"/>
<stop offset="1" stop-color="#FEEF06"/>
</linearGradient>
<linearGradient id="paint36_linear_299_10140" x1="346.917" y1="145.678" x2="342.799" y2="123.177" gradientUnits="userSpaceOnUse">
<stop stop-color="#FCB148"/>
<stop offset="0.05" stop-color="#FDBA46"/>
<stop offset="0.14" stop-color="#FFC244"/>
<stop offset="0.32" stop-color="#FFC444"/>
<stop offset="0.48" stop-color="#FDB946"/>
<stop offset="0.78" stop-color="#F99C4D"/>
<stop offset="0.87" stop-color="#F8924F"/>
<stop offset="1" stop-color="#F8924F"/>
</linearGradient>
<linearGradient id="paint37_linear_299_10140" x1="338.191" y1="109.26" x2="355.164" y2="145.29" gradientUnits="userSpaceOnUse">
<stop stop-color="#FCB148"/>
<stop offset="0.05" stop-color="#FDBA46"/>
<stop offset="0.14" stop-color="#FFC244"/>
<stop offset="0.32" stop-color="#FFC444"/>
<stop offset="0.48" stop-color="#FDB946"/>
<stop offset="0.78" stop-color="#F99C4D"/>
<stop offset="0.87" stop-color="#F8924F"/>
<stop offset="1" stop-color="#F8924F"/>
</linearGradient>
<linearGradient id="paint38_linear_299_10140" x1="337.515" y1="101.506" x2="346.051" y2="133.493" gradientUnits="userSpaceOnUse">
<stop stop-color="#FFDB44"/>
<stop offset="1" stop-color="#FEEF06"/>
</linearGradient>
<linearGradient id="paint39_linear_299_10140" x1="333.197" y1="111.592" x2="350.136" y2="147.549" gradientUnits="userSpaceOnUse">
<stop stop-color="#FCB148"/>
<stop offset="0.05" stop-color="#FDBA46"/>
<stop offset="0.14" stop-color="#FFC244"/>
<stop offset="0.32" stop-color="#FFC444"/>
<stop offset="0.48" stop-color="#FDB946"/>
<stop offset="0.78" stop-color="#F99C4D"/>
<stop offset="0.87" stop-color="#F8924F"/>
<stop offset="1" stop-color="#F8924F"/>
</linearGradient>
</defs>
</svg>
