<svg width="25" height="25" viewBox="0 0 25 25" fill="none" xmlns="http://www.w3.org/2000/svg">
<g clip-path="url(#clip0_75_8484)">
<path fill-rule="evenodd" clip-rule="evenodd" d="M5.648 2.79982C5.648 4.14225 4.62586 5.22864 3.0274 5.22864C1.49122 5.22864 0.469081 4.14225 0.500714 2.79982C0.469081 1.39216 1.4912 0.337402 3.05803 0.337402C4.62584 0.337402 5.61735 1.39216 5.648 2.79982ZM0.629228 22.7839V7.14738H5.48884V22.7829L0.629228 22.7839Z" fill="#314351"/>
<path fill-rule="evenodd" clip-rule="evenodd" d="M9.38242 12.1379C9.38242 10.1875 9.31815 8.5248 9.25391 7.14974H13.4749L13.6993 9.29191H13.7952C14.4348 8.30042 16.0333 6.79883 18.6232 6.79883C21.8201 6.79883 24.2183 8.90933 24.2183 13.5119V22.7863H19.3587V14.1209C19.3587 12.1052 18.6558 10.7312 16.8972 10.7312C15.5538 10.7312 14.7551 11.6584 14.4358 12.5531C14.3073 12.8733 14.244 13.3202 14.244 13.7689V22.7863H9.38437V12.1379H9.38242Z" fill="#314351"/>
</g>
<defs>
<clipPath id="clip0_75_8484">
<rect width="24" height="24" fill="white" transform="translate(0.5 0.337402)"/>
</clipPath>
</defs>
</svg>
