<svg width="590" height="366" viewBox="0 0 590 366" fill="none" xmlns="http://www.w3.org/2000/svg">
<rect width="455.586" height="304.321" transform="translate(0 61.3888)" fill="#ADEA9E" fill-opacity="0.5"/>
<rect x="20.5898" y="164.918" width="4.90273" height="4.90273" rx="1.61201" fill="#5BDA3B" fill-opacity="0.7"/>
<rect x="40.2031" y="164.918" width="4.90273" height="4.90273" rx="1.61201" fill="#5BDA3B" fill-opacity="0.7"/>
<rect x="59.8125" y="164.918" width="4.90273" height="4.90273" rx="1.61201" fill="#5BDA3B" fill-opacity="0.7"/>
<rect x="79.4258" y="164.918" width="4.90273" height="4.90273" rx="1.61201" fill="#5BDA3B" fill-opacity="0.7"/>
<rect x="99.0352" y="164.918" width="4.90273" height="4.90273" rx="1.61201" fill="#5BDA3B" fill-opacity="0.7"/>
<rect x="118.648" y="164.918" width="4.90273" height="4.90273" rx="1.61201" fill="#5BDA3B" fill-opacity="0.7"/>
<rect x="138.25" y="164.918" width="4.90273" height="4.90273" rx="1.61201" fill="#5BDA3B" fill-opacity="0.7"/>
<rect x="157.863" y="164.918" width="4.90273" height="4.90273" rx="1.61201" fill="#5BDA3B" fill-opacity="0.7"/>
<rect x="177.477" y="164.918" width="4.90273" height="4.90273" rx="1.61201" fill="#5BDA3B" fill-opacity="0.7"/>
<rect x="197.09" y="164.918" width="4.90273" height="4.90273" rx="1.61201" fill="#5BDA3B" fill-opacity="0.7"/>
<rect x="20.5898" y="184.529" width="4.90273" height="4.90273" rx="1.61201" fill="#5BDA3B" fill-opacity="0.7"/>
<rect x="40.2031" y="184.529" width="4.90273" height="4.90273" rx="1.61201" fill="#5BDA3B" fill-opacity="0.7"/>
<rect x="59.8125" y="184.529" width="4.90273" height="4.90273" rx="1.61201" fill="#5BDA3B" fill-opacity="0.7"/>
<rect x="79.4258" y="184.529" width="4.90273" height="4.90273" rx="1.61201" fill="#5BDA3B" fill-opacity="0.7"/>
<rect x="99.0352" y="184.529" width="4.90273" height="4.90273" rx="1.61201" fill="#5BDA3B" fill-opacity="0.7"/>
<rect x="118.648" y="184.529" width="4.90273" height="4.90273" rx="1.61201" fill="#5BDA3B" fill-opacity="0.7"/>
<rect x="138.25" y="184.529" width="4.90273" height="4.90273" rx="1.61201" fill="#5BDA3B" fill-opacity="0.7"/>
<rect x="157.863" y="184.529" width="4.90273" height="4.90273" rx="1.61201" fill="#5BDA3B" fill-opacity="0.7"/>
<rect x="177.477" y="184.529" width="4.90273" height="4.90273" rx="1.61201" fill="#5BDA3B" fill-opacity="0.7"/>
<rect x="197.09" y="184.529" width="4.90273" height="4.90273" rx="1.61201" fill="#5BDA3B" fill-opacity="0.7"/>
<rect x="20.5898" y="204.139" width="4.90273" height="4.90273" rx="1.61201" fill="#5BDA3B" fill-opacity="0.7"/>
<rect x="40.2031" y="204.139" width="4.90273" height="4.90273" rx="1.61201" fill="#5BDA3B" fill-opacity="0.7"/>
<rect x="59.8125" y="204.139" width="4.90273" height="4.90273" rx="1.61201" fill="#5BDA3B" fill-opacity="0.7"/>
<rect x="79.4258" y="204.139" width="4.90273" height="4.90273" rx="1.61201" fill="#5BDA3B" fill-opacity="0.7"/>
<rect x="99.0352" y="204.139" width="4.90273" height="4.90273" rx="1.61201" fill="#5BDA3B" fill-opacity="0.7"/>
<rect x="118.648" y="204.139" width="4.90273" height="4.90273" rx="1.61201" fill="#5BDA3B" fill-opacity="0.7"/>
<rect x="138.25" y="204.139" width="4.90273" height="4.90273" rx="1.61201" fill="#5BDA3B" fill-opacity="0.7"/>
<rect x="157.863" y="204.139" width="4.90273" height="4.90273" rx="1.61201" fill="#5BDA3B" fill-opacity="0.7"/>
<rect x="177.477" y="204.139" width="4.90273" height="4.90273" rx="1.61201" fill="#5BDA3B" fill-opacity="0.7"/>
<rect x="197.09" y="204.139" width="4.90273" height="4.90273" rx="1.61201" fill="#5BDA3B" fill-opacity="0.7"/>
<rect x="20.5898" y="223.752" width="4.90273" height="4.90273" rx="1.61201" fill="#5BDA3B" fill-opacity="0.7"/>
<rect x="40.2031" y="223.752" width="4.90273" height="4.90273" rx="1.61201" fill="#5BDA3B" fill-opacity="0.7"/>
<rect x="59.8125" y="223.752" width="4.90273" height="4.90273" rx="1.61201" fill="#5BDA3B" fill-opacity="0.7"/>
<rect x="79.4258" y="223.752" width="4.90273" height="4.90273" rx="1.61201" fill="#5BDA3B" fill-opacity="0.7"/>
<rect x="99.0352" y="223.752" width="4.90273" height="4.90273" rx="1.61201" fill="#5BDA3B" fill-opacity="0.7"/>
<rect x="118.648" y="223.752" width="4.90273" height="4.90273" rx="1.61201" fill="#5BDA3B" fill-opacity="0.7"/>
<rect x="138.25" y="223.752" width="4.90273" height="4.90273" rx="1.61201" fill="#5BDA3B" fill-opacity="0.7"/>
<rect x="157.863" y="223.752" width="4.90273" height="4.90273" rx="1.61201" fill="#5BDA3B" fill-opacity="0.7"/>
<rect x="177.477" y="223.752" width="4.90273" height="4.90273" rx="1.61201" fill="#5BDA3B" fill-opacity="0.7"/>
<rect x="197.09" y="223.752" width="4.90273" height="4.90273" rx="1.61201" fill="#5BDA3B" fill-opacity="0.7"/>
<rect x="20.5898" y="243.362" width="4.90273" height="4.90273" rx="1.61201" fill="#5BDA3B" fill-opacity="0.7"/>
<rect x="40.2031" y="243.361" width="4.90273" height="4.90273" rx="1.61201" fill="#5BDA3B" fill-opacity="0.7"/>
<rect x="59.8125" y="243.361" width="4.90273" height="4.90273" rx="1.61201" fill="#5BDA3B" fill-opacity="0.7"/>
<rect x="79.4258" y="243.361" width="4.90273" height="4.90273" rx="1.61201" fill="#5BDA3B" fill-opacity="0.7"/>
<rect x="99.0352" y="243.361" width="4.90273" height="4.90273" rx="1.61201" fill="#5BDA3B" fill-opacity="0.7"/>
<rect x="118.648" y="243.361" width="4.90273" height="4.90273" rx="1.61201" fill="#5BDA3B" fill-opacity="0.7"/>
<rect x="138.25" y="243.361" width="4.90273" height="4.90273" rx="1.61201" fill="#5BDA3B" fill-opacity="0.7"/>
<rect x="157.863" y="243.361" width="4.90273" height="4.90273" rx="1.61201" fill="#5BDA3B" fill-opacity="0.7"/>
<rect x="177.477" y="243.361" width="4.90273" height="4.90273" rx="1.61201" fill="#5BDA3B" fill-opacity="0.7"/>
<rect x="197.09" y="243.361" width="4.90273" height="4.90273" rx="1.61201" fill="#5BDA3B" fill-opacity="0.7"/>
<rect x="20.5898" y="262.973" width="4.90273" height="4.90273" rx="1.61201" fill="#5BDA3B" fill-opacity="0.7"/>
<rect x="40.2031" y="262.973" width="4.90273" height="4.90273" rx="1.61201" fill="#5BDA3B" fill-opacity="0.7"/>
<rect x="59.8125" y="262.973" width="4.90273" height="4.90273" rx="1.61201" fill="#5BDA3B" fill-opacity="0.7"/>
<rect x="79.4258" y="262.973" width="4.90273" height="4.90273" rx="1.61201" fill="#5BDA3B" fill-opacity="0.7"/>
<rect x="99.0352" y="262.973" width="4.90273" height="4.90273" rx="1.61201" fill="#5BDA3B" fill-opacity="0.7"/>
<rect x="118.648" y="262.973" width="4.90273" height="4.90273" rx="1.61201" fill="#5BDA3B" fill-opacity="0.7"/>
<rect x="138.25" y="262.973" width="4.90273" height="4.90273" rx="1.61201" fill="#5BDA3B" fill-opacity="0.7"/>
<rect x="157.863" y="262.973" width="4.90273" height="4.90273" rx="1.61201" fill="#5BDA3B" fill-opacity="0.7"/>
<rect x="177.477" y="262.973" width="4.90273" height="4.90273" rx="1.61201" fill="#5BDA3B" fill-opacity="0.7"/>
<rect x="197.09" y="262.973" width="4.90273" height="4.90273" rx="1.61201" fill="#5BDA3B" fill-opacity="0.7"/>
<rect x="20.5898" y="282.583" width="4.90273" height="4.90273" rx="1.61201" fill="#5BDA3B" fill-opacity="0.7"/>
<rect x="20.5898" y="301.497" width="4.90273" height="4.90273" rx="1.61201" fill="#5BDA3B" fill-opacity="0.7"/>
<rect x="20.5898" y="320.411" width="4.90273" height="4.90273" rx="1.61201" fill="#5BDA3B" fill-opacity="0.7"/>
<rect x="20.5898" y="339.325" width="4.90273" height="4.90273" rx="1.61201" fill="#5BDA3B" fill-opacity="0.7"/>
<rect x="40.2031" y="282.582" width="4.90273" height="4.90273" rx="1.61201" fill="#5BDA3B" fill-opacity="0.7"/>
<rect x="40.2031" y="301.497" width="4.90273" height="4.90273" rx="1.61201" fill="#5BDA3B" fill-opacity="0.7"/>
<rect x="40.2031" y="320.411" width="4.90273" height="4.90273" rx="1.61201" fill="#5BDA3B" fill-opacity="0.7"/>
<rect x="40.2031" y="339.325" width="4.90273" height="4.90273" rx="1.61201" fill="#5BDA3B" fill-opacity="0.7"/>
<rect x="59.8125" y="282.582" width="4.90273" height="4.90273" rx="1.61201" fill="#5BDA3B" fill-opacity="0.7"/>
<rect x="59.8125" y="301.497" width="4.90273" height="4.90273" rx="1.61201" fill="#5BDA3B" fill-opacity="0.7"/>
<rect x="59.8125" y="320.411" width="4.90273" height="4.90273" rx="1.61201" fill="#5BDA3B" fill-opacity="0.7"/>
<rect x="59.8125" y="339.325" width="4.90273" height="4.90273" rx="1.61201" fill="#5BDA3B" fill-opacity="0.7"/>
<rect x="79.4258" y="282.582" width="4.90273" height="4.90273" rx="1.61201" fill="#5BDA3B" fill-opacity="0.7"/>
<rect x="79.4258" y="301.497" width="4.90273" height="4.90273" rx="1.61201" fill="#5BDA3B" fill-opacity="0.7"/>
<rect x="79.4258" y="320.411" width="4.90273" height="4.90273" rx="1.61201" fill="#5BDA3B" fill-opacity="0.7"/>
<rect x="79.4258" y="339.325" width="4.90273" height="4.90273" rx="1.61201" fill="#5BDA3B" fill-opacity="0.7"/>
<rect x="99.0352" y="282.582" width="4.90273" height="4.90273" rx="1.61201" fill="#5BDA3B" fill-opacity="0.7"/>
<rect x="99.0352" y="301.497" width="4.90273" height="4.90273" rx="1.61201" fill="#5BDA3B" fill-opacity="0.7"/>
<rect x="99.0352" y="320.411" width="4.90273" height="4.90273" rx="1.61201" fill="#5BDA3B" fill-opacity="0.7"/>
<rect x="99.0352" y="339.325" width="4.90273" height="4.90273" rx="1.61201" fill="#5BDA3B" fill-opacity="0.7"/>
<rect x="118.648" y="282.582" width="4.90273" height="4.90273" rx="1.61201" fill="#5BDA3B" fill-opacity="0.7"/>
<rect x="118.648" y="301.497" width="4.90273" height="4.90273" rx="1.61201" fill="#5BDA3B" fill-opacity="0.7"/>
<rect x="118.648" y="320.411" width="4.90273" height="4.90273" rx="1.61201" fill="#5BDA3B" fill-opacity="0.7"/>
<rect x="118.648" y="339.325" width="4.90273" height="4.90273" rx="1.61201" fill="#5BDA3B" fill-opacity="0.7"/>
<rect x="138.25" y="282.582" width="4.90273" height="4.90273" rx="1.61201" fill="#5BDA3B" fill-opacity="0.7"/>
<rect x="138.25" y="301.497" width="4.90273" height="4.90273" rx="1.61201" fill="#5BDA3B" fill-opacity="0.7"/>
<rect x="138.25" y="320.411" width="4.90273" height="4.90273" rx="1.61201" fill="#5BDA3B" fill-opacity="0.7"/>
<rect x="138.25" y="339.325" width="4.90273" height="4.90273" rx="1.61201" fill="#5BDA3B" fill-opacity="0.7"/>
<rect x="157.863" y="282.582" width="4.90273" height="4.90273" rx="1.61201" fill="#5BDA3B" fill-opacity="0.7"/>
<rect x="157.863" y="301.497" width="4.90273" height="4.90273" rx="1.61201" fill="#5BDA3B" fill-opacity="0.7"/>
<rect x="157.863" y="320.411" width="4.90273" height="4.90273" rx="1.61201" fill="#5BDA3B" fill-opacity="0.7"/>
<rect x="157.863" y="339.325" width="4.90273" height="4.90273" rx="1.61201" fill="#5BDA3B" fill-opacity="0.7"/>
<rect x="177.477" y="282.582" width="4.90273" height="4.90273" rx="1.61201" fill="#5BDA3B" fill-opacity="0.7"/>
<rect x="177.477" y="301.497" width="4.90273" height="4.90273" rx="1.61201" fill="#5BDA3B" fill-opacity="0.7"/>
<rect x="177.477" y="320.411" width="4.90273" height="4.90273" rx="1.61201" fill="#5BDA3B" fill-opacity="0.7"/>
<rect x="177.477" y="339.325" width="4.90273" height="4.90273" rx="1.61201" fill="#5BDA3B" fill-opacity="0.7"/>
<rect x="197.09" y="282.582" width="4.90273" height="4.90273" rx="1.61201" fill="#5BDA3B" fill-opacity="0.7"/>
<rect x="197.09" y="301.497" width="4.90273" height="4.90273" rx="1.61201" fill="#5BDA3B" fill-opacity="0.7"/>
<rect x="197.09" y="320.411" width="4.90273" height="4.90273" rx="1.61201" fill="#5BDA3B" fill-opacity="0.7"/>
<rect x="197.09" y="339.325" width="4.90273" height="4.90273" rx="1.61201" fill="#5BDA3B" fill-opacity="0.7"/>
<g filter="url(#filter0_d_248_1116)">
<rect x="60" y="5" width="520" height="329" rx="14.321" fill="white"/>
<rect x="59.2723" y="4.27234" width="521.455" height="330.455" rx="11.4684" stroke="#E5E5E5" stroke-width="1.45532"/>
<g opacity="0.3" filter="url(#filter1_f_248_1116)">
<rect x="206.75" y="165.071" width="223.143" height="81.7143" fill="#1C2547"/>
</g>
<rect x="206.5" y="152.1" width="229" height="80" fill="#8CC63E"/>
<rect x="206.5" y="152.1" width="229" height="80" stroke="white" stroke-width="6"/>
<path d="M270.538 185.135C270.447 184 270.021 183.115 269.261 182.48C268.512 181.844 267.372 181.526 265.84 181.526C264.864 181.526 264.064 181.646 263.44 181.884C262.827 182.111 262.373 182.423 262.078 182.82C261.783 183.217 261.63 183.671 261.619 184.182C261.596 184.602 261.67 184.982 261.84 185.322C262.022 185.651 262.305 185.952 262.691 186.224C263.077 186.485 263.57 186.723 264.172 186.939C264.773 187.155 265.488 187.348 266.316 187.518L269.176 188.13C271.105 188.539 272.756 189.078 274.129 189.747C275.502 190.417 276.625 191.206 277.499 192.113C278.373 193.01 279.014 194.02 279.422 195.143C279.842 196.266 280.058 197.492 280.069 198.819C280.058 201.112 279.485 203.052 278.35 204.641C277.215 206.229 275.593 207.438 273.482 208.266C271.383 209.094 268.858 209.508 265.908 209.508C262.878 209.508 260.234 209.06 257.976 208.164C255.73 207.267 253.982 205.889 252.734 204.028C251.497 202.156 250.873 199.761 250.862 196.845H259.849C259.905 197.912 260.172 198.808 260.649 199.534C261.125 200.261 261.795 200.811 262.657 201.185C263.531 201.56 264.569 201.747 265.772 201.747C266.782 201.747 267.627 201.622 268.308 201.373C268.989 201.123 269.505 200.777 269.857 200.334C270.209 199.892 270.39 199.387 270.401 198.819C270.39 198.286 270.214 197.821 269.874 197.424C269.545 197.015 269 196.652 268.24 196.334C267.48 196.005 266.453 195.699 265.159 195.415L261.687 194.666C258.6 193.997 256.166 192.879 254.385 191.313C252.615 189.736 251.735 187.586 251.747 184.863C251.735 182.65 252.325 180.715 253.517 179.058C254.72 177.39 256.382 176.091 258.504 175.161C260.637 174.23 263.083 173.765 265.84 173.765C268.654 173.765 271.088 174.236 273.142 175.178C275.196 176.12 276.779 177.447 277.891 179.161C279.014 180.863 279.581 182.854 279.593 185.135H270.538ZM317.438 191.671C317.438 195.552 316.684 198.825 315.174 201.492C313.665 204.147 311.628 206.161 309.064 207.534C306.499 208.896 303.64 209.577 300.485 209.577C297.308 209.577 294.437 208.89 291.873 207.517C289.32 206.133 287.289 204.113 285.78 201.458C284.282 198.791 283.533 195.529 283.533 191.671C283.533 187.79 284.282 184.522 285.78 181.867C287.289 179.2 289.32 177.186 291.873 175.825C294.437 174.452 297.308 173.765 300.485 173.765C303.64 173.765 306.499 174.452 309.064 175.825C311.628 177.186 313.665 179.2 315.174 181.867C316.684 184.522 317.438 187.79 317.438 191.671ZM307.702 191.671C307.702 189.583 307.424 187.824 306.868 186.394C306.324 184.953 305.512 183.864 304.434 183.126C303.368 182.377 302.051 182.003 300.485 182.003C298.92 182.003 297.598 182.377 296.52 183.126C295.453 183.864 294.642 184.953 294.086 186.394C293.541 187.824 293.269 189.583 293.269 191.671C293.269 193.759 293.541 195.523 294.086 196.964C294.642 198.394 295.453 199.483 296.52 200.232C297.598 200.97 298.92 201.339 300.485 201.339C302.051 201.339 303.368 200.97 304.434 200.232C305.512 199.483 306.324 198.394 306.868 196.964C307.424 195.523 307.702 193.759 307.702 191.671ZM355.586 191.671C355.586 195.552 354.831 198.825 353.322 201.492C351.813 204.147 349.776 206.161 347.212 207.534C344.647 208.896 341.788 209.577 338.633 209.577C335.456 209.577 332.585 208.89 330.021 207.517C327.468 206.133 325.436 204.113 323.927 201.458C322.429 198.791 321.681 195.529 321.681 191.671C321.681 187.79 322.429 184.522 323.927 181.867C325.436 179.2 327.468 177.186 330.021 175.825C332.585 174.452 335.456 173.765 338.633 173.765C341.788 173.765 344.647 174.452 347.212 175.825C349.776 177.186 351.813 179.2 353.322 181.867C354.831 184.522 355.586 187.79 355.586 191.671ZM345.85 191.671C345.85 189.583 345.572 187.824 345.016 186.394C344.471 184.953 343.66 183.864 342.582 183.126C341.515 182.377 340.199 182.003 338.633 182.003C337.067 182.003 335.745 182.377 334.667 183.126C333.601 183.864 332.789 184.953 332.233 186.394C331.689 187.824 331.416 189.583 331.416 191.671C331.416 193.759 331.689 195.523 332.233 196.964C332.789 198.394 333.601 199.483 334.667 200.232C335.745 200.97 337.067 201.339 338.633 201.339C340.199 201.339 341.515 200.97 342.582 200.232C343.66 199.483 344.471 198.394 345.016 196.964C345.572 195.523 345.85 193.759 345.85 191.671ZM390.125 174.242V209.1H382.227L369.632 190.786H369.428V209.1H359.964V174.242H367.998L380.389 192.488H380.661V174.242H390.125Z" fill="white"/>
<g opacity="0.4" filter="url(#filter2_f_248_1116)">
<rect x="229.705" y="115.909" width="176.918" height="58.8939" transform="rotate(-4.89229 229.705 115.909)" fill="#1C2547"/>
</g>
<rect x="226.868" y="102.978" width="187" height="64" transform="rotate(-4.89229 226.868 102.978)" fill="black"/>
<rect x="226.868" y="102.978" width="187" height="64" transform="rotate(-4.89229 226.868 102.978)" stroke="white" stroke-width="6"/>
<path d="M266.003 128.304L258.352 128.959C258.243 128.33 258.049 127.768 257.77 127.273C257.5 126.777 257.145 126.361 256.707 126.025C256.276 125.679 255.767 125.431 255.181 125.281C254.593 125.121 253.937 125.073 253.214 125.135C251.948 125.243 250.902 125.642 250.077 126.332C249.262 127.022 248.677 127.96 248.323 129.148C247.978 130.334 247.875 131.732 248.012 133.342C248.158 135.043 248.506 136.448 249.057 137.558C249.615 138.658 250.354 139.46 251.272 139.965C252.189 140.46 253.258 140.656 254.479 140.551C255.175 140.492 255.792 140.352 256.329 140.133C256.865 139.905 257.322 139.606 257.701 139.237C258.079 138.867 258.375 138.437 258.588 137.945C258.809 137.443 258.939 136.89 258.979 136.285L266.635 135.684C266.645 136.868 266.418 138.095 265.952 139.364C265.486 140.625 264.773 141.816 263.812 142.937C262.859 144.048 261.641 144.981 260.157 145.737C258.673 146.493 256.913 146.958 254.878 147.132C252.327 147.35 249.992 146.999 247.873 146.078C245.762 145.156 244.028 143.683 242.67 141.658C241.321 139.632 240.515 137.082 240.252 134.007C239.987 130.913 240.361 128.257 241.374 126.039C242.386 123.811 243.859 122.068 245.792 120.809C247.724 119.541 249.938 118.801 252.435 118.587C254.189 118.437 255.824 118.538 257.34 118.891C258.855 119.245 260.208 119.835 261.4 120.662C262.59 121.48 263.582 122.53 264.375 123.81C265.168 125.091 265.711 126.589 266.003 128.304ZM297.404 129.115C297.669 132.208 297.291 134.869 296.27 137.097C295.248 139.317 293.762 141.061 291.811 142.33C289.86 143.591 287.627 144.329 285.113 144.544C282.58 144.761 280.245 144.409 278.107 143.49C275.978 142.561 274.221 141.089 272.837 139.076C271.461 137.052 270.642 134.503 270.379 131.428C270.114 128.335 270.488 125.679 271.5 123.46C272.521 121.232 274.003 119.488 275.945 118.228C277.896 116.959 280.137 116.216 282.67 115.999C285.184 115.784 287.51 116.136 289.648 117.055C291.785 117.966 293.546 119.432 294.931 121.455C296.315 123.468 297.139 126.021 297.404 129.115ZM289.644 129.779C289.501 128.115 289.16 126.732 288.619 125.63C288.086 124.519 287.365 123.706 286.456 123.191C285.554 122.667 284.48 122.458 283.232 122.565C281.983 122.672 280.955 123.061 280.147 123.731C279.347 124.392 278.775 125.316 278.43 126.502C278.093 127.679 277.996 129.1 278.139 130.764C278.281 132.428 278.619 133.816 279.151 134.927C279.692 136.029 280.413 136.842 281.314 137.366C282.224 137.88 283.303 138.084 284.551 137.977C285.799 137.871 286.823 137.487 287.623 136.826C288.431 136.156 289.003 135.232 289.34 134.055C289.685 132.869 289.786 131.443 289.644 129.779ZM300.469 114.858L309.857 114.054L317.662 129.239L317.988 129.211L323.099 112.921L332.487 112.117L334.865 139.903L327.485 140.534L326.11 124.471L325.893 124.49L321.063 140.865L316.613 141.246L309.06 125.821L308.843 125.84L310.228 142.011L302.847 142.643L300.469 114.858ZM344.369 111.1L346.747 138.886L339.204 139.531L336.826 111.746L344.369 111.1ZM372.749 108.671L375.127 136.456L368.832 136.995L357.543 123.257L357.38 123.27L358.63 137.868L351.086 138.514L348.708 110.729L355.112 110.181L366.233 123.879L366.45 123.861L365.206 109.317L372.749 108.671ZM395.91 115.927C395.751 115.458 395.53 115.053 395.246 114.713C394.961 114.364 394.618 114.079 394.216 113.858C393.823 113.628 393.372 113.47 392.864 113.386C392.364 113.293 391.82 113.271 391.232 113.321C389.965 113.429 388.911 113.825 388.067 114.508C387.233 115.189 386.629 116.12 386.256 117.3C385.892 118.479 385.779 119.874 385.917 121.484C386.057 123.112 386.397 124.486 386.94 125.606C387.482 126.725 388.218 127.555 389.148 128.095C390.078 128.635 391.194 128.849 392.497 128.738C393.645 128.639 394.585 128.39 395.316 127.991C396.056 127.59 396.59 127.066 396.917 126.419C397.245 125.771 397.373 125.031 397.301 124.199L398.615 124.223L392.266 124.767L391.806 119.394L404.125 118.34L404.455 122.193C404.672 124.726 404.319 126.938 403.397 128.83C402.483 130.712 401.126 132.213 399.327 133.333C397.536 134.443 395.428 135.101 393.004 135.309C390.3 135.54 387.877 135.169 385.734 134.196C383.592 133.222 381.855 131.721 380.525 129.694C379.203 127.666 378.417 125.187 378.166 122.257C377.97 119.959 378.144 117.894 378.688 116.062C379.242 114.229 380.091 112.648 381.234 111.321C382.377 109.984 383.741 108.933 385.324 108.169C386.907 107.396 388.635 106.929 390.507 106.769C392.153 106.628 393.702 106.732 395.153 107.082C396.612 107.421 397.922 107.974 399.08 108.741C400.248 109.497 401.216 110.43 401.985 111.54C402.754 112.649 403.271 113.894 403.535 115.275L395.91 115.927Z" fill="white"/>
</g>
<defs>
<filter id="filter0_d_248_1116" x="35.6761" y="0.268754" width="554.327" height="363.327" filterUnits="userSpaceOnUse" color-interpolation-filters="sRGB">
<feFlood flood-opacity="0" result="BackgroundImageFix"/>
<feColorMatrix in="SourceAlpha" type="matrix" values="0 0 0 0 0 0 0 0 0 0 0 0 0 0 0 0 0 0 127 0" result="hardAlpha"/>
<feOffset dx="-7.16049" dy="12.4324"/>
<feGaussianBlur stdDeviation="7.85417"/>
<feColorMatrix type="matrix" values="0 0 0 0 0.180392 0 0 0 0 0.203922 0 0 0 0 0.47451 0 0 0 0.13 0"/>
<feBlend mode="normal" in2="BackgroundImageFix" result="effect1_dropShadow_248_1116"/>
<feBlend mode="normal" in="SourceGraphic" in2="effect1_dropShadow_248_1116" result="shape"/>
</filter>
<filter id="filter1_f_248_1116" x="186.164" y="144.486" width="264.314" height="122.886" filterUnits="userSpaceOnUse" color-interpolation-filters="sRGB">
<feFlood flood-opacity="0" result="BackgroundImageFix"/>
<feBlend mode="normal" in="SourceGraphic" in2="BackgroundImageFix" result="shape"/>
<feGaussianBlur stdDeviation="10.2929" result="effect1_foregroundBlur_248_1116"/>
</filter>
<filter id="filter2_f_248_1116" x="217.762" y="88.8781" width="205.183" height="97.653" filterUnits="userSpaceOnUse" color-interpolation-filters="sRGB">
<feFlood flood-opacity="0" result="BackgroundImageFix"/>
<feBlend mode="normal" in="SourceGraphic" in2="BackgroundImageFix" result="shape"/>
<feGaussianBlur stdDeviation="5.97143" result="effect1_foregroundBlur_248_1116"/>
</filter>
</defs>
</svg>
