<svg width="591" height="366" viewBox="0 0 591 366" fill="none" xmlns="http://www.w3.org/2000/svg">
<rect width="455.586" height="304.321" transform="translate(0.5 61.3888)" fill="#FECDBC" fill-opacity="0.5"/>
<rect x="21.0898" y="164.918" width="4.90273" height="4.90273" rx="1.61201" fill="#FF884D" fill-opacity="0.7"/>
<rect x="40.7031" y="164.918" width="4.90273" height="4.90273" rx="1.61201" fill="#FF884D" fill-opacity="0.7"/>
<rect x="60.3125" y="164.918" width="4.90273" height="4.90273" rx="1.61201" fill="#FF884D" fill-opacity="0.7"/>
<rect x="79.9258" y="164.918" width="4.90273" height="4.90273" rx="1.61201" fill="#FF884D" fill-opacity="0.7"/>
<rect x="99.5352" y="164.918" width="4.90273" height="4.90273" rx="1.61201" fill="#FF884D" fill-opacity="0.7"/>
<rect x="119.148" y="164.918" width="4.90273" height="4.90273" rx="1.61201" fill="#FF884D" fill-opacity="0.7"/>
<rect x="138.75" y="164.918" width="4.90273" height="4.90273" rx="1.61201" fill="#FF884D" fill-opacity="0.7"/>
<rect x="158.363" y="164.918" width="4.90273" height="4.90273" rx="1.61201" fill="#FF884D" fill-opacity="0.7"/>
<rect x="177.977" y="164.918" width="4.90273" height="4.90273" rx="1.61201" fill="#FF884D" fill-opacity="0.7"/>
<rect x="197.59" y="164.918" width="4.90273" height="4.90273" rx="1.61201" fill="#FF884D" fill-opacity="0.7"/>
<rect x="21.0898" y="184.529" width="4.90273" height="4.90273" rx="1.61201" fill="#FF884D" fill-opacity="0.7"/>
<rect x="40.7031" y="184.529" width="4.90273" height="4.90273" rx="1.61201" fill="#FF884D" fill-opacity="0.7"/>
<rect x="60.3125" y="184.529" width="4.90273" height="4.90273" rx="1.61201" fill="#FF884D" fill-opacity="0.7"/>
<rect x="79.9258" y="184.529" width="4.90273" height="4.90273" rx="1.61201" fill="#FF884D" fill-opacity="0.7"/>
<rect x="99.5352" y="184.529" width="4.90273" height="4.90273" rx="1.61201" fill="#FF884D" fill-opacity="0.7"/>
<rect x="119.148" y="184.529" width="4.90273" height="4.90273" rx="1.61201" fill="#FF884D" fill-opacity="0.7"/>
<rect x="138.75" y="184.529" width="4.90273" height="4.90273" rx="1.61201" fill="#FF884D" fill-opacity="0.7"/>
<rect x="158.363" y="184.529" width="4.90273" height="4.90273" rx="1.61201" fill="#FF884D" fill-opacity="0.7"/>
<rect x="177.977" y="184.529" width="4.90273" height="4.90273" rx="1.61201" fill="#FF884D" fill-opacity="0.7"/>
<rect x="197.59" y="184.529" width="4.90273" height="4.90273" rx="1.61201" fill="#FF884D" fill-opacity="0.7"/>
<rect x="21.0898" y="204.139" width="4.90273" height="4.90273" rx="1.61201" fill="#FF884D" fill-opacity="0.7"/>
<rect x="40.7031" y="204.139" width="4.90273" height="4.90273" rx="1.61201" fill="#FF884D" fill-opacity="0.7"/>
<rect x="60.3125" y="204.139" width="4.90273" height="4.90273" rx="1.61201" fill="#FF884D" fill-opacity="0.7"/>
<rect x="79.9258" y="204.139" width="4.90273" height="4.90273" rx="1.61201" fill="#FF884D" fill-opacity="0.7"/>
<rect x="99.5352" y="204.139" width="4.90273" height="4.90273" rx="1.61201" fill="#FF884D" fill-opacity="0.7"/>
<rect x="119.148" y="204.139" width="4.90273" height="4.90273" rx="1.61201" fill="#FF884D" fill-opacity="0.7"/>
<rect x="138.75" y="204.139" width="4.90273" height="4.90273" rx="1.61201" fill="#FF884D" fill-opacity="0.7"/>
<rect x="158.363" y="204.139" width="4.90273" height="4.90273" rx="1.61201" fill="#FF884D" fill-opacity="0.7"/>
<rect x="177.977" y="204.139" width="4.90273" height="4.90273" rx="1.61201" fill="#FF884D" fill-opacity="0.7"/>
<rect x="197.59" y="204.139" width="4.90273" height="4.90273" rx="1.61201" fill="#FF884D" fill-opacity="0.7"/>
<rect x="21.0898" y="223.752" width="4.90273" height="4.90273" rx="1.61201" fill="#FF884D" fill-opacity="0.7"/>
<rect x="40.7031" y="223.752" width="4.90273" height="4.90273" rx="1.61201" fill="#FF884D" fill-opacity="0.7"/>
<rect x="60.3125" y="223.752" width="4.90273" height="4.90273" rx="1.61201" fill="#FF884D" fill-opacity="0.7"/>
<rect x="79.9258" y="223.752" width="4.90273" height="4.90273" rx="1.61201" fill="#FF884D" fill-opacity="0.7"/>
<rect x="99.5352" y="223.752" width="4.90273" height="4.90273" rx="1.61201" fill="#FF884D" fill-opacity="0.7"/>
<rect x="119.148" y="223.752" width="4.90273" height="4.90273" rx="1.61201" fill="#FF884D" fill-opacity="0.7"/>
<rect x="138.75" y="223.752" width="4.90273" height="4.90273" rx="1.61201" fill="#FF884D" fill-opacity="0.7"/>
<rect x="158.363" y="223.752" width="4.90273" height="4.90273" rx="1.61201" fill="#FF884D" fill-opacity="0.7"/>
<rect x="177.977" y="223.752" width="4.90273" height="4.90273" rx="1.61201" fill="#FF884D" fill-opacity="0.7"/>
<rect x="197.59" y="223.752" width="4.90273" height="4.90273" rx="1.61201" fill="#FF884D" fill-opacity="0.7"/>
<rect x="21.0898" y="243.362" width="4.90273" height="4.90273" rx="1.61201" fill="#FF884D" fill-opacity="0.7"/>
<rect x="40.7031" y="243.361" width="4.90273" height="4.90273" rx="1.61201" fill="#FF884D" fill-opacity="0.7"/>
<rect x="60.3125" y="243.361" width="4.90273" height="4.90273" rx="1.61201" fill="#FF884D" fill-opacity="0.7"/>
<rect x="79.9258" y="243.361" width="4.90273" height="4.90273" rx="1.61201" fill="#FF884D" fill-opacity="0.7"/>
<rect x="99.5352" y="243.361" width="4.90273" height="4.90273" rx="1.61201" fill="#FF884D" fill-opacity="0.7"/>
<rect x="119.148" y="243.361" width="4.90273" height="4.90273" rx="1.61201" fill="#FF884D" fill-opacity="0.7"/>
<rect x="138.75" y="243.361" width="4.90273" height="4.90273" rx="1.61201" fill="#FF884D" fill-opacity="0.7"/>
<rect x="158.363" y="243.361" width="4.90273" height="4.90273" rx="1.61201" fill="#FF884D" fill-opacity="0.7"/>
<rect x="177.977" y="243.361" width="4.90273" height="4.90273" rx="1.61201" fill="#FF884D" fill-opacity="0.7"/>
<rect x="197.59" y="243.361" width="4.90273" height="4.90273" rx="1.61201" fill="#FF884D" fill-opacity="0.7"/>
<rect x="21.0898" y="262.973" width="4.90273" height="4.90273" rx="1.61201" fill="#FF884D" fill-opacity="0.7"/>
<rect x="40.7031" y="262.973" width="4.90273" height="4.90273" rx="1.61201" fill="#FF884D" fill-opacity="0.7"/>
<rect x="60.3125" y="262.973" width="4.90273" height="4.90273" rx="1.61201" fill="#FF884D" fill-opacity="0.7"/>
<rect x="79.9258" y="262.973" width="4.90273" height="4.90273" rx="1.61201" fill="#FF884D" fill-opacity="0.7"/>
<rect x="99.5352" y="262.973" width="4.90273" height="4.90273" rx="1.61201" fill="#FF884D" fill-opacity="0.7"/>
<rect x="119.148" y="262.973" width="4.90273" height="4.90273" rx="1.61201" fill="#FF884D" fill-opacity="0.7"/>
<rect x="138.75" y="262.973" width="4.90273" height="4.90273" rx="1.61201" fill="#FF884D" fill-opacity="0.7"/>
<rect x="158.363" y="262.973" width="4.90273" height="4.90273" rx="1.61201" fill="#FF884D" fill-opacity="0.7"/>
<rect x="177.977" y="262.973" width="4.90273" height="4.90273" rx="1.61201" fill="#FF884D" fill-opacity="0.7"/>
<rect x="197.59" y="262.973" width="4.90273" height="4.90273" rx="1.61201" fill="#FF884D" fill-opacity="0.7"/>
<rect x="21.0898" y="282.583" width="4.90273" height="4.90273" rx="1.61201" fill="#FF884D" fill-opacity="0.7"/>
<rect x="21.0898" y="301.497" width="4.90273" height="4.90273" rx="1.61201" fill="#FF884D" fill-opacity="0.7"/>
<rect x="21.0898" y="320.411" width="4.90273" height="4.90273" rx="1.61201" fill="#FF884D" fill-opacity="0.7"/>
<rect x="21.0898" y="339.325" width="4.90273" height="4.90273" rx="1.61201" fill="#FF884D" fill-opacity="0.7"/>
<rect x="40.7031" y="282.582" width="4.90273" height="4.90273" rx="1.61201" fill="#FF884D" fill-opacity="0.7"/>
<rect x="40.7031" y="301.497" width="4.90273" height="4.90273" rx="1.61201" fill="#FF884D" fill-opacity="0.7"/>
<rect x="40.7031" y="320.411" width="4.90273" height="4.90273" rx="1.61201" fill="#FF884D" fill-opacity="0.7"/>
<rect x="40.7031" y="339.325" width="4.90273" height="4.90273" rx="1.61201" fill="#FF884D" fill-opacity="0.7"/>
<rect x="60.3125" y="282.582" width="4.90273" height="4.90273" rx="1.61201" fill="#FF884D" fill-opacity="0.7"/>
<rect x="60.3125" y="301.497" width="4.90273" height="4.90273" rx="1.61201" fill="#FF884D" fill-opacity="0.7"/>
<rect x="60.3125" y="320.411" width="4.90273" height="4.90273" rx="1.61201" fill="#FF884D" fill-opacity="0.7"/>
<rect x="60.3125" y="339.325" width="4.90273" height="4.90273" rx="1.61201" fill="#FF884D" fill-opacity="0.7"/>
<rect x="79.9258" y="282.582" width="4.90273" height="4.90273" rx="1.61201" fill="#FF884D" fill-opacity="0.7"/>
<rect x="79.9258" y="301.497" width="4.90273" height="4.90273" rx="1.61201" fill="#FF884D" fill-opacity="0.7"/>
<rect x="79.9258" y="320.411" width="4.90273" height="4.90273" rx="1.61201" fill="#FF884D" fill-opacity="0.7"/>
<rect x="79.9258" y="339.325" width="4.90273" height="4.90273" rx="1.61201" fill="#FF884D" fill-opacity="0.7"/>
<rect x="99.5352" y="282.582" width="4.90273" height="4.90273" rx="1.61201" fill="#FF884D" fill-opacity="0.7"/>
<rect x="99.5352" y="301.497" width="4.90273" height="4.90273" rx="1.61201" fill="#FF884D" fill-opacity="0.7"/>
<rect x="99.5352" y="320.411" width="4.90273" height="4.90273" rx="1.61201" fill="#FF884D" fill-opacity="0.7"/>
<rect x="99.5352" y="339.325" width="4.90273" height="4.90273" rx="1.61201" fill="#FF884D" fill-opacity="0.7"/>
<rect x="119.148" y="282.582" width="4.90273" height="4.90273" rx="1.61201" fill="#FF884D" fill-opacity="0.7"/>
<rect x="119.148" y="301.497" width="4.90273" height="4.90273" rx="1.61201" fill="#FF884D" fill-opacity="0.7"/>
<rect x="119.148" y="320.411" width="4.90273" height="4.90273" rx="1.61201" fill="#FF884D" fill-opacity="0.7"/>
<rect x="119.148" y="339.325" width="4.90273" height="4.90273" rx="1.61201" fill="#FF884D" fill-opacity="0.7"/>
<rect x="138.75" y="282.582" width="4.90273" height="4.90273" rx="1.61201" fill="#FF884D" fill-opacity="0.7"/>
<rect x="138.75" y="301.497" width="4.90273" height="4.90273" rx="1.61201" fill="#FF884D" fill-opacity="0.7"/>
<rect x="138.75" y="320.411" width="4.90273" height="4.90273" rx="1.61201" fill="#FF884D" fill-opacity="0.7"/>
<rect x="138.75" y="339.325" width="4.90273" height="4.90273" rx="1.61201" fill="#FF884D" fill-opacity="0.7"/>
<rect x="158.363" y="282.582" width="4.90273" height="4.90273" rx="1.61201" fill="#FF884D" fill-opacity="0.7"/>
<rect x="158.363" y="301.497" width="4.90273" height="4.90273" rx="1.61201" fill="#FF884D" fill-opacity="0.7"/>
<rect x="158.363" y="320.411" width="4.90273" height="4.90273" rx="1.61201" fill="#FF884D" fill-opacity="0.7"/>
<rect x="158.363" y="339.325" width="4.90273" height="4.90273" rx="1.61201" fill="#FF884D" fill-opacity="0.7"/>
<rect x="177.977" y="282.582" width="4.90273" height="4.90273" rx="1.61201" fill="#FF884D" fill-opacity="0.7"/>
<rect x="177.977" y="301.497" width="4.90273" height="4.90273" rx="1.61201" fill="#FF884D" fill-opacity="0.7"/>
<rect x="177.977" y="320.411" width="4.90273" height="4.90273" rx="1.61201" fill="#FF884D" fill-opacity="0.7"/>
<rect x="177.977" y="339.325" width="4.90273" height="4.90273" rx="1.61201" fill="#FF884D" fill-opacity="0.7"/>
<rect x="197.59" y="282.582" width="4.90273" height="4.90273" rx="1.61201" fill="#FF884D" fill-opacity="0.7"/>
<rect x="197.59" y="301.497" width="4.90273" height="4.90273" rx="1.61201" fill="#FF884D" fill-opacity="0.7"/>
<rect x="197.59" y="320.411" width="4.90273" height="4.90273" rx="1.61201" fill="#FF884D" fill-opacity="0.7"/>
<rect x="197.59" y="339.325" width="4.90273" height="4.90273" rx="1.61201" fill="#FF884D" fill-opacity="0.7"/>
<g filter="url(#filter0_d_248_913)">
<rect x="60.5" y="5" width="520" height="329" rx="14.321" fill="white"/>
<g clip-path="url(#clip0_248_913)">
<rect x="60.5" y="5" width="520" height="329" rx="10.7407" fill="#F2F5FF" fill-opacity="0.5"/>
<path d="M60.5 5H104.5V334H61.3951C60.9007 334 60.5 333.599 60.5 333.105V5Z" fill="white"/>
<path d="M60.9475 5.44753H104.052V333.552H61.3951C61.1479 333.552 60.9475 333.352 60.9475 333.105V5.44753Z" stroke="#E5E5E5" stroke-opacity="0.5" stroke-width="0.895062"/>
<path d="M74.9253 30.2708L73.5742 26.562H90.2933L91.4755 29.9673L78.8433 40.7227L77.4584 37.0477L85.4971 30.2708H74.9253Z" fill="#E44A39"/>
<mask id="mask0_248_913" style="mask-type:alpha" maskUnits="userSpaceOnUse" x="73" y="78" width="19" height="19">
<rect x="73.5742" y="78.3153" width="17.9012" height="17.9012" fill="#D9D9D9"/>
</mask>
<g mask="url(#mask0_248_913)">
<path d="M76.2578 86.3709V81.0005H81.6282V86.3709H76.2578ZM76.2578 93.5314V88.161H81.6282V93.5314H76.2578ZM83.4183 86.3709V81.0005H88.7887V86.3709H83.4183ZM83.4183 93.5314V88.161H88.7887V93.5314H83.4183Z" fill="#8161F1"/>
</g>
<mask id="mask1_248_913" style="mask-type:alpha" maskUnits="userSpaceOnUse" x="73" y="113" width="19" height="19">
<rect x="73.5742" y="113.223" width="17.9012" height="17.9012" fill="#E78764"/>
</mask>
<g mask="url(#mask1_248_913)">
<path d="M78.4926 129.334C78.1223 129.334 77.8066 129.202 77.5455 128.938C77.2845 128.674 77.1539 128.357 77.1539 127.987C77.1539 127.617 77.2858 127.301 77.5495 127.04C77.8132 126.779 78.1302 126.648 78.5005 126.648C78.8708 126.648 79.1865 126.78 79.4475 127.044C79.7086 127.308 79.8391 127.625 79.8391 127.995C79.8391 128.365 79.7073 128.681 79.4436 128.942C79.1799 129.203 78.8629 129.334 78.4926 129.334ZM86.5481 129.334C86.1778 129.334 85.8621 129.202 85.6011 128.938C85.34 128.674 85.2095 128.357 85.2095 127.987C85.2095 127.617 85.3413 127.301 85.605 127.04C85.8687 126.779 86.1857 126.648 86.556 126.648C86.9263 126.648 87.242 126.78 87.5031 127.044C87.7641 127.308 87.8947 127.625 87.8947 127.995C87.8947 128.365 87.7628 128.681 87.4991 128.942C87.2354 129.203 86.9184 129.334 86.5481 129.334ZM78.2914 118.145L79.8391 121.726H85.4519L86.981 118.145H78.2914ZM77.7133 116.803H88.3422C88.5162 116.803 88.6437 116.871 88.7245 117.008C88.8053 117.145 88.8146 117.288 88.7524 117.437L86.6757 122.245C86.5684 122.495 86.406 122.695 86.1885 122.844C85.9709 122.994 85.7254 123.068 85.4519 123.068H79.4848L78.7016 124.411H87.8947V125.753H78.7203C78.1857 125.753 77.791 125.529 77.5362 125.079C77.2814 124.63 77.2845 124.183 77.5455 123.739L78.5152 122.061L76.0724 116.355H74.4688V115.013H76.9488L77.7133 116.803Z" fill="#E78764"/>
</g>
<mask id="mask2_248_913" style="mask-type:alpha" maskUnits="userSpaceOnUse" x="73" y="148" width="19" height="19">
<rect x="73.5742" y="148.13" width="17.9012" height="17.9012" fill="#D9D9D9"/>
</mask>
<g mask="url(#mask2_248_913)">
<path d="M81.0877 164.241L80.6775 162.115C80.3916 162.003 80.115 161.873 79.8477 161.724C79.5804 161.574 79.3287 161.4 79.0925 161.202L77.0413 161.891L75.6055 159.411L77.2278 157.994C77.2029 157.845 77.1843 157.696 77.1718 157.547C77.1594 157.398 77.1532 157.242 77.1532 157.081C77.1532 156.919 77.1594 156.764 77.1718 156.614C77.1843 156.465 77.2029 156.316 77.2278 156.167L75.6055 154.75L77.0413 152.27L79.0925 152.96C79.3287 152.761 79.5804 152.587 79.8477 152.437C80.115 152.288 80.3916 152.158 80.6775 152.046L81.0877 149.92H83.9594L84.3696 152.046C84.6555 152.158 84.9321 152.288 85.1994 152.437C85.4667 152.587 85.7184 152.761 85.9546 152.96L88.0058 152.27L89.4416 154.75L87.8193 156.167C87.8442 156.316 87.8628 156.465 87.8753 156.614C87.8877 156.764 87.8939 156.919 87.8939 157.081C87.8939 157.242 87.8877 157.398 87.8753 157.547C87.8628 157.696 87.8442 157.845 87.8193 157.994L89.4416 159.411L88.0058 161.891L85.9546 161.202C85.7184 161.4 85.4667 161.574 85.1994 161.724C84.9321 161.873 84.6555 162.003 84.3696 162.115L83.9594 164.241H81.0877ZM82.1879 162.898H82.8592L83.2135 161.052C83.6859 160.965 84.1272 160.804 84.5374 160.568C84.9477 160.331 85.302 160.033 85.6003 159.672L87.3904 160.269L87.7261 159.71L86.3089 158.46C86.3835 158.249 86.4426 158.028 86.4861 157.798C86.5296 157.568 86.5513 157.329 86.5513 157.081C86.5513 156.832 86.5296 156.593 86.4861 156.363C86.4426 156.133 86.3835 155.912 86.3089 155.701L87.7261 154.451L87.3904 153.892L85.6003 154.489C85.302 154.128 84.9477 153.83 84.5374 153.594C84.1272 153.357 83.6859 153.196 83.2135 153.109L82.8592 151.263H82.1879L81.8336 153.109C81.3612 153.196 80.9199 153.357 80.5097 153.594C80.0994 153.83 79.7451 154.128 79.4468 154.489L77.6567 153.892L77.321 154.451L78.7382 155.701C78.6636 155.912 78.6045 156.133 78.561 156.363C78.5175 156.593 78.4958 156.832 78.4958 157.081C78.4958 157.329 78.5175 157.568 78.561 157.798C78.6045 158.028 78.6636 158.249 78.7382 158.46L77.321 159.71L77.6567 160.269L79.4468 159.672C79.7451 160.033 80.0994 160.331 80.5097 160.568C80.9199 160.804 81.3612 160.965 81.8336 161.052L82.1879 162.898ZM82.5236 159.766C83.2694 159.766 83.9034 159.505 84.4256 158.983C84.9477 158.46 85.2087 157.826 85.2087 157.081C85.2087 156.335 84.9477 155.701 84.4256 155.179C83.9034 154.656 83.2694 154.395 82.5236 154.395C81.7777 154.395 81.1437 154.656 80.6215 155.179C80.0994 155.701 79.8384 156.335 79.8384 157.081C79.8384 157.826 80.0994 158.46 80.6215 158.983C81.1437 159.505 81.7777 159.766 82.5236 159.766Z" fill="#3BC0FE"/>
</g>
<mask id="mask3_248_913" style="mask-type:alpha" maskUnits="userSpaceOnUse" x="73" y="183" width="19" height="18">
<rect x="73.5742" y="183.037" width="17.9012" height="17.9012" fill="#D9D9D9"/>
</mask>
<g mask="url(#mask3_248_913)">
<path d="M77.9925 195.624C78.6638 195.152 79.3817 194.8 80.1463 194.571C80.9108 194.341 81.7033 194.226 82.5238 194.226C83.3442 194.226 84.1368 194.341 84.9013 194.571C85.6658 194.8 86.3837 195.152 87.055 195.624C87.4901 195.114 87.8133 194.549 88.0247 193.927C88.236 193.306 88.3417 192.659 88.3417 191.988C88.3417 190.376 87.7746 189.003 86.6405 187.87C85.5064 186.737 84.1327 186.17 82.5195 186.17C80.9063 186.17 79.534 186.737 78.4028 187.87C77.2715 189.003 76.7059 190.376 76.7059 191.988C76.7059 192.659 76.8115 193.306 77.0229 193.927C77.2342 194.549 77.5574 195.114 77.9925 195.624ZM82.5238 193.33C81.7779 193.33 81.1439 193.069 80.6218 192.547C80.0996 192.025 79.8386 191.391 79.8386 190.645C79.8386 189.899 80.0996 189.265 80.6218 188.743C81.1439 188.221 81.7779 187.96 82.5238 187.96C83.2697 187.96 83.9037 188.221 84.4258 188.743C84.9479 189.265 85.209 189.899 85.209 190.645C85.209 191.391 84.9479 192.025 84.4258 192.547C83.9037 193.069 83.2697 193.33 82.5238 193.33ZM82.5289 199.148C81.5434 199.148 80.6156 198.962 79.7454 198.589C78.8752 198.216 78.1137 197.703 77.4611 197.051C76.8084 196.398 76.2956 195.637 75.9227 194.767C75.5498 193.897 75.3633 192.968 75.3633 191.979C75.3633 190.991 75.5498 190.064 75.9227 189.2C76.2956 188.336 76.8084 187.578 77.4611 186.925C78.1137 186.273 78.8749 185.76 79.7446 185.387C80.6143 185.014 81.5435 184.827 82.5323 184.827C83.5211 184.827 84.4475 185.014 85.3115 185.387C86.1755 185.76 86.9338 186.273 87.5865 186.925C88.2391 187.578 88.7519 188.338 89.1249 189.204C89.4978 190.071 89.6843 190.997 89.6843 191.983C89.6843 192.968 89.4978 193.896 89.1249 194.766C88.7519 195.637 88.2391 196.398 87.5865 197.051C86.9338 197.703 86.1741 198.216 85.3073 198.589C84.4406 198.962 83.5144 199.148 82.5289 199.148ZM82.5238 197.806C83.1702 197.806 83.7918 197.703 84.3885 197.498C84.9852 197.293 85.5446 196.992 86.0667 196.594C85.5322 196.258 84.9665 196.003 84.3698 195.829C83.7731 195.655 83.1578 195.568 82.5238 195.568C81.8898 195.568 81.2713 195.652 80.6684 195.82C80.0655 195.988 79.5029 196.246 78.9808 196.594C79.5029 196.992 80.0624 197.293 80.6591 197.498C81.2558 197.703 81.8773 197.806 82.5238 197.806ZM82.5238 191.988C82.8967 191.988 83.2137 191.857 83.4748 191.596C83.7358 191.335 83.8664 191.018 83.8664 190.645C83.8664 190.272 83.7358 189.955 83.4748 189.694C83.2137 189.433 82.8967 189.303 82.5238 189.303C82.1508 189.303 81.8338 189.433 81.5728 189.694C81.3117 189.955 81.1812 190.272 81.1812 190.645C81.1812 191.018 81.3117 191.335 81.5728 191.596C81.8338 191.857 82.1508 191.988 82.5238 191.988Z" fill="#0BCE64"/>
</g>
<mask id="mask4_248_913" style="mask-type:alpha" maskUnits="userSpaceOnUse" x="73" y="217" width="19" height="19">
<rect x="73.5742" y="217.945" width="17.9012" height="17.9012" fill="#D9D9D9"/>
</mask>
<g mask="url(#mask4_248_913)">
<path d="M77.1551 231.818H79.8403V226H77.1551V231.818ZM81.1829 231.818H83.8681V221.973H81.1829V231.818ZM85.2106 231.818H87.8958V227.343H85.2106V231.818ZM75.8125 233.161V224.658H79.8403V220.63H85.2106V226H89.2384V233.161H75.8125Z" fill="#FD7F45"/>
</g>
<mask id="mask5_248_913" style="mask-type:alpha" maskUnits="userSpaceOnUse" x="73" y="252" width="19" height="19">
<rect x="73.5742" y="252.852" width="17.9012" height="17.9012" fill="#D9D9D9"/>
</mask>
<g mask="url(#mask5_248_913)">
<path d="M80.1369 266.185L82.5238 264.768L84.9293 266.185L84.2953 263.5L86.3651 261.728L83.624 261.486L82.5238 258.931L81.4236 261.486L78.6825 261.728L80.7709 263.5L80.1369 266.185ZM78.1044 268.963L79.2792 264.003L75.3633 260.665L80.5099 260.218L82.5238 255.537L84.5377 260.237L89.6843 260.665L85.7684 264.003L86.9431 268.963L82.5238 266.334L78.1044 268.963Z" fill="#F4BE50"/>
</g>
<path d="M128.629 36.3882V25.9729H132.535C133.335 25.9729 134.006 26.1221 134.548 26.4205C135.094 26.7188 135.506 27.129 135.784 27.6512C136.066 28.1699 136.206 28.7598 136.206 29.4209C136.206 30.0888 136.066 30.6822 135.784 31.2009C135.503 31.7196 135.088 32.1282 134.538 32.4265C133.989 32.7215 133.313 32.869 132.509 32.869H129.921V31.3179H132.255C132.723 31.3179 133.106 31.2365 133.404 31.0738C133.703 30.911 133.923 30.6873 134.065 30.4025C134.211 30.1177 134.284 29.7905 134.284 29.4209C134.284 29.0514 134.211 28.7259 134.065 28.4445C133.923 28.1631 133.701 27.9444 133.399 27.7885C133.101 27.6291 132.716 27.5494 132.245 27.5494H130.516V36.3882H128.629ZM137.764 36.3882V28.5767H139.549V29.8786H139.63C139.773 29.4277 140.017 29.0802 140.363 28.8361C140.712 28.5886 141.11 28.4649 141.558 28.4649C141.659 28.4649 141.773 28.4699 141.898 28.4801C142.027 28.4869 142.134 28.4988 142.219 28.5157V30.2092C142.141 30.1821 142.017 30.1584 141.848 30.138C141.681 30.1143 141.52 30.1024 141.364 30.1024C141.029 30.1024 140.727 30.1753 140.459 30.3211C140.195 30.4635 139.986 30.6618 139.834 30.9161C139.681 31.1704 139.605 31.4636 139.605 31.7959V36.3882H137.764ZM146.528 36.5408C145.765 36.5408 145.104 36.3729 144.544 36.0373C143.985 35.7016 143.551 35.2321 143.242 34.6286C142.937 34.0251 142.785 33.3199 142.785 32.513C142.785 31.7061 142.937 30.9992 143.242 30.3923C143.551 29.7854 143.985 29.3141 144.544 28.9785C145.104 28.6428 145.765 28.475 146.528 28.475C147.29 28.475 147.952 28.6428 148.511 28.9785C149.07 29.3141 149.503 29.7854 149.808 30.3923C150.116 30.9992 150.271 31.7061 150.271 32.513C150.271 33.3199 150.116 34.0251 149.808 34.6286C149.503 35.2321 149.07 35.7016 148.511 36.0373C147.952 36.3729 147.29 36.5408 146.528 36.5408ZM146.538 35.0659C146.951 35.0659 147.297 34.9524 147.575 34.7252C147.853 34.4947 148.06 34.1861 148.196 33.7996C148.335 33.4131 148.404 32.9825 148.404 32.5079C148.404 32.0298 148.335 31.5976 148.196 31.2111C148.06 30.8212 147.853 30.511 147.575 30.2804C147.297 30.0499 146.951 29.9346 146.538 29.9346C146.114 29.9346 145.761 30.0499 145.48 30.2804C145.202 30.511 144.993 30.8212 144.854 31.2111C144.719 31.5976 144.651 32.0298 144.651 32.5079C144.651 32.9825 144.719 33.4131 144.854 33.7996C144.993 34.1861 145.202 34.4947 145.48 34.7252C145.761 34.9524 146.114 35.0659 146.538 35.0659ZM155.79 28.5767V30.0007H151.172V28.5767H155.79ZM152.326 36.3882V27.8393C152.326 27.3138 152.435 26.8765 152.652 26.5272C152.872 26.178 153.167 25.917 153.537 25.7441C153.906 25.5712 154.317 25.4847 154.767 25.4847C155.086 25.4847 155.369 25.5101 155.617 25.561C155.864 25.6118 156.047 25.6576 156.166 25.6983L155.8 27.1223C155.722 27.0985 155.624 27.0748 155.505 27.0511C155.386 27.0239 155.254 27.0104 155.108 27.0104C154.766 27.0104 154.523 27.0934 154.381 27.2596C154.242 27.4223 154.172 27.6562 154.172 27.9614V36.3882H152.326ZM157.231 36.3882V28.5767H159.072V36.3882H157.231ZM158.157 27.4681C157.865 27.4681 157.615 27.3715 157.404 27.1782C157.194 26.9816 157.089 26.7459 157.089 26.4713C157.089 26.1933 157.194 25.9577 157.404 25.7644C157.615 25.5678 157.865 25.4694 158.157 25.4694C158.452 25.4694 158.703 25.5678 158.91 25.7644C159.12 25.9577 159.225 26.1933 159.225 26.4713C159.225 26.7459 159.12 26.9816 158.91 27.1782C158.703 27.3715 158.452 27.4681 158.157 27.4681ZM162.806 25.9729V36.3882H160.965V25.9729H162.806ZM168.158 36.5408C167.375 36.5408 166.698 36.378 166.129 36.0525C165.562 35.7237 165.127 35.2592 164.822 34.6591C164.516 34.0556 164.364 33.3453 164.364 32.5282C164.364 31.7247 164.516 31.0195 164.822 30.4126C165.13 29.8024 165.561 29.3277 166.113 28.9887C166.666 28.6462 167.315 28.475 168.061 28.475C168.543 28.475 168.997 28.553 169.424 28.709C169.855 28.8615 170.234 29.0989 170.563 29.4209C170.896 29.743 171.157 30.1533 171.346 30.6517C171.536 31.1466 171.631 31.7366 171.631 32.4214V32.9859H165.228V31.7451H169.867C169.863 31.3925 169.787 31.0788 169.638 30.8042C169.488 30.5262 169.28 30.3075 169.012 30.1482C168.748 29.9888 168.439 29.9092 168.087 29.9092C167.71 29.9092 167.38 30.0007 167.095 30.1838C166.81 30.3635 166.588 30.6008 166.429 30.8958C166.273 31.1873 166.193 31.5077 166.19 31.8569V32.9402C166.19 33.3945 166.273 33.7844 166.439 34.1098C166.605 34.4319 166.837 34.6794 167.136 34.8523C167.434 35.0219 167.783 35.1066 168.183 35.1066C168.451 35.1066 168.693 35.0693 168.91 34.9947C169.127 34.9168 169.316 34.8032 169.475 34.654C169.634 34.5048 169.755 34.32 169.836 34.0997L171.555 34.2929C171.446 34.7472 171.24 35.1439 170.934 35.483C170.633 35.8186 170.246 36.0797 169.775 36.2661C169.304 36.4492 168.765 36.5408 168.158 36.5408Z" fill="#383838"/>
<rect x="127.602" y="51.9182" width="432" height="112" rx="10" fill="white"/>
<path d="M140.241 69.9182V64.1H142.371C142.784 64.1 143.126 64.1682 143.397 64.3046C143.668 64.439 143.871 64.6218 144.005 64.8529C144.139 65.082 144.207 65.3406 144.207 65.6284C144.207 65.8709 144.162 66.0754 144.073 66.2421C143.984 66.4068 143.865 66.5394 143.715 66.6398C143.567 66.7383 143.405 66.8103 143.227 66.8557V66.9125C143.42 66.922 143.608 66.9845 143.792 67.1C143.978 67.2137 144.131 67.3756 144.252 67.5858C144.373 67.7961 144.434 68.0517 144.434 68.3529C144.434 68.6502 144.364 68.9173 144.224 69.154C144.085 69.3889 143.871 69.5754 143.582 69.7137C143.292 69.85 142.922 69.9182 142.471 69.9182H140.241ZM141.119 69.1654H142.386C142.806 69.1654 143.107 69.0839 143.289 68.9211C143.471 68.7582 143.562 68.5546 143.562 68.3103C143.562 68.1265 143.515 67.958 143.423 67.8046C143.33 67.6512 143.197 67.529 143.025 67.4381C142.854 67.3472 142.652 67.3017 142.417 67.3017H141.119V69.1654ZM141.119 66.6171H142.295C142.492 66.6171 142.669 66.5792 142.826 66.5034C142.985 66.4277 143.111 66.3216 143.204 66.1853C143.299 66.047 143.346 65.8841 143.346 65.6966C143.346 65.4561 143.262 65.2544 143.093 65.0915C142.924 64.9286 142.666 64.8472 142.317 64.8472H141.119V66.6171ZM146.677 70.0148C146.4 70.0148 146.15 69.9637 145.927 69.8614C145.703 69.7572 145.526 69.6067 145.396 69.4097C145.267 69.2127 145.202 68.9712 145.202 68.6853C145.202 68.439 145.25 68.2364 145.344 68.0773C145.439 67.9182 145.567 67.7923 145.728 67.6995C145.889 67.6067 146.069 67.5366 146.268 67.4892C146.467 67.4419 146.669 67.4059 146.876 67.3813C147.137 67.351 147.349 67.3264 147.512 67.3074C147.675 67.2866 147.793 67.2534 147.867 67.208C147.941 67.1625 147.978 67.0887 147.978 66.9864V66.9665C147.978 66.7184 147.908 66.5262 147.768 66.3898C147.629 66.2534 147.423 66.1853 147.148 66.1853C146.862 66.1853 146.637 66.2487 146.472 66.3756C146.309 66.5006 146.197 66.6398 146.134 66.7932L145.336 66.6114C145.431 66.3462 145.569 66.1322 145.751 65.9693C145.934 65.8046 146.146 65.6853 146.384 65.6114C146.623 65.5356 146.874 65.4978 147.137 65.4978C147.311 65.4978 147.496 65.5186 147.691 65.5603C147.888 65.6 148.072 65.6739 148.242 65.7818C148.415 65.8898 148.556 66.0442 148.665 66.2449C148.775 66.4438 148.83 66.7023 148.83 67.0205V69.9182H148.001V69.3216H147.967C147.912 69.4315 147.829 69.5394 147.719 69.6455C147.61 69.7515 147.469 69.8396 147.296 69.9097C147.124 69.9798 146.917 70.0148 146.677 70.0148ZM146.862 69.333C147.096 69.333 147.297 69.2866 147.464 69.1938C147.632 69.101 147.76 68.9798 147.847 68.8301C147.936 68.6786 147.981 68.5167 147.981 68.3443V67.7818C147.951 67.8122 147.892 67.8406 147.805 67.8671C147.719 67.8917 147.622 67.9135 147.512 67.9324C147.402 67.9495 147.295 67.9656 147.191 67.9807C147.087 67.994 147 68.0053 146.93 68.0148C146.765 68.0356 146.614 68.0707 146.478 68.1199C146.344 68.1692 146.236 68.2402 146.154 68.333C146.075 68.4239 146.035 68.5451 146.035 68.6966C146.035 68.9068 146.112 69.0659 146.268 69.1739C146.423 69.28 146.621 69.333 146.862 69.333ZM153.232 66.6199L152.462 66.7563C152.429 66.6578 152.378 66.564 152.308 66.475C152.24 66.386 152.147 66.3131 152.03 66.2563C151.912 66.1995 151.766 66.1711 151.589 66.1711C151.349 66.1711 151.148 66.225 150.987 66.333C150.826 66.439 150.746 66.5764 150.746 66.7449C150.746 66.8908 150.8 67.0082 150.908 67.0972C151.016 67.1862 151.19 67.2591 151.43 67.3159L152.124 67.475C152.525 67.5678 152.824 67.7108 153.021 67.904C153.218 68.0972 153.317 68.3481 153.317 68.6568C153.317 68.9182 153.241 69.1512 153.089 69.3557C152.94 69.5584 152.731 69.7175 152.462 69.833C152.195 69.9485 151.885 70.0063 151.533 70.0063C151.044 70.0063 150.645 69.9021 150.337 69.6938C150.028 69.4836 149.839 69.1853 149.768 68.7989L150.589 68.6739C150.641 68.8879 150.746 69.0498 150.905 69.1597C151.064 69.2676 151.271 69.3216 151.527 69.3216C151.805 69.3216 152.028 69.2639 152.195 69.1483C152.361 69.0309 152.445 68.8879 152.445 68.7193C152.445 68.583 152.393 68.4684 152.291 68.3756C152.191 68.2828 152.036 68.2127 151.828 68.1654L151.089 68.0034C150.682 67.9106 150.381 67.7629 150.186 67.5603C149.993 67.3576 149.896 67.101 149.896 66.7904C149.896 66.5328 149.968 66.3074 150.112 66.1142C150.256 65.9211 150.455 65.7705 150.709 65.6625C150.963 65.5527 151.253 65.4978 151.581 65.4978C152.053 65.4978 152.424 65.6 152.695 65.8046C152.965 66.0072 153.144 66.279 153.232 66.6199ZM154.251 69.9182V65.5546H155.1V69.9182H154.251ZM154.68 64.8813C154.532 64.8813 154.405 64.832 154.299 64.7336C154.195 64.6332 154.143 64.5139 154.143 64.3756C154.143 64.2354 154.195 64.1161 154.299 64.0176C154.405 63.9173 154.532 63.8671 154.68 63.8671C154.827 63.8671 154.953 63.9173 155.058 64.0176C155.164 64.1161 155.217 64.2354 155.217 64.3756C155.217 64.5139 155.164 64.6332 155.058 64.7336C154.953 64.832 154.827 64.8813 154.68 64.8813ZM158.081 70.0063C157.659 70.0063 157.295 69.9106 156.99 69.7193C156.687 69.5262 156.454 69.2601 156.291 68.9211C156.128 68.582 156.047 68.1938 156.047 67.7563C156.047 67.3131 156.13 66.922 156.297 66.583C156.464 66.2421 156.698 65.976 157.001 65.7847C157.304 65.5934 157.661 65.4978 158.072 65.4978C158.404 65.4978 158.699 65.5593 158.959 65.6824C159.218 65.8036 159.428 65.9741 159.587 66.1938C159.748 66.4135 159.843 66.6701 159.874 66.9637H159.047C159.001 66.7591 158.897 66.583 158.734 66.4353C158.573 66.2875 158.357 66.2137 158.087 66.2137C157.85 66.2137 157.643 66.2762 157.464 66.4012C157.288 66.5243 157.151 66.7004 157.053 66.9296C156.954 67.1568 156.905 67.4258 156.905 67.7364C156.905 68.0546 156.953 68.3292 157.05 68.5603C157.146 68.7913 157.283 68.9703 157.459 69.0972C157.637 69.2241 157.846 69.2875 158.087 69.2875C158.248 69.2875 158.393 69.2582 158.524 69.1995C158.657 69.1389 158.768 69.0527 158.857 68.9409C158.947 68.8292 159.011 68.6947 159.047 68.5375H159.874C159.843 68.8197 159.751 69.0716 159.598 69.2932C159.445 69.5148 159.239 69.689 158.982 69.8159C158.726 69.9428 158.426 70.0063 158.081 70.0063ZM163.845 64.1V69.9182H162.967V64.1H163.845ZM165.905 67.3273V69.9182H165.055V65.5546H165.871V66.2648H165.925C166.025 66.0337 166.182 65.8481 166.396 65.708C166.612 65.5678 166.884 65.4978 167.212 65.4978C167.509 65.4978 167.769 65.5603 167.993 65.6853C168.216 65.8084 168.39 65.9921 168.513 66.2364C168.636 66.4807 168.697 66.7828 168.697 67.1426V69.9182H167.848V67.2449C167.848 66.9286 167.766 66.6815 167.601 66.5034C167.436 66.3235 167.21 66.2336 166.922 66.2336C166.725 66.2336 166.55 66.2762 166.396 66.3614C166.245 66.4466 166.125 66.5716 166.036 66.7364C165.948 66.8993 165.905 67.0962 165.905 67.3273ZM171.913 65.5546V66.2364H169.447V65.5546H171.913ZM170.124 69.9182V65.0489C170.124 64.7762 170.183 64.5498 170.303 64.3699C170.422 64.1881 170.58 64.0527 170.777 63.9637C170.974 63.8728 171.188 63.8273 171.419 63.8273C171.589 63.8273 171.735 63.8415 171.857 63.8699C171.978 63.8964 172.068 63.9211 172.126 63.9438L171.928 64.6313C171.888 64.6199 171.837 64.6067 171.774 64.5915C171.712 64.5745 171.636 64.5659 171.547 64.5659C171.34 64.5659 171.193 64.6171 171.104 64.7193C171.017 64.8216 170.973 64.9693 170.973 65.1625V69.9182H170.124ZM174.456 70.0063C174.047 70.0063 173.69 69.9125 173.385 69.725C173.08 69.5375 172.843 69.2752 172.675 68.9381C172.506 68.601 172.422 68.207 172.422 67.7563C172.422 67.3036 172.506 66.9078 172.675 66.5688C172.843 66.2298 173.08 65.9665 173.385 65.779C173.69 65.5915 174.047 65.4978 174.456 65.4978C174.865 65.4978 175.222 65.5915 175.527 65.779C175.832 65.9665 176.069 66.2298 176.237 66.5688C176.406 66.9078 176.49 67.3036 176.49 67.7563C176.49 68.207 176.406 68.601 176.237 68.9381C176.069 69.2752 175.832 69.5375 175.527 69.725C175.222 69.9125 174.865 70.0063 174.456 70.0063ZM174.459 69.2932C174.724 69.2932 174.944 69.2231 175.118 69.083C175.292 68.9428 175.421 68.7563 175.504 68.5233C175.589 68.2904 175.632 68.0337 175.632 67.7534C175.632 67.475 175.589 67.2193 175.504 66.9864C175.421 66.7515 175.292 66.5631 175.118 66.4211C174.944 66.279 174.724 66.208 174.459 66.208C174.192 66.208 173.97 66.279 173.794 66.4211C173.62 66.5631 173.49 66.7515 173.405 66.9864C173.321 67.2193 173.28 67.475 173.28 67.7534C173.28 68.0337 173.321 68.2904 173.405 68.5233C173.49 68.7563 173.62 68.9428 173.794 69.083C173.97 69.2231 174.192 69.2932 174.459 69.2932ZM177.438 69.9182V65.5546H178.259V66.2478H178.305C178.384 66.0129 178.524 65.8283 178.725 65.6938C178.928 65.5574 179.157 65.4892 179.413 65.4892C179.466 65.4892 179.528 65.4911 179.6 65.4949C179.674 65.4987 179.732 65.5034 179.773 65.5091V66.3216C179.739 66.3122 179.679 66.3017 179.592 66.2904C179.504 66.2771 179.417 66.2705 179.33 66.2705C179.129 66.2705 178.951 66.3131 178.793 66.3983C178.638 66.4817 178.515 66.5981 178.424 66.7478C178.333 66.8955 178.288 67.064 178.288 67.2534V69.9182H177.438ZM180.509 69.9182V65.5546H181.324V66.2648H181.378C181.469 66.0243 181.617 65.8368 181.824 65.7023C182.03 65.5659 182.277 65.4978 182.565 65.4978C182.857 65.4978 183.101 65.5659 183.298 65.7023C183.497 65.8387 183.644 66.0262 183.739 66.2648H183.784C183.888 66.0318 184.054 65.8462 184.281 65.708C184.509 65.5678 184.779 65.4978 185.094 65.4978C185.49 65.4978 185.812 65.6218 186.062 65.8699C186.314 66.118 186.44 66.4921 186.44 66.9921V69.9182H185.591V67.0716C185.591 66.7762 185.51 66.5622 185.349 66.4296C185.188 66.297 184.996 66.2307 184.773 66.2307C184.496 66.2307 184.281 66.3159 184.128 66.4864C183.974 66.655 183.898 66.8718 183.898 67.137V69.9182H183.051V67.0176C183.051 66.7809 182.977 66.5906 182.83 66.4466C182.682 66.3027 182.49 66.2307 182.253 66.2307C182.092 66.2307 181.943 66.2733 181.807 66.3586C181.672 66.4419 181.563 66.5584 181.48 66.708C181.399 66.8576 181.358 67.0309 181.358 67.2279V69.9182H180.509ZM188.849 70.0148C188.572 70.0148 188.322 69.9637 188.099 69.8614C187.875 69.7572 187.698 69.6067 187.567 69.4097C187.439 69.2127 187.374 68.9712 187.374 68.6853C187.374 68.439 187.422 68.2364 187.516 68.0773C187.611 67.9182 187.739 67.7923 187.9 67.6995C188.061 67.6067 188.241 67.5366 188.44 67.4892C188.638 67.4419 188.841 67.4059 189.048 67.3813C189.309 67.351 189.521 67.3264 189.684 67.3074C189.847 67.2866 189.965 67.2534 190.039 67.208C190.113 67.1625 190.15 67.0887 190.15 66.9864V66.9665C190.15 66.7184 190.08 66.5262 189.94 66.3898C189.801 66.2534 189.595 66.1853 189.32 66.1853C189.034 66.1853 188.809 66.2487 188.644 66.3756C188.481 66.5006 188.369 66.6398 188.306 66.7932L187.508 66.6114C187.603 66.3462 187.741 66.1322 187.923 65.9693C188.106 65.8046 188.317 65.6853 188.556 65.6114C188.795 65.5356 189.046 65.4978 189.309 65.4978C189.483 65.4978 189.668 65.5186 189.863 65.5603C190.06 65.6 190.244 65.6739 190.414 65.7818C190.586 65.8898 190.728 66.0442 190.837 66.2449C190.947 66.4438 191.002 66.7023 191.002 67.0205V69.9182H190.173V69.3216H190.138C190.084 69.4315 190.001 69.5394 189.891 69.6455C189.781 69.7515 189.64 69.8396 189.468 69.9097C189.296 69.9798 189.089 70.0148 188.849 70.0148ZM189.033 69.333C189.268 69.333 189.469 69.2866 189.636 69.1938C189.804 69.101 189.932 68.9798 190.019 68.8301C190.108 68.6786 190.153 68.5167 190.153 68.3443V67.7818C190.122 67.8122 190.064 67.8406 189.977 67.8671C189.891 67.8917 189.794 67.9135 189.684 67.9324C189.574 67.9495 189.467 67.9656 189.363 67.9807C189.259 67.994 189.172 68.0053 189.102 68.0148C188.937 68.0356 188.786 68.0707 188.65 68.1199C188.515 68.1692 188.407 68.2402 188.326 68.333C188.246 68.4239 188.207 68.5451 188.207 68.6966C188.207 68.9068 188.284 69.0659 188.44 69.1739C188.595 69.28 188.793 69.333 189.033 69.333ZM194.17 65.5546V66.2364H191.787V65.5546H194.17ZM192.426 64.5091H193.276V68.637C193.276 68.8017 193.3 68.9258 193.349 69.0091C193.399 69.0906 193.462 69.1464 193.54 69.1767C193.619 69.2051 193.705 69.2193 193.798 69.2193C193.866 69.2193 193.926 69.2146 193.977 69.2051C194.028 69.1957 194.068 69.1881 194.097 69.1824L194.25 69.8841C194.201 69.9031 194.131 69.922 194.04 69.9409C193.949 69.9618 193.835 69.9731 193.699 69.975C193.475 69.9788 193.267 69.939 193.074 69.8557C192.881 69.7724 192.724 69.6436 192.605 69.4693C192.486 69.2951 192.426 69.0764 192.426 68.8131V64.5091ZM195.11 69.9182V65.5546H195.96V69.9182H195.11ZM195.539 64.8813C195.391 64.8813 195.264 64.832 195.158 64.7336C195.054 64.6332 195.002 64.5139 195.002 64.3756C195.002 64.2354 195.054 64.1161 195.158 64.0176C195.264 63.9173 195.391 63.8671 195.539 63.8671C195.687 63.8671 195.813 63.9173 195.917 64.0176C196.023 64.1161 196.076 64.2354 196.076 64.3756C196.076 64.5139 196.023 64.6332 195.917 64.7336C195.813 64.832 195.687 64.8813 195.539 64.8813ZM198.94 70.0063C198.531 70.0063 198.174 69.9125 197.869 69.725C197.564 69.5375 197.328 69.2752 197.159 68.9381C196.991 68.601 196.906 68.207 196.906 67.7563C196.906 67.3036 196.991 66.9078 197.159 66.5688C197.328 66.2298 197.564 65.9665 197.869 65.779C198.174 65.5915 198.531 65.4978 198.94 65.4978C199.349 65.4978 199.706 65.5915 200.011 65.779C200.316 65.9665 200.553 66.2298 200.722 66.5688C200.89 66.9078 200.974 67.3036 200.974 67.7563C200.974 68.207 200.89 68.601 200.722 68.9381C200.553 69.2752 200.316 69.5375 200.011 69.725C199.706 69.9125 199.349 70.0063 198.94 70.0063ZM198.943 69.2932C199.208 69.2932 199.428 69.2231 199.602 69.083C199.777 68.9428 199.905 68.7563 199.989 68.5233C200.074 68.2904 200.116 68.0337 200.116 67.7534C200.116 67.475 200.074 67.2193 199.989 66.9864C199.905 66.7515 199.777 66.5631 199.602 66.4211C199.428 66.279 199.208 66.208 198.943 66.208C198.676 66.208 198.455 66.279 198.278 66.4211C198.104 66.5631 197.974 66.7515 197.889 66.9864C197.806 67.2193 197.764 67.475 197.764 67.7534C197.764 68.0337 197.806 68.2904 197.889 68.5233C197.974 68.7563 198.104 68.9428 198.278 69.083C198.455 69.2231 198.676 69.2932 198.943 69.2932ZM202.772 67.3273V69.9182H201.923V65.5546H202.738V66.2648H202.792C202.892 66.0337 203.049 65.8481 203.263 65.708C203.479 65.5678 203.751 65.4978 204.079 65.4978C204.376 65.4978 204.637 65.5603 204.86 65.6853C205.084 65.8084 205.257 65.9921 205.38 66.2364C205.503 66.4807 205.565 66.7828 205.565 67.1426V69.9182H204.715V67.2449C204.715 66.9286 204.633 66.6815 204.468 66.5034C204.303 66.3235 204.077 66.2336 203.789 66.2336C203.592 66.2336 203.417 66.2762 203.263 66.3614C203.112 66.4466 202.992 66.5716 202.903 66.7364C202.816 66.8993 202.772 67.0962 202.772 67.3273Z" fill="#1D2B36"/>
<path d="M140.306 89.9182V84.1H143.795V84.725H141.011V86.6909H143.533V87.3159H141.011V89.9182H140.306ZM144.911 89.9182V85.5546H145.581V89.9182H144.911ZM145.251 84.8273C145.121 84.8273 145.008 84.7828 144.913 84.6938C144.821 84.6048 144.774 84.4978 144.774 84.3728C144.774 84.2478 144.821 84.1408 144.913 84.0517C145.008 83.9627 145.121 83.9182 145.251 83.9182C145.382 83.9182 145.494 83.9627 145.587 84.0517C145.681 84.1408 145.729 84.2478 145.729 84.3728C145.729 84.4978 145.681 84.6048 145.587 84.6938C145.494 84.7828 145.382 84.8273 145.251 84.8273ZM146.809 89.9182V85.5546H147.457V86.2137H147.502C147.582 85.9978 147.726 85.8226 147.934 85.6881C148.142 85.5536 148.377 85.4864 148.638 85.4864C148.688 85.4864 148.749 85.4873 148.823 85.4892C148.897 85.4911 148.953 85.494 148.991 85.4978V86.1796C148.968 86.1739 148.916 86.1654 148.835 86.154C148.755 86.1408 148.671 86.1341 148.582 86.1341C148.37 86.1341 148.18 86.1786 148.013 86.2676C147.849 86.3548 147.718 86.476 147.621 86.6313C147.527 86.7847 147.479 86.9599 147.479 87.1568V89.9182H146.809ZM152.876 86.5318L152.274 86.7023C152.236 86.6019 152.18 86.5044 152.107 86.4097C152.035 86.3131 151.936 86.2336 151.811 86.1711C151.686 86.1086 151.526 86.0773 151.331 86.0773C151.064 86.0773 150.841 86.1389 150.663 86.262C150.487 86.3832 150.399 86.5375 150.399 86.725C150.399 86.8917 150.46 87.0233 150.581 87.1199C150.702 87.2165 150.892 87.297 151.149 87.3614L151.797 87.5205C152.187 87.6152 152.478 87.7601 152.669 87.9551C152.86 88.1483 152.956 88.3974 152.956 88.7023C152.956 88.9523 152.884 89.1758 152.74 89.3728C152.598 89.5697 152.399 89.725 152.143 89.8387C151.888 89.9523 151.59 90.0091 151.251 90.0091C150.806 90.0091 150.438 89.9125 150.146 89.7193C149.855 89.5262 149.67 89.244 149.592 88.8728L150.229 88.7137C150.289 88.9485 150.404 89.1247 150.572 89.2421C150.743 89.3595 150.965 89.4182 151.24 89.4182C151.553 89.4182 151.801 89.3519 151.984 89.2193C152.17 89.0849 152.263 88.9239 152.263 88.7364C152.263 88.5849 152.21 88.458 152.104 88.3557C151.998 88.2515 151.835 88.1739 151.615 88.1228L150.888 87.9523C150.488 87.8576 150.195 87.7108 150.007 87.512C149.821 87.3112 149.729 87.0603 149.729 86.7591C149.729 86.5129 149.798 86.2951 149.936 86.1057C150.076 85.9163 150.267 85.7676 150.507 85.6597C150.75 85.5517 151.024 85.4978 151.331 85.4978C151.763 85.4978 152.102 85.5925 152.348 85.7818C152.596 85.9712 152.772 86.2212 152.876 86.5318ZM155.863 85.5546V86.1228H153.602V85.5546H155.863ZM154.261 84.5091H154.931V88.6682C154.931 88.8576 154.959 88.9997 155.013 89.0943C155.07 89.1872 155.142 89.2497 155.229 89.2818C155.318 89.3122 155.412 89.3273 155.511 89.3273C155.585 89.3273 155.645 89.3235 155.692 89.3159C155.74 89.3065 155.778 89.2989 155.806 89.2932L155.942 89.8955C155.897 89.9125 155.834 89.9296 155.752 89.9466C155.671 89.9656 155.567 89.975 155.442 89.975C155.253 89.975 155.067 89.9343 154.886 89.8529C154.706 89.7714 154.556 89.6474 154.437 89.4807C154.319 89.314 154.261 89.1038 154.261 88.85V84.5091ZM163.826 84.1V89.9182H163.144L159.974 85.35H159.917V89.9182H159.212V84.1H159.894L163.076 88.6796H163.133V84.1H163.826ZM166.429 90.0205C166.152 90.0205 165.902 89.9684 165.676 89.8642C165.451 89.7582 165.272 89.6057 165.139 89.4068C165.007 89.2061 164.94 88.9637 164.94 88.6796C164.94 88.4296 164.99 88.2269 165.088 88.0716C165.187 87.9144 165.318 87.7913 165.483 87.7023C165.648 87.6133 165.83 87.547 166.028 87.5034C166.229 87.458 166.431 87.422 166.634 87.3955C166.899 87.3614 167.114 87.3358 167.278 87.3188C167.445 87.2998 167.566 87.2686 167.642 87.225C167.72 87.1815 167.759 87.1057 167.759 86.9978V86.975C167.759 86.6947 167.682 86.4769 167.528 86.3216C167.377 86.1663 167.147 86.0887 166.838 86.0887C166.518 86.0887 166.267 86.1587 166.085 86.2989C165.903 86.439 165.776 86.5887 165.702 86.7478L165.065 86.5205C165.179 86.2553 165.33 86.0489 165.52 85.9012C165.711 85.7515 165.92 85.6474 166.145 85.5887C166.372 85.5281 166.596 85.4978 166.815 85.4978C166.955 85.4978 167.116 85.5148 167.298 85.5489C167.482 85.5811 167.659 85.6483 167.83 85.7506C168.002 85.8529 168.145 86.0072 168.259 86.2137C168.372 86.4201 168.429 86.6966 168.429 87.0432V89.9182H167.759V89.3273H167.724C167.679 89.422 167.603 89.5233 167.497 89.6313C167.391 89.7392 167.25 89.8311 167.074 89.9068C166.898 89.9826 166.683 90.0205 166.429 90.0205ZM166.531 89.4182C166.796 89.4182 167.02 89.3661 167.202 89.262C167.385 89.1578 167.524 89.0233 167.616 88.8586C167.711 88.6938 167.759 88.5205 167.759 88.3387V87.725C167.73 87.7591 167.668 87.7904 167.571 87.8188C167.476 87.8453 167.366 87.869 167.241 87.8898C167.118 87.9087 166.998 87.9258 166.881 87.9409C166.765 87.9542 166.671 87.9656 166.599 87.975C166.425 87.9978 166.262 88.0347 166.111 88.0858C165.961 88.1351 165.84 88.2099 165.747 88.3103C165.656 88.4087 165.611 88.5432 165.611 88.7137C165.611 88.9466 165.697 89.1228 165.869 89.2421C166.044 89.3595 166.264 89.4182 166.531 89.4182ZM169.653 89.9182V85.5546H170.3V86.2364H170.357C170.448 86.0034 170.595 85.8226 170.798 85.6938C171 85.5631 171.244 85.4978 171.528 85.4978C171.816 85.4978 172.055 85.5631 172.246 85.6938C172.44 85.8226 172.59 86.0034 172.698 86.2364H172.744C172.855 86.011 173.023 85.832 173.246 85.6995C173.47 85.565 173.738 85.4978 174.05 85.4978C174.441 85.4978 174.76 85.6199 175.008 85.8642C175.256 86.1067 175.38 86.4845 175.38 86.9978V89.9182H174.71V86.9978C174.71 86.6758 174.621 86.4457 174.445 86.3074C174.269 86.1692 174.062 86.1 173.823 86.1C173.516 86.1 173.279 86.1928 173.11 86.3784C172.942 86.5622 172.857 86.7951 172.857 87.0773V89.9182H172.175V86.9296C172.175 86.6815 172.095 86.4817 171.934 86.3301C171.773 86.1767 171.566 86.1 171.312 86.1C171.138 86.1 170.975 86.1464 170.823 86.2392C170.674 86.332 170.552 86.4608 170.46 86.6256C170.369 86.7885 170.323 86.9769 170.323 87.1909V89.9182H169.653ZM178.435 90.0091C178.015 90.0091 177.652 89.9163 177.347 89.7307C177.044 89.5432 176.81 89.2818 176.646 88.9466C176.483 88.6095 176.401 88.2175 176.401 87.7705C176.401 87.3235 176.483 86.9296 176.646 86.5887C176.81 86.2459 177.04 85.9788 177.333 85.7875C177.629 85.5943 177.973 85.4978 178.367 85.4978C178.594 85.4978 178.819 85.5356 179.04 85.6114C179.262 85.6872 179.464 85.8103 179.646 85.9807C179.827 86.1493 179.972 86.3728 180.08 86.6512C180.188 86.9296 180.242 87.2724 180.242 87.6796V87.9637H176.879V87.3841H179.56C179.56 87.1379 179.511 86.9182 179.413 86.725C179.316 86.5318 179.178 86.3794 178.998 86.2676C178.82 86.1559 178.61 86.1 178.367 86.1C178.1 86.1 177.869 86.1663 177.674 86.2989C177.481 86.4296 177.332 86.6 177.228 86.8103C177.124 87.0205 177.072 87.2459 177.072 87.4864V87.8728C177.072 88.2023 177.129 88.4817 177.242 88.7108C177.358 88.9381 177.518 89.1114 177.722 89.2307C177.927 89.3481 178.165 89.4068 178.435 89.4068C178.612 89.4068 178.771 89.3822 178.913 89.333C179.057 89.2818 179.181 89.2061 179.285 89.1057C179.389 89.0034 179.469 88.8765 179.526 88.725L180.174 88.9068C180.106 89.1265 179.991 89.3197 179.83 89.4864C179.669 89.6512 179.47 89.78 179.234 89.8728C178.997 89.9637 178.731 90.0091 178.435 90.0091Z" fill="#314351" fill-opacity="0.8"/>
<path d="M329.818 97.9182H141.385C140.4 97.9182 139.602 98.7142 139.602 99.696V112.14C139.602 113.122 140.4 113.918 141.385 113.918H329.818C330.803 113.918 331.602 113.122 331.602 112.14V99.696C331.602 98.7142 330.803 97.9182 329.818 97.9182Z" fill="#EDF1FF"/>
<path d="M349.306 89.9182V84.1H350.011V89.2932H352.715V89.9182H349.306ZM354.999 90.0205C354.723 90.0205 354.472 89.9684 354.246 89.8642C354.021 89.7582 353.842 89.6057 353.71 89.4068C353.577 89.2061 353.511 88.9637 353.511 88.6796C353.511 88.4296 353.56 88.2269 353.658 88.0716C353.757 87.9144 353.888 87.7913 354.053 87.7023C354.218 87.6133 354.4 87.547 354.599 87.5034C354.799 87.458 355.001 87.422 355.204 87.3955C355.469 87.3614 355.684 87.3358 355.849 87.3188C356.015 87.2998 356.137 87.2686 356.212 87.225C356.29 87.1815 356.329 87.1057 356.329 86.9978V86.975C356.329 86.6947 356.252 86.4769 356.099 86.3216C355.947 86.1663 355.717 86.0887 355.408 86.0887C355.088 86.0887 354.837 86.1587 354.656 86.2989C354.474 86.439 354.346 86.5887 354.272 86.7478L353.636 86.5205C353.749 86.2553 353.901 86.0489 354.09 85.9012C354.281 85.7515 354.49 85.6474 354.715 85.5887C354.942 85.5281 355.166 85.4978 355.386 85.4978C355.526 85.4978 355.687 85.5148 355.869 85.5489C356.052 85.5811 356.229 85.6483 356.4 85.7506C356.572 85.8529 356.715 86.0072 356.829 86.2137C356.942 86.4201 356.999 86.6966 356.999 87.0432V89.9182H356.329V89.3273H356.295C356.249 89.422 356.174 89.5233 356.067 89.6313C355.961 89.7392 355.82 89.8311 355.644 89.9068C355.468 89.9826 355.253 90.0205 354.999 90.0205ZM355.102 89.4182C355.367 89.4182 355.59 89.3661 355.772 89.262C355.956 89.1578 356.094 89.0233 356.187 88.8586C356.281 88.6938 356.329 88.5205 356.329 88.3387V87.725C356.3 87.7591 356.238 87.7904 356.141 87.8188C356.047 87.8453 355.937 87.869 355.812 87.8898C355.689 87.9087 355.568 87.9258 355.451 87.9409C355.335 87.9542 355.242 87.9656 355.17 87.975C354.996 87.9978 354.833 88.0347 354.681 88.0858C354.531 88.1351 354.41 88.2099 354.317 88.3103C354.227 88.4087 354.181 88.5432 354.181 88.7137C354.181 88.9466 354.267 89.1228 354.44 89.2421C354.614 89.3595 354.835 89.4182 355.102 89.4182ZM361.314 86.5318L360.712 86.7023C360.674 86.6019 360.618 86.5044 360.544 86.4097C360.472 86.3131 360.374 86.2336 360.249 86.1711C360.124 86.1086 359.964 86.0773 359.768 86.0773C359.501 86.0773 359.279 86.1389 359.101 86.262C358.925 86.3832 358.837 86.5375 358.837 86.725C358.837 86.8917 358.897 87.0233 359.018 87.1199C359.14 87.2165 359.329 87.297 359.587 87.3614L360.234 87.5205C360.625 87.6152 360.915 87.7601 361.107 87.9551C361.298 88.1483 361.393 88.3974 361.393 88.7023C361.393 88.9523 361.321 89.1758 361.178 89.3728C361.036 89.5697 360.837 89.725 360.581 89.8387C360.325 89.9523 360.028 90.0091 359.689 90.0091C359.244 90.0091 358.875 89.9125 358.584 89.7193C358.292 89.5262 358.107 89.244 358.03 88.8728L358.666 88.7137C358.727 88.9485 358.841 89.1247 359.01 89.2421C359.18 89.3595 359.403 89.4182 359.678 89.4182C359.99 89.4182 360.238 89.3519 360.422 89.2193C360.607 89.0849 360.7 88.9239 360.7 88.7364C360.7 88.5849 360.647 88.458 360.541 88.3557C360.435 88.2515 360.272 88.1739 360.053 88.1228L359.325 87.9523C358.926 87.8576 358.632 87.7108 358.445 87.512C358.259 87.3112 358.166 87.0603 358.166 86.7591C358.166 86.5129 358.235 86.2951 358.374 86.1057C358.514 85.9163 358.704 85.7676 358.945 85.6597C359.187 85.5517 359.462 85.4978 359.768 85.4978C360.2 85.4978 360.539 85.5925 360.786 85.7818C361.034 85.9712 361.21 86.2212 361.314 86.5318ZM364.3 85.5546V86.1228H362.039V85.5546H364.3ZM362.698 84.5091H363.369V88.6682C363.369 88.8576 363.396 88.9997 363.451 89.0943C363.508 89.1872 363.58 89.2497 363.667 89.2818C363.756 89.3122 363.85 89.3273 363.948 89.3273C364.022 89.3273 364.083 89.3235 364.13 89.3159C364.177 89.3065 364.215 89.2989 364.244 89.2932L364.38 89.8955C364.335 89.9125 364.271 89.9296 364.19 89.9466C364.108 89.9656 364.005 89.975 363.88 89.975C363.691 89.975 363.505 89.9343 363.323 89.8529C363.143 89.7714 362.994 89.6474 362.874 89.4807C362.757 89.314 362.698 89.1038 362.698 88.85V84.5091ZM372.263 84.1V89.9182H371.582L368.411 85.35H368.354V89.9182H367.65V84.1H368.332L371.513 88.6796H371.57V84.1H372.263ZM374.866 90.0205C374.59 90.0205 374.339 89.9684 374.114 89.8642C373.888 89.7582 373.709 89.6057 373.577 89.4068C373.444 89.2061 373.378 88.9637 373.378 88.6796C373.378 88.4296 373.427 88.2269 373.526 88.0716C373.624 87.9144 373.756 87.7913 373.92 87.7023C374.085 87.6133 374.267 87.547 374.466 87.5034C374.667 87.458 374.868 87.422 375.071 87.3955C375.336 87.3614 375.551 87.3358 375.716 87.3188C375.883 87.2998 376.004 87.2686 376.08 87.225C376.157 87.1815 376.196 87.1057 376.196 86.9978V86.975C376.196 86.6947 376.119 86.4769 375.966 86.3216C375.814 86.1663 375.584 86.0887 375.276 86.0887C374.955 86.0887 374.705 86.1587 374.523 86.2989C374.341 86.439 374.213 86.5887 374.139 86.7478L373.503 86.5205C373.616 86.2553 373.768 86.0489 373.957 85.9012C374.149 85.7515 374.357 85.6474 374.582 85.5887C374.81 85.5281 375.033 85.4978 375.253 85.4978C375.393 85.4978 375.554 85.5148 375.736 85.5489C375.92 85.5811 376.097 85.6483 376.267 85.7506C376.439 85.8529 376.582 86.0072 376.696 86.2137C376.81 86.4201 376.866 86.6966 376.866 87.0432V89.9182H376.196V89.3273H376.162C376.116 89.422 376.041 89.5233 375.935 89.6313C375.829 89.7392 375.688 89.8311 375.511 89.9068C375.335 89.9826 375.12 90.0205 374.866 90.0205ZM374.969 89.4182C375.234 89.4182 375.457 89.3661 375.639 89.262C375.823 89.1578 375.961 89.0233 376.054 88.8586C376.149 88.6938 376.196 88.5205 376.196 88.3387V87.725C376.168 87.7591 376.105 87.7904 376.009 87.8188C375.914 87.8453 375.804 87.869 375.679 87.8898C375.556 87.9087 375.436 87.9258 375.318 87.9409C375.203 87.9542 375.109 87.9656 375.037 87.975C374.863 87.9978 374.7 88.0347 374.548 88.0858C374.399 88.1351 374.277 88.2099 374.185 88.3103C374.094 88.4087 374.048 88.5432 374.048 88.7137C374.048 88.9466 374.134 89.1228 374.307 89.2421C374.481 89.3595 374.702 89.4182 374.969 89.4182ZM378.09 89.9182V85.5546H378.738V86.2364H378.795C378.886 86.0034 379.032 85.8226 379.235 85.6938C379.438 85.5631 379.681 85.4978 379.965 85.4978C380.253 85.4978 380.493 85.5631 380.684 85.6938C380.877 85.8226 381.028 86.0034 381.136 86.2364H381.181C381.293 86.011 381.46 85.832 381.684 85.6995C381.907 85.565 382.175 85.4978 382.488 85.4978C382.878 85.4978 383.197 85.6199 383.445 85.8642C383.693 86.1067 383.817 86.4845 383.817 86.9978V89.9182H383.147V86.9978C383.147 86.6758 383.059 86.4457 382.883 86.3074C382.707 86.1692 382.499 86.1 382.261 86.1C381.954 86.1 381.716 86.1928 381.548 86.3784C381.379 86.5622 381.295 86.7951 381.295 87.0773V89.9182H380.613V86.9296C380.613 86.6815 380.532 86.4817 380.371 86.3301C380.21 86.1767 380.003 86.1 379.749 86.1C379.575 86.1 379.412 86.1464 379.261 86.2392C379.111 86.332 378.99 86.4608 378.897 86.6256C378.806 86.7885 378.761 86.9769 378.761 87.1909V89.9182H378.09ZM386.873 90.0091C386.452 90.0091 386.09 89.9163 385.785 89.7307C385.482 89.5432 385.248 89.2818 385.083 88.9466C384.92 88.6095 384.839 88.2175 384.839 87.7705C384.839 87.3235 384.92 86.9296 385.083 86.5887C385.248 86.2459 385.477 85.9788 385.771 85.7875C386.066 85.5943 386.411 85.4978 386.805 85.4978C387.032 85.4978 387.256 85.5356 387.478 85.6114C387.7 85.6872 387.901 85.8103 388.083 85.9807C388.265 86.1493 388.41 86.3728 388.518 86.6512C388.626 86.9296 388.68 87.2724 388.68 87.6796V87.9637H385.316V87.3841H387.998C387.998 87.1379 387.949 86.9182 387.85 86.725C387.754 86.5318 387.615 86.3794 387.435 86.2676C387.257 86.1559 387.047 86.1 386.805 86.1C386.538 86.1 386.307 86.1663 386.112 86.2989C385.918 86.4296 385.77 86.6 385.665 86.8103C385.561 87.0205 385.509 87.2459 385.509 87.4864V87.8728C385.509 88.2023 385.566 88.4817 385.68 88.7108C385.795 88.9381 385.955 89.1114 386.16 89.2307C386.364 89.3481 386.602 89.4068 386.873 89.4068C387.049 89.4068 387.208 89.3822 387.35 89.333C387.494 89.2818 387.618 89.2061 387.722 89.1057C387.826 89.0034 387.907 88.8765 387.964 88.725L388.612 88.9068C388.543 89.1265 388.429 89.3197 388.268 89.4864C388.107 89.6512 387.908 89.78 387.671 89.8728C387.434 89.9637 387.168 90.0091 386.873 90.0091Z" fill="#314351" fill-opacity="0.8"/>
<path d="M544.763 97.9182H350.441C349.425 97.9182 348.602 98.7142 348.602 99.696V112.14C348.602 113.122 349.425 113.918 350.441 113.918H544.763C545.778 113.918 546.602 113.122 546.602 112.14V99.696C546.602 98.7142 545.778 97.9182 544.763 97.9182Z" fill="#EDF1FF"/>
<path d="M140.306 129.918V124.1H143.817V124.725H141.011V126.691H143.636V127.316H141.011V129.293H143.863V129.918H140.306ZM144.996 129.918V125.555H145.644V126.236H145.701C145.792 126.003 145.939 125.823 146.141 125.694C146.344 125.563 146.587 125.498 146.871 125.498C147.159 125.498 147.399 125.563 147.59 125.694C147.783 125.823 147.934 126.003 148.042 126.236H148.087C148.199 126.011 148.367 125.832 148.59 125.699C148.814 125.565 149.082 125.498 149.394 125.498C149.784 125.498 150.103 125.62 150.352 125.864C150.6 126.107 150.724 126.485 150.724 126.998V129.918H150.053V126.998C150.053 126.676 149.965 126.446 149.789 126.307C149.613 126.169 149.406 126.1 149.167 126.1C148.86 126.1 148.622 126.193 148.454 126.378C148.285 126.562 148.201 126.795 148.201 127.077V129.918H147.519V126.93C147.519 126.681 147.439 126.482 147.278 126.33C147.117 126.177 146.909 126.1 146.656 126.1C146.481 126.1 146.318 126.146 146.167 126.239C146.017 126.332 145.896 126.461 145.803 126.626C145.712 126.788 145.667 126.977 145.667 127.191V129.918H144.996ZM153.234 130.02C152.957 130.02 152.706 129.968 152.481 129.864C152.255 129.758 152.076 129.606 151.944 129.407C151.811 129.206 151.745 128.964 151.745 128.68C151.745 128.43 151.794 128.227 151.893 128.072C151.991 127.914 152.123 127.791 152.288 127.702C152.452 127.613 152.634 127.547 152.833 127.503C153.034 127.458 153.236 127.422 153.438 127.395C153.703 127.361 153.918 127.336 154.083 127.319C154.25 127.3 154.371 127.269 154.447 127.225C154.524 127.181 154.563 127.106 154.563 126.998V126.975C154.563 126.695 154.487 126.477 154.333 126.322C154.182 126.166 153.951 126.089 153.643 126.089C153.323 126.089 153.072 126.159 152.89 126.299C152.708 126.439 152.58 126.589 152.506 126.748L151.87 126.52C151.984 126.255 152.135 126.049 152.325 125.901C152.516 125.752 152.724 125.647 152.95 125.589C153.177 125.528 153.4 125.498 153.62 125.498C153.76 125.498 153.921 125.515 154.103 125.549C154.287 125.581 154.464 125.648 154.634 125.751C154.807 125.853 154.95 126.007 155.063 126.214C155.177 126.42 155.234 126.697 155.234 127.043V129.918H154.563V129.327H154.529C154.484 129.422 154.408 129.523 154.302 129.631C154.196 129.739 154.055 129.831 153.879 129.907C153.702 129.983 153.487 130.02 153.234 130.02ZM153.336 129.418C153.601 129.418 153.825 129.366 154.006 129.262C154.19 129.158 154.328 129.023 154.421 128.859C154.516 128.694 154.563 128.52 154.563 128.339V127.725C154.535 127.759 154.472 127.79 154.376 127.819C154.281 127.845 154.171 127.869 154.046 127.89C153.923 127.909 153.803 127.926 153.685 127.941C153.57 127.954 153.476 127.966 153.404 127.975C153.23 127.998 153.067 128.035 152.915 128.086C152.766 128.135 152.645 128.21 152.552 128.31C152.461 128.409 152.415 128.543 152.415 128.714C152.415 128.947 152.502 129.123 152.674 129.242C152.848 129.36 153.069 129.418 153.336 129.418ZM156.457 129.918V125.555H157.128V129.918H156.457ZM156.798 124.827C156.668 124.827 156.555 124.783 156.46 124.694C156.367 124.605 156.321 124.498 156.321 124.373C156.321 124.248 156.367 124.141 156.46 124.052C156.555 123.963 156.668 123.918 156.798 123.918C156.929 123.918 157.041 123.963 157.134 124.052C157.228 124.141 157.276 124.248 157.276 124.373C157.276 124.498 157.228 124.605 157.134 124.694C157.041 124.783 156.929 124.827 156.798 124.827ZM159.026 124.1V129.918H158.356V124.1H159.026Z" fill="#314351" fill-opacity="0.8"/>
<path d="M329.818 137.918H141.385C140.4 137.918 139.602 138.714 139.602 139.696V152.14C139.602 153.122 140.4 153.918 141.385 153.918H329.818C330.803 153.918 331.602 153.122 331.602 152.14V139.696C331.602 138.714 330.803 137.918 329.818 137.918Z" fill="#EDF1FF"/>
<path d="M349.306 129.918V124.1H351.272C351.728 124.1 352.102 124.182 352.391 124.347C352.683 124.51 352.899 124.731 353.039 125.009C353.179 125.288 353.249 125.598 353.249 125.941C353.249 126.284 353.179 126.595 353.039 126.876C352.901 127.156 352.687 127.379 352.397 127.546C352.107 127.711 351.736 127.793 351.283 127.793H349.874V127.168H351.261C351.573 127.168 351.824 127.114 352.013 127.006C352.203 126.898 352.34 126.752 352.425 126.569C352.513 126.383 352.556 126.174 352.556 125.941C352.556 125.708 352.513 125.5 352.425 125.316C352.34 125.132 352.202 124.988 352.011 124.884C351.819 124.778 351.566 124.725 351.249 124.725H350.011V129.918H349.306ZM354.964 127.293V129.918H354.293V124.1H354.964V126.236H355.021C355.123 126.011 355.276 125.832 355.481 125.699C355.687 125.565 355.962 125.498 356.305 125.498C356.602 125.498 356.862 125.557 357.086 125.677C357.309 125.794 357.483 125.975 357.606 126.219C357.731 126.462 357.793 126.77 357.793 127.145V129.918H357.123V127.191C357.123 126.844 357.033 126.576 356.853 126.387C356.675 126.196 356.428 126.1 356.112 126.1C355.892 126.1 355.695 126.146 355.521 126.239C355.348 126.332 355.212 126.467 355.112 126.645C355.013 126.824 354.964 127.039 354.964 127.293ZM360.793 130.009C360.399 130.009 360.053 129.915 359.756 129.728C359.46 129.54 359.229 129.278 359.062 128.941C358.898 128.604 358.815 128.21 358.815 127.759C358.815 127.305 358.898 126.908 359.062 126.569C359.229 126.23 359.46 125.967 359.756 125.779C360.053 125.592 360.399 125.498 360.793 125.498C361.187 125.498 361.531 125.592 361.827 125.779C362.124 125.967 362.355 126.23 362.52 126.569C362.687 126.908 362.77 127.305 362.77 127.759C362.77 128.21 362.687 128.604 362.52 128.941C362.355 129.278 362.124 129.54 361.827 129.728C361.531 129.915 361.187 130.009 360.793 130.009ZM360.793 129.407C361.092 129.407 361.338 129.33 361.531 129.177C361.724 129.023 361.867 128.822 361.96 128.572C362.053 128.322 362.099 128.051 362.099 127.759C362.099 127.467 362.053 127.196 361.96 126.944C361.867 126.692 361.724 126.488 361.531 126.333C361.338 126.178 361.092 126.1 360.793 126.1C360.493 126.1 360.247 126.178 360.054 126.333C359.861 126.488 359.718 126.692 359.625 126.944C359.532 127.196 359.486 127.467 359.486 127.759C359.486 128.051 359.532 128.322 359.625 128.572C359.718 128.822 359.861 129.023 360.054 129.177C360.247 129.33 360.493 129.407 360.793 129.407ZM364.464 127.293V129.918H363.793V125.555H364.441V126.236H364.498C364.6 126.015 364.755 125.837 364.964 125.702C365.172 125.566 365.441 125.498 365.771 125.498C366.066 125.498 366.325 125.558 366.546 125.68C366.768 125.799 366.94 125.981 367.063 126.225C367.186 126.467 367.248 126.774 367.248 127.145V129.918H366.577V127.191C366.577 126.848 366.488 126.581 366.31 126.39C366.132 126.197 365.888 126.1 365.577 126.1C365.363 126.1 365.172 126.146 365.004 126.239C364.837 126.332 364.705 126.467 364.609 126.645C364.512 126.824 364.464 127.039 364.464 127.293ZM370.303 130.009C369.882 130.009 369.519 129.916 369.214 129.731C368.911 129.543 368.678 129.282 368.513 128.947C368.35 128.61 368.268 128.217 368.268 127.77C368.268 127.324 368.35 126.93 368.513 126.589C368.678 126.246 368.907 125.979 369.2 125.788C369.496 125.594 369.84 125.498 370.234 125.498C370.462 125.498 370.686 125.536 370.908 125.611C371.129 125.687 371.331 125.81 371.513 125.981C371.695 126.149 371.839 126.373 371.947 126.651C372.055 126.93 372.109 127.272 372.109 127.68V127.964H368.746V127.384H371.428C371.428 127.138 371.378 126.918 371.28 126.725C371.183 126.532 371.045 126.379 370.865 126.268C370.687 126.156 370.477 126.1 370.234 126.1C369.967 126.1 369.736 126.166 369.541 126.299C369.348 126.43 369.199 126.6 369.095 126.81C368.991 127.02 368.939 127.246 368.939 127.486V127.873C368.939 128.202 368.996 128.482 369.109 128.711C369.225 128.938 369.385 129.111 369.589 129.231C369.794 129.348 370.032 129.407 370.303 129.407C370.479 129.407 370.638 129.382 370.78 129.333C370.924 129.282 371.048 129.206 371.152 129.106C371.256 129.003 371.337 128.877 371.393 128.725L372.041 128.907C371.973 129.127 371.858 129.32 371.697 129.486C371.536 129.651 371.338 129.78 371.101 129.873C370.864 129.964 370.598 130.009 370.303 130.009Z" fill="#314351" fill-opacity="0.8"/>
<path d="M544.763 137.918H350.441C349.425 137.918 348.602 138.714 348.602 139.696V152.14C348.602 153.122 349.425 153.918 350.441 153.918H544.763C545.778 153.918 546.602 153.122 546.602 152.14V139.696C546.602 138.714 545.778 137.918 544.763 137.918Z" fill="#EDF1FF"/>
<rect x="127.602" y="177.918" width="432" height="112" rx="10" fill="white"/>
<path d="M145.073 191.992H144.187C144.153 191.803 144.089 191.636 143.996 191.492C143.904 191.348 143.79 191.226 143.656 191.126C143.521 191.025 143.371 190.949 143.204 190.898C143.039 190.847 142.864 190.822 142.678 190.822C142.343 190.822 142.043 190.906 141.778 191.074C141.514 191.243 141.306 191.49 141.153 191.816C141.001 192.142 140.925 192.539 140.925 193.009C140.925 193.483 141.001 193.882 141.153 194.208C141.306 194.534 141.515 194.78 141.781 194.947C142.046 195.113 142.344 195.197 142.675 195.197C142.859 195.197 143.033 195.172 143.198 195.123C143.365 195.072 143.515 194.997 143.65 194.898C143.784 194.8 143.898 194.68 143.991 194.538C144.085 194.394 144.151 194.229 144.187 194.043L145.073 194.046C145.026 194.332 144.934 194.595 144.798 194.836C144.663 195.074 144.49 195.281 144.278 195.455C144.067 195.627 143.827 195.761 143.556 195.856C143.285 195.95 142.99 195.998 142.67 195.998C142.166 195.998 141.717 195.878 141.323 195.64C140.929 195.399 140.619 195.056 140.391 194.609C140.166 194.162 140.053 193.628 140.053 193.009C140.053 192.388 140.167 191.855 140.394 191.41C140.621 190.963 140.932 190.62 141.326 190.381C141.72 190.141 142.168 190.02 142.67 190.02C142.978 190.02 143.266 190.065 143.533 190.154C143.802 190.241 144.044 190.37 144.258 190.54C144.472 190.709 144.649 190.915 144.789 191.16C144.929 191.402 145.024 191.68 145.073 191.992ZM147.893 196.006C147.484 196.006 147.127 195.913 146.822 195.725C146.518 195.538 146.281 195.275 146.112 194.938C145.944 194.601 145.859 194.207 145.859 193.756C145.859 193.304 145.944 192.908 146.112 192.569C146.281 192.23 146.518 191.967 146.822 191.779C147.127 191.592 147.484 191.498 147.893 191.498C148.303 191.498 148.66 191.592 148.964 191.779C149.269 191.967 149.506 192.23 149.675 192.569C149.843 192.908 149.928 193.304 149.928 193.756C149.928 194.207 149.843 194.601 149.675 194.938C149.506 195.275 149.269 195.538 148.964 195.725C148.66 195.913 148.303 196.006 147.893 196.006ZM147.896 195.293C148.161 195.293 148.381 195.223 148.555 195.083C148.73 194.943 148.858 194.756 148.942 194.523C149.027 194.29 149.07 194.034 149.07 193.753C149.07 193.475 149.027 193.219 148.942 192.986C148.858 192.752 148.73 192.563 148.555 192.421C148.381 192.279 148.161 192.208 147.896 192.208C147.629 192.208 147.408 192.279 147.232 192.421C147.057 192.563 146.928 192.752 146.842 192.986C146.759 193.219 146.717 193.475 146.717 193.753C146.717 194.034 146.759 194.29 146.842 194.523C146.928 194.756 147.057 194.943 147.232 195.083C147.408 195.223 147.629 195.293 147.896 195.293ZM151.725 193.327V195.918H150.876V191.555H151.691V192.265H151.745C151.845 192.034 152.003 191.848 152.217 191.708C152.433 191.568 152.704 191.498 153.032 191.498C153.329 191.498 153.59 191.56 153.813 191.685C154.037 191.808 154.21 191.992 154.333 192.236C154.456 192.481 154.518 192.783 154.518 193.143V195.918H153.668V193.245C153.668 192.929 153.586 192.681 153.421 192.503C153.256 192.324 153.03 192.234 152.742 192.234C152.545 192.234 152.37 192.276 152.217 192.361C152.065 192.447 151.945 192.572 151.856 192.736C151.769 192.899 151.725 193.096 151.725 193.327ZM157.694 191.555V192.236H155.31V191.555H157.694ZM155.95 190.509H156.799V194.637C156.799 194.802 156.824 194.926 156.873 195.009C156.922 195.091 156.986 195.146 157.063 195.177C157.143 195.205 157.229 195.219 157.322 195.219C157.39 195.219 157.45 195.215 157.501 195.205C157.552 195.196 157.592 195.188 157.62 195.182L157.773 195.884C157.724 195.903 157.654 195.922 157.563 195.941C157.472 195.962 157.359 195.973 157.222 195.975C156.999 195.979 156.79 195.939 156.597 195.856C156.404 195.772 156.248 195.644 156.129 195.469C156.009 195.295 155.95 195.076 155.95 194.813V190.509ZM159.903 196.015C159.627 196.015 159.377 195.964 159.153 195.861C158.93 195.757 158.753 195.607 158.622 195.41C158.493 195.213 158.429 194.971 158.429 194.685C158.429 194.439 158.476 194.236 158.571 194.077C158.666 193.918 158.794 193.792 158.955 193.699C159.116 193.607 159.295 193.537 159.494 193.489C159.693 193.442 159.896 193.406 160.102 193.381C160.364 193.351 160.576 193.326 160.739 193.307C160.902 193.287 161.02 193.253 161.094 193.208C161.168 193.163 161.205 193.089 161.205 192.986V192.967C161.205 192.718 161.134 192.526 160.994 192.39C160.856 192.253 160.65 192.185 160.375 192.185C160.089 192.185 159.864 192.249 159.699 192.376C159.536 192.501 159.423 192.64 159.361 192.793L158.562 192.611C158.657 192.346 158.795 192.132 158.977 191.969C159.161 191.805 159.372 191.685 159.611 191.611C159.849 191.536 160.1 191.498 160.364 191.498C160.538 191.498 160.723 191.519 160.918 191.56C161.115 191.6 161.298 191.674 161.469 191.782C161.641 191.89 161.782 192.044 161.892 192.245C162.002 192.444 162.057 192.702 162.057 193.02V195.918H161.227V195.322H161.193C161.138 195.431 161.056 195.539 160.946 195.645C160.836 195.752 160.695 195.84 160.523 195.91C160.35 195.98 160.144 196.015 159.903 196.015ZM160.088 195.333C160.323 195.333 160.524 195.287 160.69 195.194C160.859 195.101 160.987 194.98 161.074 194.83C161.163 194.679 161.207 194.517 161.207 194.344V193.782C161.177 193.812 161.118 193.841 161.031 193.867C160.946 193.892 160.848 193.913 160.739 193.932C160.629 193.949 160.522 193.966 160.418 193.981C160.313 193.994 160.226 194.005 160.156 194.015C159.991 194.036 159.841 194.071 159.705 194.12C159.57 194.169 159.462 194.24 159.381 194.333C159.301 194.424 159.261 194.545 159.261 194.697C159.261 194.907 159.339 195.066 159.494 195.174C159.65 195.28 159.848 195.333 160.088 195.333ZM165.026 196.006C164.604 196.006 164.24 195.911 163.935 195.719C163.632 195.526 163.399 195.26 163.237 194.921C163.074 194.582 162.992 194.194 162.992 193.756C162.992 193.313 163.076 192.922 163.242 192.583C163.409 192.242 163.644 191.976 163.947 191.785C164.25 191.593 164.607 191.498 165.018 191.498C165.349 191.498 165.645 191.559 165.904 191.682C166.164 191.804 166.373 191.974 166.532 192.194C166.693 192.413 166.789 192.67 166.819 192.964H165.992C165.947 192.759 165.843 192.583 165.68 192.435C165.519 192.288 165.303 192.214 165.032 192.214C164.795 192.214 164.588 192.276 164.41 192.401C164.234 192.524 164.096 192.7 163.998 192.93C163.899 193.157 163.85 193.426 163.85 193.736C163.85 194.055 163.898 194.329 163.995 194.56C164.092 194.791 164.228 194.97 164.404 195.097C164.582 195.224 164.791 195.288 165.032 195.288C165.193 195.288 165.339 195.258 165.469 195.199C165.602 195.139 165.713 195.053 165.802 194.941C165.893 194.829 165.956 194.695 165.992 194.538H166.819C166.789 194.82 166.697 195.072 166.543 195.293C166.39 195.515 166.184 195.689 165.927 195.816C165.671 195.943 165.371 196.006 165.026 196.006ZM169.764 191.555V192.236H167.381V191.555H169.764ZM168.02 190.509H168.869V194.637C168.869 194.802 168.894 194.926 168.943 195.009C168.992 195.091 169.056 195.146 169.134 195.177C169.213 195.205 169.299 195.219 169.392 195.219C169.46 195.219 169.52 195.215 169.571 195.205C169.622 195.196 169.662 195.188 169.69 195.182L169.844 195.884C169.795 195.903 169.724 195.922 169.634 195.941C169.543 195.962 169.429 195.973 169.293 195.975C169.069 195.979 168.861 195.939 168.668 195.856C168.474 195.772 168.318 195.644 168.199 195.469C168.08 195.295 168.02 195.076 168.02 194.813V190.509Z" fill="#1D2B36"/>
<path d="M144.988 211.918H144.283C144.242 211.716 144.169 211.538 144.065 211.384C143.962 211.231 143.837 211.102 143.69 210.998C143.544 210.892 143.382 210.812 143.204 210.759C143.026 210.706 142.84 210.68 142.647 210.68C142.295 210.68 141.976 210.769 141.69 210.947C141.406 211.125 141.179 211.387 141.011 211.734C140.844 212.08 140.761 212.505 140.761 213.009C140.761 213.513 140.844 213.938 141.011 214.285C141.179 214.631 141.406 214.894 141.69 215.072C141.976 215.25 142.295 215.339 142.647 215.339C142.84 215.339 143.026 215.312 143.204 215.259C143.382 215.206 143.544 215.127 143.69 215.023C143.837 214.917 143.962 214.788 144.065 214.634C144.169 214.479 144.242 214.301 144.283 214.1H144.988C144.935 214.397 144.838 214.663 144.698 214.898C144.558 215.133 144.384 215.333 144.175 215.498C143.967 215.661 143.733 215.785 143.474 215.87C143.216 215.955 142.941 215.998 142.647 215.998C142.151 215.998 141.71 215.877 141.323 215.634C140.937 215.392 140.633 215.047 140.411 214.6C140.19 214.153 140.079 213.623 140.079 213.009C140.079 212.395 140.19 211.865 140.411 211.418C140.633 210.971 140.937 210.627 141.323 210.384C141.71 210.142 142.151 210.02 142.647 210.02C142.941 210.02 143.216 210.063 143.474 210.148C143.733 210.234 143.967 210.359 144.175 210.523C144.384 210.686 144.558 210.885 144.698 211.12C144.838 211.353 144.935 211.619 144.988 211.918ZM146.036 215.918V211.555H146.706V215.918H146.036ZM146.376 210.827C146.246 210.827 146.133 210.783 146.038 210.694C145.946 210.605 145.899 210.498 145.899 210.373C145.899 210.248 145.946 210.141 146.038 210.052C146.133 209.963 146.246 209.918 146.376 209.918C146.507 209.918 146.619 209.963 146.712 210.052C146.806 210.141 146.854 210.248 146.854 210.373C146.854 210.498 146.806 210.605 146.712 210.694C146.619 210.783 146.507 210.827 146.376 210.827ZM149.832 211.555V212.123H147.57V211.555H149.832ZM148.229 210.509H148.9V214.668C148.9 214.858 148.927 215 148.982 215.094C149.039 215.187 149.111 215.25 149.198 215.282C149.287 215.312 149.381 215.327 149.479 215.327C149.553 215.327 149.614 215.324 149.661 215.316C149.709 215.306 149.746 215.299 149.775 215.293L149.911 215.895C149.866 215.913 149.802 215.93 149.721 215.947C149.639 215.966 149.536 215.975 149.411 215.975C149.222 215.975 149.036 215.934 148.854 215.853C148.674 215.771 148.525 215.647 148.406 215.481C148.288 215.314 148.229 215.104 148.229 214.85V210.509ZM151.272 217.555C151.158 217.555 151.057 217.545 150.968 217.526C150.879 217.509 150.817 217.492 150.783 217.475L150.954 216.884C151.117 216.926 151.261 216.941 151.386 216.93C151.511 216.918 151.621 216.862 151.718 216.762C151.817 216.663 151.906 216.503 151.988 216.282L152.113 215.941L150.499 211.555H151.227L152.431 215.032H152.477L153.681 211.555H154.408L152.556 216.555C152.473 216.78 152.37 216.967 152.246 217.114C152.123 217.264 151.98 217.375 151.817 217.447C151.656 217.519 151.475 217.555 151.272 217.555Z" fill="#314351" fill-opacity="0.8"/>
<path d="M329.818 223.918H141.385C140.4 223.918 139.602 224.714 139.602 225.696V238.14C139.602 239.122 140.4 239.918 141.385 239.918H329.818C330.803 239.918 331.602 239.122 331.602 238.14V225.696C331.602 224.714 330.803 223.918 329.818 223.918Z" fill="#EDF1FF"/>
<path d="M349.545 215.918H348.806L350.942 210.1H351.67L353.806 215.918H353.067L351.329 211.02H351.283L349.545 215.918ZM349.817 213.645H352.795V214.27H349.817V213.645ZM356.269 216.009C355.906 216.009 355.585 215.917 355.306 215.734C355.028 215.548 354.81 215.287 354.653 214.949C354.496 214.61 354.417 214.21 354.417 213.748C354.417 213.289 354.496 212.892 354.653 212.555C354.81 212.217 355.029 211.957 355.309 211.773C355.589 211.59 355.913 211.498 356.281 211.498C356.565 211.498 356.789 211.545 356.954 211.64C357.121 211.733 357.247 211.839 357.335 211.958C357.424 212.075 357.493 212.172 357.542 212.248H357.599V210.1H358.269V215.918H357.621V215.248H357.542C357.493 215.327 357.423 215.428 357.332 215.549C357.241 215.668 357.111 215.775 356.942 215.87C356.774 215.963 356.549 216.009 356.269 216.009ZM356.36 215.407C356.629 215.407 356.856 215.337 357.042 215.197C357.228 215.055 357.369 214.859 357.465 214.609C357.562 214.357 357.61 214.066 357.61 213.736C357.61 213.411 357.563 213.126 357.468 212.881C357.373 212.635 357.233 212.444 357.048 212.307C356.862 212.169 356.633 212.1 356.36 212.1C356.076 212.1 355.839 212.173 355.65 212.319C355.462 212.463 355.321 212.659 355.227 212.907C355.134 213.153 355.087 213.43 355.087 213.736C355.087 214.047 355.135 214.329 355.229 214.583C355.326 214.835 355.468 215.036 355.656 215.185C355.845 215.333 356.08 215.407 356.36 215.407ZM361.238 216.009C360.874 216.009 360.553 215.917 360.275 215.734C359.996 215.548 359.779 215.287 359.621 214.949C359.464 214.61 359.386 214.21 359.386 213.748C359.386 213.289 359.464 212.892 359.621 212.555C359.779 212.217 359.997 211.957 360.278 211.773C360.558 211.59 360.882 211.498 361.249 211.498C361.533 211.498 361.758 211.545 361.923 211.64C362.089 211.733 362.216 211.839 362.303 211.958C362.392 212.075 362.461 212.172 362.511 212.248H362.567V210.1H363.238V215.918H362.59V215.248H362.511C362.461 215.327 362.391 215.428 362.3 215.549C362.21 215.668 362.08 215.775 361.911 215.87C361.743 215.963 361.518 216.009 361.238 216.009ZM361.329 215.407C361.598 215.407 361.825 215.337 362.011 215.197C362.196 215.055 362.337 214.859 362.434 214.609C362.531 214.357 362.579 214.066 362.579 213.736C362.579 213.411 362.531 213.126 362.437 212.881C362.342 212.635 362.202 212.444 362.016 212.307C361.831 212.169 361.602 212.1 361.329 212.1C361.045 212.1 360.808 212.173 360.619 212.319C360.431 212.463 360.29 212.659 360.195 212.907C360.103 213.153 360.056 213.43 360.056 213.736C360.056 214.047 360.103 214.329 360.198 214.583C360.295 214.835 360.437 215.036 360.624 215.185C360.814 215.333 361.049 215.407 361.329 215.407ZM364.559 215.918V211.555H365.207V212.214H365.252C365.332 211.998 365.476 211.823 365.684 211.688C365.892 211.554 366.127 211.486 366.388 211.486C366.438 211.486 366.499 211.487 366.573 211.489C366.647 211.491 366.703 211.494 366.741 211.498V212.18C366.718 212.174 366.666 212.165 366.585 212.154C366.505 212.141 366.421 212.134 366.332 212.134C366.12 212.134 365.93 212.179 365.763 212.268C365.599 212.355 365.468 212.476 365.371 212.631C365.277 212.785 365.229 212.96 365.229 213.157V215.918H364.559ZM369.232 216.009C368.812 216.009 368.449 215.916 368.144 215.731C367.841 215.543 367.607 215.282 367.442 214.947C367.28 214.61 367.198 214.217 367.198 213.77C367.198 213.324 367.28 212.93 367.442 212.589C367.607 212.246 367.836 211.979 368.13 211.788C368.425 211.594 368.77 211.498 369.164 211.498C369.391 211.498 369.616 211.536 369.837 211.611C370.059 211.687 370.261 211.81 370.442 211.981C370.624 212.149 370.769 212.373 370.877 212.651C370.985 212.93 371.039 213.272 371.039 213.68V213.964H367.675V213.384H370.357C370.357 213.138 370.308 212.918 370.21 212.725C370.113 212.532 369.975 212.379 369.795 212.268C369.617 212.156 369.406 212.1 369.164 212.1C368.897 212.1 368.666 212.166 368.471 212.299C368.278 212.43 368.129 212.6 368.025 212.81C367.921 213.02 367.869 213.246 367.869 213.486V213.873C367.869 214.202 367.925 214.482 368.039 214.711C368.155 214.938 368.315 215.111 368.519 215.231C368.724 215.348 368.961 215.407 369.232 215.407C369.408 215.407 369.567 215.382 369.71 215.333C369.853 215.282 369.978 215.206 370.082 215.106C370.186 215.003 370.266 214.877 370.323 214.725L370.971 214.907C370.903 215.127 370.788 215.32 370.627 215.486C370.466 215.651 370.267 215.78 370.031 215.873C369.794 215.964 369.528 216.009 369.232 216.009ZM375.15 212.532L374.548 212.702C374.51 212.602 374.454 212.504 374.38 212.41C374.308 212.313 374.21 212.234 374.085 212.171C373.96 212.109 373.799 212.077 373.604 212.077C373.337 212.077 373.115 212.139 372.937 212.262C372.761 212.383 372.673 212.538 372.673 212.725C372.673 212.892 372.733 213.023 372.854 213.12C372.976 213.217 373.165 213.297 373.423 213.361L374.07 213.52C374.46 213.615 374.751 213.76 374.942 213.955C375.134 214.148 375.229 214.397 375.229 214.702C375.229 214.952 375.157 215.176 375.013 215.373C374.871 215.57 374.673 215.725 374.417 215.839C374.161 215.952 373.864 216.009 373.525 216.009C373.08 216.009 372.711 215.913 372.42 215.719C372.128 215.526 371.943 215.244 371.866 214.873L372.502 214.714C372.563 214.949 372.677 215.125 372.846 215.242C373.016 215.36 373.239 215.418 373.513 215.418C373.826 215.418 374.074 215.352 374.258 215.219C374.443 215.085 374.536 214.924 374.536 214.736C374.536 214.585 374.483 214.458 374.377 214.356C374.271 214.252 374.108 214.174 373.888 214.123L373.161 213.952C372.762 213.858 372.468 213.711 372.281 213.512C372.095 213.311 372.002 213.06 372.002 212.759C372.002 212.513 372.071 212.295 372.21 212.106C372.35 211.916 372.54 211.768 372.781 211.66C373.023 211.552 373.298 211.498 373.604 211.498C374.036 211.498 374.375 211.592 374.621 211.782C374.87 211.971 375.046 212.221 375.15 212.532ZM379.33 212.532L378.727 212.702C378.689 212.602 378.634 212.504 378.56 212.41C378.488 212.313 378.389 212.234 378.264 212.171C378.139 212.109 377.979 212.077 377.784 212.077C377.517 212.077 377.295 212.139 377.116 212.262C376.94 212.383 376.852 212.538 376.852 212.725C376.852 212.892 376.913 213.023 377.034 213.12C377.155 213.217 377.345 213.297 377.602 213.361L378.25 213.52C378.64 213.615 378.931 213.76 379.122 213.955C379.313 214.148 379.409 214.397 379.409 214.702C379.409 214.952 379.337 215.176 379.193 215.373C379.051 215.57 378.852 215.725 378.597 215.839C378.341 215.952 378.044 216.009 377.705 216.009C377.259 216.009 376.891 215.913 376.599 215.719C376.308 215.526 376.123 215.244 376.045 214.873L376.682 214.714C376.742 214.949 376.857 215.125 377.026 215.242C377.196 215.36 377.419 215.418 377.693 215.418C378.006 215.418 378.254 215.352 378.438 215.219C378.623 215.085 378.716 214.924 378.716 214.736C378.716 214.585 378.663 214.458 378.557 214.356C378.451 214.252 378.288 214.174 378.068 214.123L377.341 213.952C376.941 213.858 376.648 213.711 376.46 213.512C376.275 213.311 376.182 213.06 376.182 212.759C376.182 212.513 376.251 212.295 376.389 212.106C376.529 211.916 376.72 211.768 376.96 211.66C377.203 211.552 377.477 211.498 377.784 211.498C378.216 211.498 378.555 211.592 378.801 211.782C379.049 211.971 379.225 212.221 379.33 212.532Z" fill="#314351" fill-opacity="0.8"/>
<path d="M544.763 223.918H350.441C349.425 223.918 348.602 224.714 348.602 225.696V238.14C348.602 239.122 349.425 239.918 350.441 239.918H544.763C545.778 239.918 546.602 239.122 546.602 238.14V225.696C546.602 224.714 545.778 223.918 544.763 223.918Z" fill="#EDF1FF"/>
<path d="M140.545 255.918H139.806L141.942 250.1H142.67L144.806 255.918H144.067L142.329 251.02H142.283L140.545 255.918ZM140.817 253.645H143.795V254.27H140.817V253.645ZM145.621 257.555V251.555H146.269V252.248H146.349C146.398 252.172 146.466 252.075 146.553 251.958C146.642 251.839 146.769 251.733 146.934 251.64C147.101 251.545 147.326 251.498 147.61 251.498C147.978 251.498 148.301 251.59 148.582 251.773C148.862 251.957 149.081 252.217 149.238 252.555C149.395 252.892 149.474 253.289 149.474 253.748C149.474 254.21 149.395 254.61 149.238 254.949C149.081 255.287 148.863 255.548 148.585 255.734C148.306 255.917 147.985 256.009 147.621 256.009C147.341 256.009 147.117 255.963 146.948 255.87C146.78 255.775 146.65 255.668 146.559 255.549C146.468 255.428 146.398 255.327 146.349 255.248H146.292V257.555H145.621ZM146.281 253.736C146.281 254.066 146.329 254.357 146.425 254.609C146.522 254.859 146.663 255.055 146.849 255.197C147.034 255.337 147.262 255.407 147.531 255.407C147.811 255.407 148.045 255.333 148.232 255.185C148.422 255.036 148.564 254.835 148.658 254.583C148.755 254.329 148.803 254.047 148.803 253.736C148.803 253.43 148.756 253.153 148.661 252.907C148.568 252.659 148.427 252.463 148.238 252.319C148.05 252.173 147.815 252.1 147.531 252.1C147.258 252.1 147.029 252.169 146.843 252.307C146.657 252.444 146.517 252.635 146.423 252.881C146.328 253.126 146.281 253.411 146.281 253.736ZM151.781 256.02C151.504 256.02 151.253 255.968 151.028 255.864C150.802 255.758 150.623 255.606 150.491 255.407C150.358 255.206 150.292 254.964 150.292 254.68C150.292 254.43 150.341 254.227 150.44 254.072C150.538 253.914 150.67 253.791 150.835 253.702C150.999 253.613 151.181 253.547 151.38 253.503C151.581 253.458 151.782 253.422 151.985 253.395C152.25 253.361 152.465 253.336 152.63 253.319C152.797 253.3 152.918 253.269 152.994 253.225C153.071 253.181 153.11 253.106 153.11 252.998V252.975C153.11 252.695 153.033 252.477 152.88 252.322C152.728 252.166 152.498 252.089 152.19 252.089C151.87 252.089 151.619 252.159 151.437 252.299C151.255 252.439 151.127 252.589 151.053 252.748L150.417 252.52C150.531 252.255 150.682 252.049 150.871 251.901C151.063 251.752 151.271 251.647 151.496 251.589C151.724 251.528 151.947 251.498 152.167 251.498C152.307 251.498 152.468 251.515 152.65 251.549C152.834 251.581 153.011 251.648 153.181 251.751C153.353 251.853 153.496 252.007 153.61 252.214C153.724 252.42 153.781 252.697 153.781 253.043V255.918H153.11V255.327H153.076C153.031 255.422 152.955 255.523 152.849 255.631C152.743 255.739 152.602 255.831 152.425 255.907C152.249 255.983 152.034 256.02 151.781 256.02ZM151.883 255.418C152.148 255.418 152.371 255.366 152.553 255.262C152.737 255.158 152.875 255.023 152.968 254.859C153.063 254.694 153.11 254.52 153.11 254.339V253.725C153.082 253.759 153.019 253.79 152.923 253.819C152.828 253.845 152.718 253.869 152.593 253.89C152.47 253.909 152.35 253.926 152.232 253.941C152.117 253.954 152.023 253.966 151.951 253.975C151.777 253.998 151.614 254.035 151.462 254.086C151.313 254.135 151.192 254.21 151.099 254.31C151.008 254.409 150.962 254.543 150.962 254.714C150.962 254.947 151.049 255.123 151.221 255.242C151.395 255.36 151.616 255.418 151.883 255.418ZM155.004 255.918V251.555H155.652V252.214H155.697C155.777 251.998 155.921 251.823 156.129 251.688C156.338 251.554 156.572 251.486 156.834 251.486C156.883 251.486 156.945 251.487 157.018 251.489C157.092 251.491 157.148 251.494 157.186 251.498V252.18C157.163 252.174 157.111 252.165 157.03 252.154C156.95 252.141 156.866 252.134 156.777 252.134C156.565 252.134 156.375 252.179 156.209 252.268C156.044 252.355 155.913 252.476 155.817 252.631C155.722 252.785 155.675 252.96 155.675 253.157V255.918H155.004ZM160.152 251.555V252.123H157.891V251.555H160.152ZM158.55 250.509H159.22V254.668C159.22 254.858 159.248 255 159.303 255.094C159.359 255.187 159.431 255.25 159.518 255.282C159.607 255.312 159.701 255.327 159.8 255.327C159.874 255.327 159.934 255.324 159.982 255.316C160.029 255.306 160.067 255.299 160.095 255.293L160.232 255.895C160.186 255.913 160.123 255.93 160.041 255.947C159.96 255.966 159.857 255.975 159.732 255.975C159.542 255.975 159.357 255.934 159.175 255.853C158.995 255.771 158.845 255.647 158.726 255.481C158.608 255.314 158.55 255.104 158.55 254.85V250.509ZM161.161 255.918V251.555H161.808V252.236H161.865C161.956 252.003 162.103 251.823 162.305 251.694C162.508 251.563 162.751 251.498 163.036 251.498C163.323 251.498 163.563 251.563 163.754 251.694C163.947 251.823 164.098 252.003 164.206 252.236H164.251C164.363 252.011 164.531 251.832 164.754 251.699C164.978 251.565 165.246 251.498 165.558 251.498C165.948 251.498 166.268 251.62 166.516 251.864C166.764 252.107 166.888 252.485 166.888 252.998V255.918H166.217V252.998C166.217 252.676 166.129 252.446 165.953 252.307C165.777 252.169 165.57 252.1 165.331 252.1C165.024 252.1 164.786 252.193 164.618 252.378C164.449 252.562 164.365 252.795 164.365 253.077V255.918H163.683V252.93C163.683 252.681 163.603 252.482 163.442 252.33C163.281 252.177 163.073 252.1 162.82 252.1C162.645 252.1 162.482 252.146 162.331 252.239C162.181 252.332 162.06 252.461 161.967 252.626C161.876 252.788 161.831 252.977 161.831 253.191V255.918H161.161ZM169.943 256.009C169.523 256.009 169.16 255.916 168.855 255.731C168.552 255.543 168.318 255.282 168.153 254.947C167.991 254.61 167.909 254.217 167.909 253.77C167.909 253.324 167.991 252.93 168.153 252.589C168.318 252.246 168.547 251.979 168.841 251.788C169.136 251.594 169.481 251.498 169.875 251.498C170.102 251.498 170.327 251.536 170.548 251.611C170.77 251.687 170.972 251.81 171.153 251.981C171.335 252.149 171.48 252.373 171.588 252.651C171.696 252.93 171.75 253.272 171.75 253.68V253.964H168.386V253.384H171.068C171.068 253.138 171.019 252.918 170.92 252.725C170.824 252.532 170.686 252.379 170.506 252.268C170.328 252.156 170.117 252.1 169.875 252.1C169.608 252.1 169.377 252.166 169.182 252.299C168.989 252.43 168.84 252.6 168.736 252.81C168.632 253.02 168.58 253.246 168.58 253.486V253.873C168.58 254.202 168.636 254.482 168.75 254.711C168.866 254.938 169.026 255.111 169.23 255.231C169.435 255.348 169.672 255.407 169.943 255.407C170.119 255.407 170.278 255.382 170.42 255.333C170.564 255.282 170.688 255.206 170.793 255.106C170.897 255.003 170.977 254.877 171.034 254.725L171.682 254.907C171.614 255.127 171.499 255.32 171.338 255.486C171.177 255.651 170.978 255.78 170.741 255.873C170.505 255.964 170.239 256.009 169.943 256.009ZM173.44 253.293V255.918H172.77V251.555H173.418V252.236H173.474C173.577 252.015 173.732 251.837 173.94 251.702C174.149 251.566 174.418 251.498 174.747 251.498C175.043 251.498 175.301 251.558 175.523 251.68C175.744 251.799 175.917 251.981 176.04 252.225C176.163 252.467 176.224 252.774 176.224 253.145V255.918H175.554V253.191C175.554 252.848 175.465 252.581 175.287 252.39C175.109 252.197 174.865 252.1 174.554 252.1C174.34 252.1 174.149 252.146 173.98 252.239C173.813 252.332 173.682 252.467 173.585 252.645C173.489 252.824 173.44 253.039 173.44 253.293ZM179.347 251.555V252.123H177.086V251.555H179.347ZM177.745 250.509H178.415V254.668C178.415 254.858 178.443 255 178.498 255.094C178.555 255.187 178.627 255.25 178.714 255.282C178.803 255.312 178.897 255.327 178.995 255.327C179.069 255.327 179.129 255.324 179.177 255.316C179.224 255.306 179.262 255.299 179.29 255.293L179.427 255.895C179.381 255.913 179.318 255.93 179.237 255.947C179.155 255.966 179.052 255.975 178.927 255.975C178.737 255.975 178.552 255.934 178.37 255.853C178.19 255.771 178.04 255.647 177.921 255.481C177.804 255.314 177.745 255.104 177.745 254.85V250.509Z" fill="#314351" fill-opacity="0.8"/>
<path d="M329.818 263.918H141.385C140.4 263.918 139.602 264.714 139.602 265.696V278.14C139.602 279.122 140.4 279.918 141.385 279.918H329.818C330.803 279.918 331.602 279.122 331.602 278.14V265.696C331.602 264.714 330.803 263.918 329.818 263.918Z" fill="#EDF1FF"/>
<path d="M349.113 255.918V255.407L352.249 250.725H349.079V250.1H353.09V250.611L349.954 255.293H353.124V255.918H349.113ZM354.215 255.918V251.555H354.886V255.918H354.215ZM354.556 250.827C354.425 250.827 354.313 250.783 354.218 250.694C354.125 250.605 354.079 250.498 354.079 250.373C354.079 250.248 354.125 250.141 354.218 250.052C354.313 249.963 354.425 249.918 354.556 249.918C354.687 249.918 354.799 249.963 354.891 250.052C354.986 250.141 355.033 250.248 355.033 250.373C355.033 250.498 354.986 250.605 354.891 250.694C354.799 250.783 354.687 250.827 354.556 250.827ZM356.114 257.555V251.555H356.761V252.248H356.841C356.89 252.172 356.958 252.075 357.045 251.958C357.134 251.839 357.261 251.733 357.426 251.64C357.593 251.545 357.818 251.498 358.102 251.498C358.47 251.498 358.794 251.59 359.074 251.773C359.354 251.957 359.573 252.217 359.73 252.555C359.887 252.892 359.966 253.289 359.966 253.748C359.966 254.21 359.887 254.61 359.73 254.949C359.573 255.287 359.355 255.548 359.077 255.734C358.798 255.917 358.477 256.009 358.114 256.009C357.833 256.009 357.609 255.963 357.44 255.87C357.272 255.775 357.142 255.668 357.051 255.549C356.96 255.428 356.89 255.327 356.841 255.248H356.784V257.555H356.114ZM356.773 253.736C356.773 254.066 356.821 254.357 356.918 254.609C357.014 254.859 357.155 255.055 357.341 255.197C357.527 255.337 357.754 255.407 358.023 255.407C358.303 255.407 358.537 255.333 358.724 255.185C358.914 255.036 359.056 254.835 359.151 254.583C359.247 254.329 359.295 254.047 359.295 253.736C359.295 253.43 359.248 253.153 359.153 252.907C359.061 252.659 358.92 252.463 358.73 252.319C358.543 252.173 358.307 252.1 358.023 252.1C357.75 252.1 357.521 252.169 357.335 252.307C357.15 252.444 357.009 252.635 356.915 252.881C356.82 253.126 356.773 253.411 356.773 253.736Z" fill="#314351" fill-opacity="0.8"/>
<path d="M544.763 263.918H350.441C349.425 263.918 348.602 264.714 348.602 265.696V278.14C348.602 279.122 349.425 279.918 350.441 279.918H544.763C545.778 279.918 546.602 279.122 546.602 278.14V265.696C546.602 264.714 545.778 263.918 544.763 263.918Z" fill="#EDF1FF"/>
<rect x="127.602" y="299.918" width="60" height="15" rx="4" fill="#E78764"/>
<path d="M150.957 305.488H151.548V308.057C151.548 308.33 151.484 308.572 151.355 308.783C151.227 308.993 151.046 309.158 150.814 309.279C150.581 309.399 150.308 309.458 149.995 309.458C149.684 309.458 149.412 309.399 149.179 309.279C148.947 309.158 148.766 308.993 148.638 308.783C148.509 308.572 148.445 308.33 148.445 308.057V305.488H149.034V308.009C149.034 308.186 149.073 308.343 149.151 308.48C149.229 308.617 149.341 308.725 149.484 308.804C149.628 308.882 149.798 308.92 149.995 308.92C150.194 308.92 150.365 308.882 150.508 308.804C150.653 308.725 150.764 308.617 150.84 308.48C150.918 308.343 150.957 308.186 150.957 308.009V305.488ZM152.359 310.492V306.464H152.916V306.939H152.963C152.996 306.878 153.044 306.807 153.106 306.727C153.169 306.647 153.255 306.577 153.366 306.518C153.476 306.457 153.623 306.426 153.804 306.426C154.041 306.426 154.252 306.486 154.438 306.605C154.623 306.725 154.769 306.897 154.874 307.122C154.981 307.347 155.034 307.618 155.034 307.935C155.034 308.251 154.982 308.523 154.876 308.749C154.771 308.974 154.626 309.147 154.441 309.269C154.257 309.39 154.047 309.451 153.81 309.451C153.632 309.451 153.487 309.421 153.373 309.361C153.261 309.301 153.174 309.231 153.11 309.151C153.047 309.071 152.998 309 152.963 308.938H152.929V310.492H152.359ZM152.918 307.929C152.918 308.135 152.947 308.315 153.007 308.47C153.067 308.626 153.153 308.747 153.267 308.835C153.38 308.921 153.518 308.964 153.682 308.964C153.853 308.964 153.995 308.919 154.109 308.829C154.224 308.737 154.31 308.613 154.369 308.457C154.429 308.301 154.458 308.125 154.458 307.929C154.458 307.736 154.429 307.562 154.371 307.408C154.314 307.254 154.227 307.133 154.111 307.044C153.997 306.955 153.854 306.91 153.682 306.91C153.517 306.91 153.377 306.953 153.263 307.038C153.15 307.123 153.064 307.242 153.005 307.395C152.947 307.547 152.918 307.725 152.918 307.929ZM156.77 309.451C156.533 309.451 156.322 309.39 156.137 309.269C155.952 309.147 155.807 308.974 155.702 308.749C155.598 308.523 155.546 308.251 155.546 307.935C155.546 307.618 155.598 307.347 155.704 307.122C155.811 306.897 155.957 306.725 156.142 306.605C156.328 306.486 156.538 306.426 156.774 306.426C156.956 306.426 157.102 306.457 157.212 306.518C157.324 306.577 157.411 306.647 157.472 306.727C157.534 306.807 157.582 306.878 157.617 306.939H157.651V305.488H158.221V309.393H157.664V308.938H157.617C157.582 309 157.533 309.071 157.468 309.151C157.404 309.231 157.317 309.301 157.205 309.361C157.093 309.421 156.948 309.451 156.77 309.451ZM156.896 308.964C157.06 308.964 157.198 308.921 157.312 308.835C157.426 308.747 157.512 308.626 157.571 308.47C157.631 308.315 157.66 308.135 157.66 307.929C157.66 307.725 157.631 307.547 157.573 307.395C157.514 307.242 157.428 307.123 157.315 307.038C157.202 306.953 157.062 306.91 156.896 306.91C156.724 306.91 156.581 306.955 156.467 307.044C156.352 307.133 156.266 307.254 156.207 307.408C156.15 307.562 156.121 307.736 156.121 307.929C156.121 308.125 156.151 308.301 156.209 308.457C156.268 308.613 156.354 308.737 156.469 308.829C156.584 308.919 156.727 308.964 156.896 308.964ZM159.888 309.458C159.702 309.458 159.534 309.424 159.384 309.355C159.234 309.285 159.115 309.184 159.027 309.052C158.941 308.92 158.898 308.758 158.898 308.566C158.898 308.4 158.93 308.264 158.993 308.158C159.057 308.051 159.142 307.966 159.251 307.904C159.359 307.842 159.479 307.795 159.613 307.763C159.746 307.731 159.882 307.707 160.021 307.69C160.196 307.67 160.339 307.654 160.448 307.641C160.558 307.627 160.637 307.605 160.687 307.574C160.736 307.544 160.761 307.494 160.761 307.425V307.412C160.761 307.245 160.714 307.116 160.62 307.025C160.527 306.933 160.388 306.888 160.204 306.888C160.012 306.888 159.861 306.93 159.75 307.015C159.641 307.099 159.565 307.193 159.523 307.296L158.987 307.174C159.051 306.996 159.144 306.852 159.266 306.743C159.389 306.632 159.531 306.552 159.691 306.502C159.851 306.451 160.02 306.426 160.196 306.426C160.313 306.426 160.437 306.44 160.568 306.468C160.701 306.495 160.824 306.544 160.938 306.617C161.054 306.689 161.149 306.793 161.222 306.928C161.296 307.061 161.333 307.235 161.333 307.448V309.393H160.776V308.993H160.753C160.716 309.067 160.661 309.139 160.587 309.21C160.514 309.282 160.419 309.341 160.303 309.388C160.188 309.435 160.049 309.458 159.888 309.458ZM160.011 309.001C160.169 309.001 160.304 308.969 160.416 308.907C160.529 308.845 160.615 308.763 160.673 308.663C160.733 308.561 160.763 308.453 160.763 308.337V307.959C160.743 307.98 160.703 307.999 160.645 308.017C160.587 308.033 160.522 308.048 160.448 308.06C160.374 308.072 160.303 308.083 160.233 308.093C160.163 308.102 160.104 308.109 160.057 308.116C159.947 308.13 159.846 308.153 159.754 308.186C159.664 308.219 159.591 308.267 159.537 308.329C159.483 308.39 159.457 308.472 159.457 308.573C159.457 308.715 159.509 308.821 159.613 308.894C159.717 308.965 159.85 309.001 160.011 309.001ZM163.46 306.464V306.922H161.86V306.464H163.46ZM162.289 305.762H162.859V308.533C162.859 308.644 162.876 308.727 162.909 308.783C162.942 308.838 162.984 308.875 163.037 308.896C163.09 308.915 163.148 308.924 163.21 308.924C163.256 308.924 163.296 308.921 163.33 308.915C163.365 308.908 163.391 308.903 163.41 308.899L163.513 309.371C163.48 309.383 163.433 309.396 163.372 309.409C163.311 309.423 163.235 309.43 163.143 309.432C162.993 309.434 162.854 309.407 162.724 309.351C162.594 309.296 162.489 309.209 162.409 309.092C162.329 308.975 162.289 308.828 162.289 308.652V305.762ZM165.322 309.453C165.033 309.453 164.785 309.391 164.576 309.268C164.369 309.143 164.209 308.968 164.096 308.743C163.984 308.517 163.928 308.252 163.928 307.948C163.928 307.648 163.984 307.383 164.096 307.155C164.209 306.926 164.366 306.747 164.568 306.619C164.772 306.49 165.01 306.426 165.282 306.426C165.447 306.426 165.607 306.453 165.762 306.508C165.917 306.563 166.057 306.648 166.18 306.765C166.303 306.882 166.401 307.034 166.472 307.221C166.543 307.407 166.579 307.633 166.579 307.898V308.1H164.25V307.673H166.02C166.02 307.523 165.989 307.39 165.928 307.275C165.867 307.158 165.781 307.066 165.671 306.998C165.561 306.931 165.433 306.897 165.286 306.897C165.125 306.897 164.985 306.936 164.866 307.015C164.748 307.093 164.656 307.195 164.591 307.32C164.528 307.445 164.496 307.58 164.496 307.727V308.06C164.496 308.256 164.53 308.423 164.599 308.56C164.669 308.697 164.766 308.802 164.891 308.875C165.015 308.946 165.161 308.982 165.327 308.982C165.436 308.982 165.534 308.966 165.623 308.936C165.712 308.904 165.789 308.857 165.854 308.795C165.919 308.732 165.968 308.655 166.003 308.564L166.542 308.661C166.499 308.82 166.422 308.959 166.31 309.079C166.199 309.197 166.06 309.289 165.892 309.355C165.725 309.42 165.535 309.453 165.322 309.453Z" fill="white"/>
</g>
<rect x="59.7723" y="4.27234" width="521.455" height="330.455" rx="11.4684" stroke="#E5E5E5" stroke-width="1.45532"/>
</g>
<defs>
<filter id="filter0_d_248_913" x="36.1761" y="0.268754" width="554.327" height="363.327" filterUnits="userSpaceOnUse" color-interpolation-filters="sRGB">
<feFlood flood-opacity="0" result="BackgroundImageFix"/>
<feColorMatrix in="SourceAlpha" type="matrix" values="0 0 0 0 0 0 0 0 0 0 0 0 0 0 0 0 0 0 127 0" result="hardAlpha"/>
<feOffset dx="-7.16049" dy="12.4324"/>
<feGaussianBlur stdDeviation="7.85417"/>
<feColorMatrix type="matrix" values="0 0 0 0 0.180392 0 0 0 0 0.203922 0 0 0 0 0.47451 0 0 0 0.13 0"/>
<feBlend mode="normal" in2="BackgroundImageFix" result="effect1_dropShadow_248_913"/>
<feBlend mode="normal" in="SourceGraphic" in2="effect1_dropShadow_248_913" result="shape"/>
</filter>
<clipPath id="clip0_248_913">
<rect x="60.5" y="5" width="520" height="329" rx="10.7407" fill="white"/>
</clipPath>
</defs>
</svg>
