<svg width="25" height="25" viewBox="0 0 25 25" fill="none" xmlns="http://www.w3.org/2000/svg">
<path d="M12.8022 24.3374C14.4568 24.3374 16.0252 24.1216 17.1906 23.7475V21.618C16.3417 21.9633 14.6295 22.1935 12.946 22.1935C7.07554 22.1935 2.91727 18.6396 2.91727 12.4237C2.91727 6.55323 6.85971 2.45251 12.4281 2.45251C17.982 2.45251 21.723 5.89136 21.723 11.1144C21.723 14.4237 20.6439 16.3374 19.1187 16.3374C18.1403 16.3374 17.6511 15.6899 17.6511 14.7259V6.75467H15.018V8.48129H14.8453C14.2842 7.22949 12.946 6.45251 11.4065 6.45251C8.5 6.45251 6.5 8.85539 6.5 12.3518C6.5 16.0065 8.5 18.4525 11.4928 18.4525C13.1763 18.4525 14.4281 17.6611 15.0324 16.2079H15.205C15.464 17.618 16.8453 18.5245 18.5719 18.5245C22.0396 18.5245 24.1403 15.5604 24.1403 10.9993C24.1403 4.61078 19.3345 0.337402 12.5576 0.337402C5.44964 0.337402 0.5 5.18632 0.5 12.3374C0.5 19.8914 5.60791 24.3374 12.8022 24.3374ZM12.054 16.0209C10.4137 16.0209 9.42086 14.6683 9.42086 12.4381C9.42086 10.1791 10.3993 8.841 12.0827 8.841C13.7662 8.841 14.8309 10.2223 14.8309 12.4381C14.8309 14.6396 13.7518 16.0209 12.054 16.0209Z" fill="#314351"/>
</svg>
