<svg width="100" height="100" viewBox="0 0 100 100" fill="none" xmlns="http://www.w3.org/2000/svg">
<rect width="100" height="100" rx="50" fill="#F5ECFE"/>
<path d="M68.8426 50.0396C68.584 49.6785 68.167 49.4643 67.7231 49.4643H40.8447L38.584 44.2223C38.3662 43.7176 37.8699 43.3906 37.3203 43.3906H31.3763C30.6156 43.3906 30 44.0068 30 44.767C30 45.5271 30.6156 46.1428 31.3763 46.1428H36.4153L38.6642 51.3577C38.672 51.3757 38.6786 51.3937 38.687 51.4111L41.5573 58.0675C41.5579 58.0693 41.5591 58.0711 41.5597 58.073L44.0395 63.824C44.2573 64.3287 44.7542 64.6556 45.3032 64.6556H63.4766C64.0653 64.6556 64.5889 64.2812 64.7792 63.7238L69.026 51.2853C69.1698 50.8648 69.1014 50.4009 68.8428 50.0398L68.8426 50.0396ZM64.4536 56.1576H61.7435L62.6837 52.2162H65.799L64.4536 56.1576ZM55.8517 61.9026V58.9104H58.2563L57.5417 61.9026H55.8517ZM50.7582 61.9026L50.0429 58.9104H53.1V61.9026H50.7582ZM49.3855 56.1576L48.4447 52.2162H53.0996V56.1576H49.3855ZM55.8515 56.1576V52.2162H59.854L58.9138 56.1576H55.8515ZM45.614 52.2162L46.5548 56.1576H43.7306L42.0315 52.2162H45.614ZM44.9181 58.9102H47.2119L47.9271 61.9024H46.2082L44.9181 58.9102ZM62.4921 61.9024H60.371L61.0856 58.9102H63.5132L62.4921 61.9024Z" fill="#E477FB"/>
<path d="M48.059 65.8821C45.8209 65.8821 44 67.7032 44 69.9411C44 72.1792 45.8203 74 48.059 74C50.2963 74 52.1174 72.179 52.1174 69.9411C52.1168 67.7024 50.2965 65.8821 48.059 65.8821ZM48.059 71.2471C47.3391 71.2471 46.7521 70.6609 46.7521 69.9408C46.7521 69.2209 47.3388 68.634 48.059 68.634C48.7789 68.634 49.3646 69.2201 49.3646 69.9408C49.3646 70.6613 48.7791 71.2471 48.059 71.2471Z" fill="#F3B9FF"/>
<path d="M61.1254 65.8821C58.8881 65.8821 57.0664 67.7032 57.0664 69.9411C57.0664 72.1792 58.8875 74 61.1254 74C63.3635 74 65.1849 72.179 65.1849 69.9411C65.1843 67.7024 63.3632 65.8821 61.1254 65.8821ZM61.1254 71.2471C60.4055 71.2471 59.8191 70.6609 59.8191 69.9408C59.8191 69.2209 60.4053 68.634 61.1254 68.634C61.8459 68.634 62.4322 69.2201 62.4322 69.9408C62.432 70.6613 61.8459 71.2471 61.1254 71.2471Z" fill="#F3B9FF"/>
<path d="M63.9558 41.0217C63.5478 40.5722 62.8511 40.5381 62.4005 40.9467L60.6744 42.5144C60.3365 38.1511 58.7916 35.6389 56.8896 34.0389C56.5477 34.1901 56.2104 34.3288 55.8901 34.462C55.4268 34.6528 54.9727 34.8399 54.5352 35.0409C56.5109 36.2864 58.0908 38.2862 58.4586 42.4114L56.9137 41.0284C56.4602 40.6221 55.7635 40.6612 55.359 41.1147C54.9533 41.5676 54.9918 42.2643 55.4453 42.6694L58.9031 45.7641C58.9199 45.7792 58.9391 45.7893 58.9559 45.8032C58.9822 45.8235 59.008 45.844 59.0369 45.8626C59.0682 45.8836 59.1006 45.901 59.1336 45.9178C59.1617 45.9323 59.1894 45.9465 59.2187 45.9592C59.2559 45.9743 59.2937 45.9856 59.3322 45.9971C59.3598 46.0055 59.3875 46.0145 59.4168 46.0206C59.4637 46.0301 59.5109 46.0344 59.559 46.0379C59.5775 46.0391 59.5955 46.044 59.6143 46.0446H59.6383H59.6389H59.6443C59.7115 46.0446 59.7793 46.0374 59.8459 46.0243C59.874 46.0188 59.9006 46.0092 59.9269 46.002C59.9666 45.9913 60.0062 45.9809 60.0445 45.9661C60.074 45.9542 60.101 45.9391 60.1285 45.9247C60.1627 45.9079 60.1963 45.8917 60.2287 45.8719C60.2574 45.8534 60.2826 45.8317 60.3098 45.8108C60.3326 45.7934 60.3572 45.779 60.3787 45.7592L63.882 42.5774C64.3314 42.1684 64.3644 41.472 63.9558 41.022L63.9558 41.0217Z" fill="#F3B9FF"/>
<path d="M51.8611 31.3972C48.9973 30.3125 47.5033 29.6291 47.5033 27.1011C47.5033 26.4927 47.0102 26.0001 46.4018 26.0001C45.794 26.0001 45.3008 26.4927 45.3008 27.1011C45.3008 30.5494 47.4057 31.9382 49.6658 32.8976C50.4008 32.2903 51.1676 31.8122 51.9231 31.4205C51.9031 31.4126 51.8815 31.4048 51.8611 31.397L51.8611 31.3972Z" fill="#F3B9FF"/>
<path d="M59.7042 26.0002C59.0964 26.0002 58.6032 26.4928 58.6032 27.1012C58.6032 29.6561 57.3137 30.301 54.6305 31.408C54.2081 31.582 53.7671 31.7645 53.3185 31.9672C52.4978 32.3379 51.6511 32.7778 50.8446 33.3653C48.7235 34.9108 46.8823 37.4789 46.5282 42.5072L44.8099 40.9467C44.7552 40.8969 44.697 40.8549 44.6359 40.8184C44.6155 40.8057 44.5933 40.798 44.5722 40.7865C44.5308 40.7654 44.4894 40.7439 44.4468 40.7283C44.4198 40.7182 44.3915 40.7133 44.3646 40.7055C44.3255 40.6947 44.2866 40.6832 44.247 40.6768C44.2175 40.6719 44.1876 40.6713 44.1575 40.6689C44.1204 40.666 44.0831 40.6623 44.0447 40.6635C44.0027 40.6646 43.9601 40.6707 43.9187 40.6762C43.888 40.6805 43.8581 40.6828 43.8286 40.6895C43.7861 40.699 43.7447 40.7146 43.7038 40.7291C43.6757 40.7387 43.6468 40.7459 43.6198 40.7578C43.5761 40.7775 43.5347 40.8033 43.4939 40.8293C43.471 40.8432 43.4476 40.8539 43.4261 40.8689C43.3656 40.9133 43.3079 40.9637 43.255 41.0213C42.8458 41.4713 42.8794 42.168 43.3294 42.5765L46.8327 45.7584C46.8544 45.7781 46.879 45.7925 46.9017 45.8099C46.9286 45.831 46.9538 45.8525 46.9827 45.8711C47.0151 45.8914 47.0487 45.907 47.0829 45.9238C47.1104 45.9377 47.1376 45.9533 47.1669 45.9652C47.2054 45.9802 47.2448 45.9904 47.2845 46.0011C47.3108 46.0084 47.3372 46.0179 47.3655 46.0234C47.4321 46.0361 47.4999 46.0431 47.5671 46.0437H47.5725H47.5731H47.5972C47.6157 46.0437 47.6337 46.0383 47.6524 46.0371C47.7005 46.0336 47.7477 46.0293 47.7946 46.0197C47.8241 46.0136 47.8517 46.0047 47.8792 45.9963C47.9177 45.9849 47.9554 45.9734 47.9927 45.9584C48.0222 45.9457 48.0497 45.932 48.0778 45.917C48.1108 45.9002 48.1432 45.8822 48.1745 45.8617C48.2032 45.8437 48.2292 45.8232 48.2556 45.8023C48.2724 45.7884 48.2915 45.7777 48.3083 45.7633L51.7661 42.6685C52.2196 42.2629 52.2575 41.567 51.8524 41.1138C51.8003 41.055 51.7421 41.0041 51.6807 40.9589C51.661 40.9439 51.6376 40.9337 51.6159 40.9199C51.5745 40.8935 51.5319 40.8671 51.4876 40.8466C51.4606 40.8347 51.4323 40.8269 51.4059 40.8171C51.3639 40.8021 51.3214 40.7859 51.2782 40.7763C51.2481 40.7691 51.2176 40.7668 51.1881 40.7625C51.1462 40.7564 51.1036 40.7505 51.061 40.7498C51.0239 40.7486 50.986 40.7509 50.9481 40.7541C50.918 40.7558 50.8893 40.757 50.8604 40.7619C50.8202 40.7685 50.7805 40.7793 50.7411 40.79C50.7147 40.7972 50.6878 40.8027 50.6618 40.8117C50.6174 40.8279 50.5755 40.8488 50.5329 40.8705C50.5132 40.8806 50.4921 40.8884 50.4723 40.9C50.4106 40.9359 50.3524 40.9779 50.2977 41.0271L48.7395 42.4214C49.1259 37.4996 51.0825 35.5905 53.36 34.394C54.0464 34.0334 54.7604 33.7352 55.4714 33.4424C55.6028 33.3885 55.7348 33.3333 55.8667 33.2786C58.2612 32.2801 60.8065 31.0251 60.8065 27.1006C60.8057 26.4926 60.312 26 59.7041 26L59.7042 26.0002Z" fill="#F3B9FF"/>
<path d="M50.6602 40.8132C50.6859 40.8042 50.7129 40.7993 50.7394 40.7915C50.7129 40.7987 50.6865 40.8034 50.6602 40.8132Z" fill="#F3B9FF"/>
<path d="M43.7031 40.7286C43.7439 40.7142 43.7853 40.6985 43.8279 40.689C43.7848 40.6987 43.7439 40.7138 43.7031 40.7286Z" fill="#F3B9FF"/>
<path d="M44.5703 40.7866C44.5914 40.7979 44.6135 40.8058 44.634 40.8185C44.6135 40.806 44.5914 40.7981 44.5703 40.7866Z" fill="#F3B9FF"/>
<path d="M50.8594 40.7626C50.8889 40.7577 50.9176 40.7565 50.9471 40.7548C50.9168 40.7573 50.8881 40.7585 50.8594 40.7626Z" fill="#F3B9FF"/>
<path d="M44.3633 40.7056C44.3902 40.7134 44.4186 40.7183 44.4455 40.7284C44.4186 40.7181 44.3902 40.7134 44.3633 40.7056Z" fill="#F3B9FF"/>
<path d="M44.1562 40.6692C44.1869 40.6715 44.2168 40.6721 44.2457 40.677C44.2162 40.6723 44.1863 40.6717 44.1562 40.6692Z" fill="#F3B9FF"/>
<path d="M51.6797 40.9601C51.7414 41.005 51.799 41.0562 51.8514 41.115C51.7984 41.0556 51.7408 41.0046 51.6797 40.9601Z" fill="#F3B9FF"/>
<path d="M43.4922 40.8292C43.533 40.804 43.5744 40.7776 43.6182 40.7577C43.5744 40.7776 43.5336 40.8034 43.4922 40.8292Z" fill="#F3B9FF"/>
<path d="M51.2773 40.7771C51.3205 40.7867 51.3631 40.8023 51.4051 40.8179C51.3619 40.8029 51.3205 40.7873 51.2773 40.7771Z" fill="#F3B9FF"/>
<path d="M51.4844 40.8472C51.5287 40.8675 51.5713 40.894 51.6127 40.9204C51.5713 40.8938 51.5293 40.8675 51.4844 40.8472Z" fill="#F3B9FF"/>
<path d="M43.2539 41.0216C43.3066 40.9634 43.3648 40.913 43.425 40.8693C43.3643 40.913 43.3066 40.9634 43.2539 41.0216Z" fill="#F3B9FF"/>
<path d="M51.0586 40.7506C51.1012 40.7512 51.1437 40.7573 51.1857 40.7633C51.1439 40.7573 51.102 40.7512 51.0586 40.7506Z" fill="#F3B9FF"/>
</svg>
