<svg width="50" height="50" viewBox="0 0 50 50" fill="none" xmlns="http://www.w3.org/2000/svg">
<path d="M19.979 29.6875H38.8173L44.3797 11.5314C44.5686 10.9077 44.9532 10.3614 45.4765 9.97308C45.9999 9.58479 46.6343 9.37517 47.2859 9.3752C47.776 9.36216 48.2625 9.46195 48.7078 9.66687C49.3897 9.98837 49.9323 10.5455 50.2357 11.2356C50.5391 11.9257 50.5829 12.7022 50.3588 13.422L44.1089 33.7343C43.912 34.3721 43.516 34.9301 42.979 35.3266C42.4419 35.723 41.7921 35.9371 41.1246 35.9374H17.6873C17.0233 35.9374 16.3766 35.7258 15.8409 35.3334C15.3052 34.941 14.9085 34.3882 14.7082 33.7551L6.02077 6.25024H3.62497C2.79617 6.25024 2.00133 5.921 1.41528 5.33495C0.829236 4.74891 0.5 3.95406 0.5 3.12527C0.5 2.29648 0.829236 1.50163 1.41528 0.915586C2.00133 0.329542 2.79617 0.000305188 3.62497 0.000305176H8.31241C8.97642 0.00035838 9.62315 0.211917 10.1588 0.604302C10.6945 0.996688 11.0912 1.5495 11.2915 2.18257L19.979 29.6875ZM25.4997 45.3123C25.4997 44.3852 25.2248 43.4789 24.7097 42.7081C24.1947 41.9373 23.4626 41.3364 22.6061 40.9817C21.7496 40.6269 20.8071 40.5341 19.8978 40.7149C18.9885 40.8958 18.1533 41.3422 17.4977 41.9978C16.8422 42.6533 16.3958 43.4886 16.2149 44.3978C16.034 45.3071 16.1269 46.2496 16.4816 47.1061C16.8364 47.9626 17.4372 48.6947 18.2081 49.2098C18.9789 49.7248 19.8852 49.9998 20.8123 49.9998C22.0555 49.9998 23.2477 49.5059 24.1268 48.6268C25.0059 47.7478 25.4997 46.5555 25.4997 45.3123ZM42.687 45.3123C42.687 44.3852 42.4121 43.4789 41.8971 42.7081C41.382 41.9373 40.6499 41.3364 39.7934 40.9817C38.9369 40.6269 37.9944 40.5341 37.0851 40.7149C36.1758 40.8958 35.3406 41.3422 34.6851 41.9978C34.0295 42.6533 33.5831 43.4886 33.4022 44.3978C33.2213 45.3071 33.3142 46.2496 33.6689 47.1061C34.0237 47.9626 34.6245 48.6947 35.3954 49.2098C36.1662 49.7248 37.0725 49.9998 37.9996 49.9998C39.2428 49.9998 40.435 49.5059 41.3141 48.6268C42.1932 47.7478 42.687 46.5555 42.687 45.3123ZM29.4059 24.2188C30.2347 24.2188 31.0296 23.8896 31.6156 23.3035C32.2017 22.7175 32.5309 21.9226 32.5309 21.0938V13.2814H36.9579C37.4527 13.2803 37.9367 13.1363 38.3516 12.8667C38.7665 12.5971 39.0946 12.2133 39.2966 11.7616C39.4985 11.3099 39.5656 10.8094 39.4898 10.3204C39.414 9.83148 39.1986 9.37482 38.8694 9.00541L31.7861 1.09404C31.4867 0.75992 31.1202 0.492663 30.7105 0.309697C30.3008 0.126731 29.8572 0.0321644 29.4085 0.0321644C28.9599 0.0321644 28.5162 0.126731 28.1066 0.309697C27.6969 0.492663 27.3304 0.75992 27.031 1.09404L19.9529 9.00541C19.6243 9.37416 19.409 9.82986 19.3328 10.3179C19.2567 10.8059 19.3229 11.3055 19.5235 11.7569C19.7242 12.2082 20.0508 12.5921 20.4641 12.8625C20.8775 13.1329 21.36 13.2784 21.8539 13.2814H26.281V21.0938C26.281 21.9226 26.6102 22.7175 27.1962 23.3035C27.7823 23.8896 28.5771 24.2188 29.4059 24.2188Z" fill="#E19F10"/>
</svg>
