<svg width="49" height="50" viewBox="0 0 49 50" fill="none" xmlns="http://www.w3.org/2000/svg">
<mask id="path-1-outside-1_75_8105" maskUnits="userSpaceOnUse" x="-0.5" y="0" width="50" height="50" fill="black">
<rect fill="white" x="-0.5" width="50" height="50"/>
<path d="M8.68472 1C5.70173 1 3.26234 3.59121 3.26234 6.75727C3.26234 8.34928 3.87265 9.80086 4.86519 10.8453H4.31954C2.21153 10.8453 0.5 12.5795 0.5 14.6608V28.8325C0.5 29.8731 0.999547 30.8107 1.74476 31.3535C2.18817 31.6764 2.70135 31.8566 3.22824 31.9667V45.7296C3.22824 47.5134 4.69641 49 6.50213 49H10.8673C12.673 49 14.1412 47.5134 14.1412 45.7296V31.9667C14.6681 31.8566 15.1813 31.6764 15.6247 31.3535C16.3699 30.8107 16.8694 29.8731 16.8694 28.8325V26.1072H25.8044L22.2577 28.4578C22.137 28.5379 22.0334 28.6411 21.9528 28.7614C21.8722 28.8817 21.8161 29.0167 21.7879 29.1587C21.7597 29.3007 21.7599 29.4469 21.7884 29.5888C21.817 29.7307 21.8733 29.8656 21.9542 29.9857C22.0351 30.1058 22.139 30.2088 22.2599 30.2886C22.3807 30.3685 22.5162 30.4237 22.6585 30.4511C22.8008 30.4785 22.9471 30.4775 23.089 30.4482C23.2309 30.4189 23.3657 30.3618 23.4854 30.2803L29.0272 26.5841C29.763 31.4081 33.8112 35.1178 38.6954 35.1178C44.0978 35.1178 48.5 30.5823 48.5 25.017C48.5 19.4517 44.0978 14.9162 38.6954 14.9162C33.8169 14.9162 29.7699 18.6171 29.0272 23.433L23.4854 19.7367C23.2712 19.5889 23.0112 19.5224 22.7522 19.5493C22.5236 19.5674 22.3064 19.657 22.1316 19.8054C21.9569 19.9538 21.8333 20.1534 21.7786 20.376C21.7238 20.5985 21.7407 20.8326 21.8267 21.045C21.9127 21.2574 22.0635 21.4374 22.2577 21.5593L25.8044 23.9269H16.8694V14.6608C16.8694 12.5795 15.1579 10.8453 13.0499 10.8453H12.5043C13.4968 9.80086 14.1071 8.34928 14.1071 6.75727C14.1071 3.59121 11.6677 1 8.68472 1ZM8.68472 3.2484C10.5234 3.2484 11.9927 4.80578 11.9927 6.75727C11.9927 8.70876 10.5234 10.2662 8.68472 10.2662C6.84607 10.2662 5.37673 8.70876 5.37673 6.75727C5.37673 4.80578 6.84607 3.2484 8.68472 3.2484ZM4.31954 13.0256H13.0499C13.9648 13.0256 14.6869 13.7674 14.6869 14.6608V28.8325C14.6869 29.2792 14.5869 29.4235 14.3458 29.599C14.1048 29.7745 13.6387 29.9226 13.0499 29.9226C12.7605 29.9227 12.4829 30.0375 12.2783 30.2419C12.0736 30.4464 11.9586 30.7237 11.9586 31.0128V45.7296C11.9586 46.3255 11.4799 46.8197 10.8673 46.8197H6.50213C5.88954 46.8197 5.41083 46.3255 5.41083 45.7296V31.0128C5.41081 30.7237 5.29583 30.4464 5.09117 30.2419C4.88652 30.0375 4.60896 29.9227 4.31954 29.9226C3.73077 29.9226 3.26467 29.7745 3.02362 29.599C2.78258 29.4235 2.68259 29.2792 2.68259 28.8325V14.6608C2.68259 13.7674 3.40465 13.0256 4.31954 13.0256ZM38.6954 17.1306C42.9363 17.1306 46.3515 20.6483 46.3515 25.017C46.3515 29.3858 42.9363 32.9035 38.6954 32.9035C34.4545 32.9035 31.0393 29.3858 31.0393 25.017C31.0393 20.6483 34.4545 17.1306 38.6954 17.1306ZM38.576 18.5273C38.3048 18.5571 38.0546 18.6873 37.8747 18.8922C37.6948 19.0972 37.5982 19.362 37.6041 19.6345V20.6054H37.4677C36.1249 20.6054 35.1316 21.8792 35.1316 23.3478C35.1316 24.0428 35.3684 24.9199 36.0524 25.4429C36.7364 25.9659 37.5966 26.1072 38.6954 26.1072C39.5665 26.1072 39.9495 26.2665 40.0083 26.3116C40.0672 26.3569 40.0766 26.3236 40.0766 26.6693C40.0766 27.1292 39.9354 27.217 39.906 27.2314H37.4677C37.2775 27.2314 37.207 27.2211 37.0925 27.2145C36.9525 27.0296 36.757 26.8941 36.5346 26.8278C36.3122 26.7614 36.0744 26.7676 35.8557 26.8455C35.6371 26.9234 35.449 27.0689 35.3188 27.2608C35.1886 27.4528 35.123 27.6812 35.1316 27.9129C35.1316 28.2852 35.3343 28.7309 35.6091 28.969C35.8839 29.2071 36.1595 29.2781 36.3764 29.3266C36.81 29.4238 37.1566 29.4118 37.4677 29.4118H37.6041V30.3997C37.602 30.5442 37.6288 30.6876 37.6827 30.8217C37.7366 30.9557 37.8167 31.0777 37.9182 31.1806C38.0197 31.2835 38.1407 31.3652 38.2742 31.4209C38.4076 31.4767 38.5508 31.5054 38.6954 31.5054C38.84 31.5054 38.9832 31.4767 39.1166 31.4209C39.25 31.3652 39.371 31.2835 39.4726 31.1806C39.5741 31.0777 39.6542 30.9557 39.7081 30.8217C39.762 30.6876 39.7887 30.5442 39.7867 30.3997V29.4118H39.9231C41.2659 29.4118 42.2591 28.138 42.2591 26.6694C42.2591 25.9743 42.0224 25.0973 41.3384 24.5743C40.6543 24.0513 39.7941 23.9271 38.6954 23.9271C37.8242 23.9271 37.4413 23.7507 37.3824 23.7056C37.3235 23.6606 37.3142 23.6936 37.3142 23.3479C37.3142 22.7348 37.5661 22.7858 37.4677 22.7858H39.9231C40.1217 22.7858 40.2015 22.7957 40.3153 22.8028C40.4574 22.9805 40.6517 23.1094 40.8708 23.1713C41.0899 23.2332 41.323 23.2251 41.5373 23.1481C41.7515 23.0712 41.9363 22.9292 42.0658 22.742C42.1953 22.5549 42.2629 22.3319 42.2591 22.1045C42.2591 21.7322 42.0565 21.2865 41.7817 21.0484C41.5069 20.8103 41.2312 20.7393 41.0144 20.6907C40.5807 20.5936 40.2342 20.6055 39.9231 20.6055H39.7867V19.6346C39.79 19.4795 39.7602 19.3253 39.6991 19.1826C39.638 19.0399 39.5471 18.9118 39.4325 18.807C39.3179 18.7022 39.1822 18.623 39.0345 18.5748C38.8868 18.5266 38.7305 18.5103 38.576 18.5273Z"/>
</mask>
<path d="M8.68472 1C5.70173 1 3.26234 3.59121 3.26234 6.75727C3.26234 8.34928 3.87265 9.80086 4.86519 10.8453H4.31954C2.21153 10.8453 0.5 12.5795 0.5 14.6608V28.8325C0.5 29.8731 0.999547 30.8107 1.74476 31.3535C2.18817 31.6764 2.70135 31.8566 3.22824 31.9667V45.7296C3.22824 47.5134 4.69641 49 6.50213 49H10.8673C12.673 49 14.1412 47.5134 14.1412 45.7296V31.9667C14.6681 31.8566 15.1813 31.6764 15.6247 31.3535C16.3699 30.8107 16.8694 29.8731 16.8694 28.8325V26.1072H25.8044L22.2577 28.4578C22.137 28.5379 22.0334 28.6411 21.9528 28.7614C21.8722 28.8817 21.8161 29.0167 21.7879 29.1587C21.7597 29.3007 21.7599 29.4469 21.7884 29.5888C21.817 29.7307 21.8733 29.8656 21.9542 29.9857C22.0351 30.1058 22.139 30.2088 22.2599 30.2886C22.3807 30.3685 22.5162 30.4237 22.6585 30.4511C22.8008 30.4785 22.9471 30.4775 23.089 30.4482C23.2309 30.4189 23.3657 30.3618 23.4854 30.2803L29.0272 26.5841C29.763 31.4081 33.8112 35.1178 38.6954 35.1178C44.0978 35.1178 48.5 30.5823 48.5 25.017C48.5 19.4517 44.0978 14.9162 38.6954 14.9162C33.8169 14.9162 29.7699 18.6171 29.0272 23.433L23.4854 19.7367C23.2712 19.5889 23.0112 19.5224 22.7522 19.5493C22.5236 19.5674 22.3064 19.657 22.1316 19.8054C21.9569 19.9538 21.8333 20.1534 21.7786 20.376C21.7238 20.5985 21.7407 20.8326 21.8267 21.045C21.9127 21.2574 22.0635 21.4374 22.2577 21.5593L25.8044 23.9269H16.8694V14.6608C16.8694 12.5795 15.1579 10.8453 13.0499 10.8453H12.5043C13.4968 9.80086 14.1071 8.34928 14.1071 6.75727C14.1071 3.59121 11.6677 1 8.68472 1ZM8.68472 3.2484C10.5234 3.2484 11.9927 4.80578 11.9927 6.75727C11.9927 8.70876 10.5234 10.2662 8.68472 10.2662C6.84607 10.2662 5.37673 8.70876 5.37673 6.75727C5.37673 4.80578 6.84607 3.2484 8.68472 3.2484ZM4.31954 13.0256H13.0499C13.9648 13.0256 14.6869 13.7674 14.6869 14.6608V28.8325C14.6869 29.2792 14.5869 29.4235 14.3458 29.599C14.1048 29.7745 13.6387 29.9226 13.0499 29.9226C12.7605 29.9227 12.4829 30.0375 12.2783 30.2419C12.0736 30.4464 11.9586 30.7237 11.9586 31.0128V45.7296C11.9586 46.3255 11.4799 46.8197 10.8673 46.8197H6.50213C5.88954 46.8197 5.41083 46.3255 5.41083 45.7296V31.0128C5.41081 30.7237 5.29583 30.4464 5.09117 30.2419C4.88652 30.0375 4.60896 29.9227 4.31954 29.9226C3.73077 29.9226 3.26467 29.7745 3.02362 29.599C2.78258 29.4235 2.68259 29.2792 2.68259 28.8325V14.6608C2.68259 13.7674 3.40465 13.0256 4.31954 13.0256ZM38.6954 17.1306C42.9363 17.1306 46.3515 20.6483 46.3515 25.017C46.3515 29.3858 42.9363 32.9035 38.6954 32.9035C34.4545 32.9035 31.0393 29.3858 31.0393 25.017C31.0393 20.6483 34.4545 17.1306 38.6954 17.1306ZM38.576 18.5273C38.3048 18.5571 38.0546 18.6873 37.8747 18.8922C37.6948 19.0972 37.5982 19.362 37.6041 19.6345V20.6054H37.4677C36.1249 20.6054 35.1316 21.8792 35.1316 23.3478C35.1316 24.0428 35.3684 24.9199 36.0524 25.4429C36.7364 25.9659 37.5966 26.1072 38.6954 26.1072C39.5665 26.1072 39.9495 26.2665 40.0083 26.3116C40.0672 26.3569 40.0766 26.3236 40.0766 26.6693C40.0766 27.1292 39.9354 27.217 39.906 27.2314H37.4677C37.2775 27.2314 37.207 27.2211 37.0925 27.2145C36.9525 27.0296 36.757 26.8941 36.5346 26.8278C36.3122 26.7614 36.0744 26.7676 35.8557 26.8455C35.6371 26.9234 35.449 27.0689 35.3188 27.2608C35.1886 27.4528 35.123 27.6812 35.1316 27.9129C35.1316 28.2852 35.3343 28.7309 35.6091 28.969C35.8839 29.2071 36.1595 29.2781 36.3764 29.3266C36.81 29.4238 37.1566 29.4118 37.4677 29.4118H37.6041V30.3997C37.602 30.5442 37.6288 30.6876 37.6827 30.8217C37.7366 30.9557 37.8167 31.0777 37.9182 31.1806C38.0197 31.2835 38.1407 31.3652 38.2742 31.4209C38.4076 31.4767 38.5508 31.5054 38.6954 31.5054C38.84 31.5054 38.9832 31.4767 39.1166 31.4209C39.25 31.3652 39.371 31.2835 39.4726 31.1806C39.5741 31.0777 39.6542 30.9557 39.7081 30.8217C39.762 30.6876 39.7887 30.5442 39.7867 30.3997V29.4118H39.9231C41.2659 29.4118 42.2591 28.138 42.2591 26.6694C42.2591 25.9743 42.0224 25.0973 41.3384 24.5743C40.6543 24.0513 39.7941 23.9271 38.6954 23.9271C37.8242 23.9271 37.4413 23.7507 37.3824 23.7056C37.3235 23.6606 37.3142 23.6936 37.3142 23.3479C37.3142 22.7348 37.5661 22.7858 37.4677 22.7858H39.9231C40.1217 22.7858 40.2015 22.7957 40.3153 22.8028C40.4574 22.9805 40.6517 23.1094 40.8708 23.1713C41.0899 23.2332 41.323 23.2251 41.5373 23.1481C41.7515 23.0712 41.9363 22.9292 42.0658 22.742C42.1953 22.5549 42.2629 22.3319 42.2591 22.1045C42.2591 21.7322 42.0565 21.2865 41.7817 21.0484C41.5069 20.8103 41.2312 20.7393 41.0144 20.6907C40.5807 20.5936 40.2342 20.6055 39.9231 20.6055H39.7867V19.6346C39.79 19.4795 39.7602 19.3253 39.6991 19.1826C39.638 19.0399 39.5471 18.9118 39.4325 18.807C39.3179 18.7022 39.1822 18.623 39.0345 18.5748C38.8868 18.5266 38.7305 18.5103 38.576 18.5273Z" fill="#CC55AB"/>
<path d="M8.68472 1C5.70173 1 3.26234 3.59121 3.26234 6.75727C3.26234 8.34928 3.87265 9.80086 4.86519 10.8453H4.31954C2.21153 10.8453 0.5 12.5795 0.5 14.6608V28.8325C0.5 29.8731 0.999547 30.8107 1.74476 31.3535C2.18817 31.6764 2.70135 31.8566 3.22824 31.9667V45.7296C3.22824 47.5134 4.69641 49 6.50213 49H10.8673C12.673 49 14.1412 47.5134 14.1412 45.7296V31.9667C14.6681 31.8566 15.1813 31.6764 15.6247 31.3535C16.3699 30.8107 16.8694 29.8731 16.8694 28.8325V26.1072H25.8044L22.2577 28.4578C22.137 28.5379 22.0334 28.6411 21.9528 28.7614C21.8722 28.8817 21.8161 29.0167 21.7879 29.1587C21.7597 29.3007 21.7599 29.4469 21.7884 29.5888C21.817 29.7307 21.8733 29.8656 21.9542 29.9857C22.0351 30.1058 22.139 30.2088 22.2599 30.2886C22.3807 30.3685 22.5162 30.4237 22.6585 30.4511C22.8008 30.4785 22.9471 30.4775 23.089 30.4482C23.2309 30.4189 23.3657 30.3618 23.4854 30.2803L29.0272 26.5841C29.763 31.4081 33.8112 35.1178 38.6954 35.1178C44.0978 35.1178 48.5 30.5823 48.5 25.017C48.5 19.4517 44.0978 14.9162 38.6954 14.9162C33.8169 14.9162 29.7699 18.6171 29.0272 23.433L23.4854 19.7367C23.2712 19.5889 23.0112 19.5224 22.7522 19.5493C22.5236 19.5674 22.3064 19.657 22.1316 19.8054C21.9569 19.9538 21.8333 20.1534 21.7786 20.376C21.7238 20.5985 21.7407 20.8326 21.8267 21.045C21.9127 21.2574 22.0635 21.4374 22.2577 21.5593L25.8044 23.9269H16.8694V14.6608C16.8694 12.5795 15.1579 10.8453 13.0499 10.8453H12.5043C13.4968 9.80086 14.1071 8.34928 14.1071 6.75727C14.1071 3.59121 11.6677 1 8.68472 1ZM8.68472 3.2484C10.5234 3.2484 11.9927 4.80578 11.9927 6.75727C11.9927 8.70876 10.5234 10.2662 8.68472 10.2662C6.84607 10.2662 5.37673 8.70876 5.37673 6.75727C5.37673 4.80578 6.84607 3.2484 8.68472 3.2484ZM4.31954 13.0256H13.0499C13.9648 13.0256 14.6869 13.7674 14.6869 14.6608V28.8325C14.6869 29.2792 14.5869 29.4235 14.3458 29.599C14.1048 29.7745 13.6387 29.9226 13.0499 29.9226C12.7605 29.9227 12.4829 30.0375 12.2783 30.2419C12.0736 30.4464 11.9586 30.7237 11.9586 31.0128V45.7296C11.9586 46.3255 11.4799 46.8197 10.8673 46.8197H6.50213C5.88954 46.8197 5.41083 46.3255 5.41083 45.7296V31.0128C5.41081 30.7237 5.29583 30.4464 5.09117 30.2419C4.88652 30.0375 4.60896 29.9227 4.31954 29.9226C3.73077 29.9226 3.26467 29.7745 3.02362 29.599C2.78258 29.4235 2.68259 29.2792 2.68259 28.8325V14.6608C2.68259 13.7674 3.40465 13.0256 4.31954 13.0256ZM38.6954 17.1306C42.9363 17.1306 46.3515 20.6483 46.3515 25.017C46.3515 29.3858 42.9363 32.9035 38.6954 32.9035C34.4545 32.9035 31.0393 29.3858 31.0393 25.017C31.0393 20.6483 34.4545 17.1306 38.6954 17.1306ZM38.576 18.5273C38.3048 18.5571 38.0546 18.6873 37.8747 18.8922C37.6948 19.0972 37.5982 19.362 37.6041 19.6345V20.6054H37.4677C36.1249 20.6054 35.1316 21.8792 35.1316 23.3478C35.1316 24.0428 35.3684 24.9199 36.0524 25.4429C36.7364 25.9659 37.5966 26.1072 38.6954 26.1072C39.5665 26.1072 39.9495 26.2665 40.0083 26.3116C40.0672 26.3569 40.0766 26.3236 40.0766 26.6693C40.0766 27.1292 39.9354 27.217 39.906 27.2314H37.4677C37.2775 27.2314 37.207 27.2211 37.0925 27.2145C36.9525 27.0296 36.757 26.8941 36.5346 26.8278C36.3122 26.7614 36.0744 26.7676 35.8557 26.8455C35.6371 26.9234 35.449 27.0689 35.3188 27.2608C35.1886 27.4528 35.123 27.6812 35.1316 27.9129C35.1316 28.2852 35.3343 28.7309 35.6091 28.969C35.8839 29.2071 36.1595 29.2781 36.3764 29.3266C36.81 29.4238 37.1566 29.4118 37.4677 29.4118H37.6041V30.3997C37.602 30.5442 37.6288 30.6876 37.6827 30.8217C37.7366 30.9557 37.8167 31.0777 37.9182 31.1806C38.0197 31.2835 38.1407 31.3652 38.2742 31.4209C38.4076 31.4767 38.5508 31.5054 38.6954 31.5054C38.84 31.5054 38.9832 31.4767 39.1166 31.4209C39.25 31.3652 39.371 31.2835 39.4726 31.1806C39.5741 31.0777 39.6542 30.9557 39.7081 30.8217C39.762 30.6876 39.7887 30.5442 39.7867 30.3997V29.4118H39.9231C41.2659 29.4118 42.2591 28.138 42.2591 26.6694C42.2591 25.9743 42.0224 25.0973 41.3384 24.5743C40.6543 24.0513 39.7941 23.9271 38.6954 23.9271C37.8242 23.9271 37.4413 23.7507 37.3824 23.7056C37.3235 23.6606 37.3142 23.6936 37.3142 23.3479C37.3142 22.7348 37.5661 22.7858 37.4677 22.7858H39.9231C40.1217 22.7858 40.2015 22.7957 40.3153 22.8028C40.4574 22.9805 40.6517 23.1094 40.8708 23.1713C41.0899 23.2332 41.323 23.2251 41.5373 23.1481C41.7515 23.0712 41.9363 22.9292 42.0658 22.742C42.1953 22.5549 42.2629 22.3319 42.2591 22.1045C42.2591 21.7322 42.0565 21.2865 41.7817 21.0484C41.5069 20.8103 41.2312 20.7393 41.0144 20.6907C40.5807 20.5936 40.2342 20.6055 39.9231 20.6055H39.7867V19.6346C39.79 19.4795 39.7602 19.3253 39.6991 19.1826C39.638 19.0399 39.5471 18.9118 39.4325 18.807C39.3179 18.7022 39.1822 18.623 39.0345 18.5748C38.8868 18.5266 38.7305 18.5103 38.576 18.5273Z" stroke="#CC55AB" stroke-width="0.6" mask="url(#path-1-outside-1_75_8105)"/>
</svg>
