<svg width="49" height="50" viewBox="0 0 49 50" fill="none" xmlns="http://www.w3.org/2000/svg">
<mask id="path-1-outside-1_75_8117" maskUnits="userSpaceOnUse" x="-0.480469" y="0.0150146" width="50" height="50" fill="black">
<rect fill="white" x="-0.480469" y="0.0150146" width="50" height="50"/>
<path d="M48.4913 39.7049C48.5607 40.0574 48.5012 40.423 48.3238 40.7352C48.1463 41.0475 47.8626 41.2857 47.5244 41.4064L26.5367 48.902C26.3667 48.9658 26.186 48.9964 26.0045 48.992H25.7797L10.9009 46.7433H2.01865C1.62106 46.7433 1.23975 46.5854 0.958613 46.3042C0.677474 46.0231 0.519531 45.6418 0.519531 45.2442C0.519531 44.8466 0.677474 44.4653 0.958613 44.1842C1.23975 43.903 1.62106 43.7451 2.01865 43.7451H11.0134H11.2382L25.8546 45.9937L45.2682 39.0229L45.0658 38.0109L27.796 41.4964C27.5501 41.5599 27.2922 41.5599 27.0464 41.4964L17.8418 38.6855L16.8524 40.6644C16.6683 41.0077 16.3577 41.2659 15.9866 41.3842C15.6154 41.5025 15.2127 41.4717 14.8639 41.2982C14.515 41.1248 14.2474 40.8224 14.1177 40.455C13.988 40.0876 14.0064 39.6842 14.169 39.3302L17.1672 33.3337C17.3213 33.0036 17.5867 32.7383 17.9168 32.5841L24.9252 29.6684C25.0909 29.5971 25.2226 29.4643 25.2925 29.298C25.3624 29.1316 25.3651 28.9447 25.2999 28.7764C25.2307 28.6318 25.1143 28.5151 24.9699 28.4456C24.8254 28.3761 24.6616 28.3579 24.5054 28.3941L14.4164 30.7702L12.4375 36.7217C12.3382 37.0209 12.1472 37.2811 11.8915 37.4655C11.6358 37.6498 11.3286 37.7489 11.0134 37.7486H2.01865C1.62106 37.7486 1.23975 37.5907 0.958613 37.3095C0.677474 37.0284 0.519531 36.6471 0.519531 36.2495C0.519531 35.8519 0.677474 35.4706 0.958613 35.1894C1.23975 34.9083 1.62106 34.7504 2.01865 34.7504H9.93399L11.8379 29.0312C11.9182 28.7878 12.0596 28.569 12.2485 28.3958C12.4375 28.2226 12.6677 28.1007 12.9172 28.0418L23.8308 25.4783C24.6935 25.2724 25.6017 25.3869 26.3862 25.8005C27.1708 26.2142 27.7784 26.8988 28.0958 27.727C28.4517 28.6275 28.4408 29.6316 28.0653 30.5241C27.6898 31.4166 26.9796 32.1265 26.087 32.5017L19.6033 35.2076L19.206 35.9572L27.5711 38.4532L45.9503 34.7504C46.1474 34.708 46.3511 34.7059 46.5491 34.7441C46.7472 34.7823 46.9354 34.8601 47.1027 34.9727C47.2699 35.0854 47.4127 35.2307 47.5226 35.3998C47.6324 35.569 47.7069 35.7585 47.7417 35.9572L48.4913 39.7049ZM29.0028 10.7645C29.0019 9.11129 29.4216 7.48504 30.2225 6.03878C31.0234 4.59252 32.179 3.3738 33.5808 2.49729C34.9825 1.62079 36.5842 1.11533 38.2351 1.02847C39.886 0.941618 41.5319 1.27622 43.0178 2.0008C44.5038 2.72538 45.7809 3.81611 46.7292 5.17035C47.6774 6.52459 48.2654 8.09782 48.438 9.74198C48.6106 11.3862 48.3621 13.0472 47.7157 14.5688C47.0694 16.0904 46.0466 17.4226 44.7435 18.44V22.0079C44.7435 22.4055 44.5856 22.7868 44.3044 23.0679C44.0233 23.349 43.642 23.507 43.2444 23.507H34.2497C33.8521 23.507 33.4708 23.349 33.1896 23.0679C32.9085 22.7868 32.7506 22.4055 32.7506 22.0079V18.44C31.584 17.5292 30.6402 16.3647 29.9908 15.0348C29.3415 13.7048 29.0036 12.2445 29.0028 10.7645ZM32.001 10.7645C32.0013 11.8872 32.2819 12.9921 32.8172 13.9791C33.3526 14.966 34.1257 15.8036 35.0667 16.4162C35.2754 16.5518 35.447 16.7372 35.5661 16.9558C35.6851 17.1743 35.7479 17.4191 35.7488 17.6679V20.5088H41.7453V17.6679C41.7461 17.4191 41.8089 17.1743 41.928 16.9558C42.0471 16.7372 42.2187 16.5518 42.4274 16.4162C43.407 15.7784 44.2042 14.897 44.7407 13.8584C45.2772 12.8198 45.5345 11.6596 45.4876 10.4916C45.4407 9.32358 45.091 8.18778 44.4729 7.19557C43.8548 6.20337 42.9895 5.3888 41.9618 4.83172C40.9341 4.27465 39.7793 3.99419 38.6106 4.01784C37.4418 4.04149 36.2993 4.36843 35.295 4.96662C34.2906 5.56481 33.459 6.41371 32.8815 7.43011C32.3041 8.4465 32.0006 9.59551 32.001 10.7645ZM34.9992 26.5052C34.6016 26.5052 34.2203 26.6632 33.9392 26.9443C33.6581 27.2254 33.5001 27.6067 33.5001 28.0043C33.5001 28.4019 33.6581 28.7832 33.9392 29.0644C34.2203 29.3455 34.6016 29.5035 34.9992 29.5035H42.4948C42.8924 29.5035 43.2737 29.3455 43.5549 29.0644C43.836 28.7832 43.9939 28.4019 43.9939 28.0043C43.9939 27.6067 43.836 27.2254 43.5549 26.9443C43.2737 26.6632 42.8924 26.5052 42.4948 26.5052H34.9992Z"/>
</mask>
<path d="M48.4913 39.7049C48.5607 40.0574 48.5012 40.423 48.3238 40.7352C48.1463 41.0475 47.8626 41.2857 47.5244 41.4064L26.5367 48.902C26.3667 48.9658 26.186 48.9964 26.0045 48.992H25.7797L10.9009 46.7433H2.01865C1.62106 46.7433 1.23975 46.5854 0.958613 46.3042C0.677474 46.0231 0.519531 45.6418 0.519531 45.2442C0.519531 44.8466 0.677474 44.4653 0.958613 44.1842C1.23975 43.903 1.62106 43.7451 2.01865 43.7451H11.0134H11.2382L25.8546 45.9937L45.2682 39.0229L45.0658 38.0109L27.796 41.4964C27.5501 41.5599 27.2922 41.5599 27.0464 41.4964L17.8418 38.6855L16.8524 40.6644C16.6683 41.0077 16.3577 41.2659 15.9866 41.3842C15.6154 41.5025 15.2127 41.4717 14.8639 41.2982C14.515 41.1248 14.2474 40.8224 14.1177 40.455C13.988 40.0876 14.0064 39.6842 14.169 39.3302L17.1672 33.3337C17.3213 33.0036 17.5867 32.7383 17.9168 32.5841L24.9252 29.6684C25.0909 29.5971 25.2226 29.4643 25.2925 29.298C25.3624 29.1316 25.3651 28.9447 25.2999 28.7764C25.2307 28.6318 25.1143 28.5151 24.9699 28.4456C24.8254 28.3761 24.6616 28.3579 24.5054 28.3941L14.4164 30.7702L12.4375 36.7217C12.3382 37.0209 12.1472 37.2811 11.8915 37.4655C11.6358 37.6498 11.3286 37.7489 11.0134 37.7486H2.01865C1.62106 37.7486 1.23975 37.5907 0.958613 37.3095C0.677474 37.0284 0.519531 36.6471 0.519531 36.2495C0.519531 35.8519 0.677474 35.4706 0.958613 35.1894C1.23975 34.9083 1.62106 34.7504 2.01865 34.7504H9.93399L11.8379 29.0312C11.9182 28.7878 12.0596 28.569 12.2485 28.3958C12.4375 28.2226 12.6677 28.1007 12.9172 28.0418L23.8308 25.4783C24.6935 25.2724 25.6017 25.3869 26.3862 25.8005C27.1708 26.2142 27.7784 26.8988 28.0958 27.727C28.4517 28.6275 28.4408 29.6316 28.0653 30.5241C27.6898 31.4166 26.9796 32.1265 26.087 32.5017L19.6033 35.2076L19.206 35.9572L27.5711 38.4532L45.9503 34.7504C46.1474 34.708 46.3511 34.7059 46.5491 34.7441C46.7472 34.7823 46.9354 34.8601 47.1027 34.9727C47.2699 35.0854 47.4127 35.2307 47.5226 35.3998C47.6324 35.569 47.7069 35.7585 47.7417 35.9572L48.4913 39.7049ZM29.0028 10.7645C29.0019 9.11129 29.4216 7.48504 30.2225 6.03878C31.0234 4.59252 32.179 3.3738 33.5808 2.49729C34.9825 1.62079 36.5842 1.11533 38.2351 1.02847C39.886 0.941618 41.5319 1.27622 43.0178 2.0008C44.5038 2.72538 45.7809 3.81611 46.7292 5.17035C47.6774 6.52459 48.2654 8.09782 48.438 9.74198C48.6106 11.3862 48.3621 13.0472 47.7157 14.5688C47.0694 16.0904 46.0466 17.4226 44.7435 18.44V22.0079C44.7435 22.4055 44.5856 22.7868 44.3044 23.0679C44.0233 23.349 43.642 23.507 43.2444 23.507H34.2497C33.8521 23.507 33.4708 23.349 33.1896 23.0679C32.9085 22.7868 32.7506 22.4055 32.7506 22.0079V18.44C31.584 17.5292 30.6402 16.3647 29.9908 15.0348C29.3415 13.7048 29.0036 12.2445 29.0028 10.7645ZM32.001 10.7645C32.0013 11.8872 32.2819 12.9921 32.8172 13.9791C33.3526 14.966 34.1257 15.8036 35.0667 16.4162C35.2754 16.5518 35.447 16.7372 35.5661 16.9558C35.6851 17.1743 35.7479 17.4191 35.7488 17.6679V20.5088H41.7453V17.6679C41.7461 17.4191 41.8089 17.1743 41.928 16.9558C42.0471 16.7372 42.2187 16.5518 42.4274 16.4162C43.407 15.7784 44.2042 14.897 44.7407 13.8584C45.2772 12.8198 45.5345 11.6596 45.4876 10.4916C45.4407 9.32358 45.091 8.18778 44.4729 7.19557C43.8548 6.20337 42.9895 5.3888 41.9618 4.83172C40.9341 4.27465 39.7793 3.99419 38.6106 4.01784C37.4418 4.04149 36.2993 4.36843 35.295 4.96662C34.2906 5.56481 33.459 6.41371 32.8815 7.43011C32.3041 8.4465 32.0006 9.59551 32.001 10.7645ZM34.9992 26.5052C34.6016 26.5052 34.2203 26.6632 33.9392 26.9443C33.6581 27.2254 33.5001 27.6067 33.5001 28.0043C33.5001 28.4019 33.6581 28.7832 33.9392 29.0644C34.2203 29.3455 34.6016 29.5035 34.9992 29.5035H42.4948C42.8924 29.5035 43.2737 29.3455 43.5549 29.0644C43.836 28.7832 43.9939 28.4019 43.9939 28.0043C43.9939 27.6067 43.836 27.2254 43.5549 26.9443C43.2737 26.6632 42.8924 26.5052 42.4948 26.5052H34.9992Z" fill="#00AFB9"/>
<path d="M48.4913 39.7049C48.5607 40.0574 48.5012 40.423 48.3238 40.7352C48.1463 41.0475 47.8626 41.2857 47.5244 41.4064L26.5367 48.902C26.3667 48.9658 26.186 48.9964 26.0045 48.992H25.7797L10.9009 46.7433H2.01865C1.62106 46.7433 1.23975 46.5854 0.958613 46.3042C0.677474 46.0231 0.519531 45.6418 0.519531 45.2442C0.519531 44.8466 0.677474 44.4653 0.958613 44.1842C1.23975 43.903 1.62106 43.7451 2.01865 43.7451H11.0134H11.2382L25.8546 45.9937L45.2682 39.0229L45.0658 38.0109L27.796 41.4964C27.5501 41.5599 27.2922 41.5599 27.0464 41.4964L17.8418 38.6855L16.8524 40.6644C16.6683 41.0077 16.3577 41.2659 15.9866 41.3842C15.6154 41.5025 15.2127 41.4717 14.8639 41.2982C14.515 41.1248 14.2474 40.8224 14.1177 40.455C13.988 40.0876 14.0064 39.6842 14.169 39.3302L17.1672 33.3337C17.3213 33.0036 17.5867 32.7383 17.9168 32.5841L24.9252 29.6684C25.0909 29.5971 25.2226 29.4643 25.2925 29.298C25.3624 29.1316 25.3651 28.9447 25.2999 28.7764C25.2307 28.6318 25.1143 28.5151 24.9699 28.4456C24.8254 28.3761 24.6616 28.3579 24.5054 28.3941L14.4164 30.7702L12.4375 36.7217C12.3382 37.0209 12.1472 37.2811 11.8915 37.4655C11.6358 37.6498 11.3286 37.7489 11.0134 37.7486H2.01865C1.62106 37.7486 1.23975 37.5907 0.958613 37.3095C0.677474 37.0284 0.519531 36.6471 0.519531 36.2495C0.519531 35.8519 0.677474 35.4706 0.958613 35.1894C1.23975 34.9083 1.62106 34.7504 2.01865 34.7504H9.93399L11.8379 29.0312C11.9182 28.7878 12.0596 28.569 12.2485 28.3958C12.4375 28.2226 12.6677 28.1007 12.9172 28.0418L23.8308 25.4783C24.6935 25.2724 25.6017 25.3869 26.3862 25.8005C27.1708 26.2142 27.7784 26.8988 28.0958 27.727C28.4517 28.6275 28.4408 29.6316 28.0653 30.5241C27.6898 31.4166 26.9796 32.1265 26.087 32.5017L19.6033 35.2076L19.206 35.9572L27.5711 38.4532L45.9503 34.7504C46.1474 34.708 46.3511 34.7059 46.5491 34.7441C46.7472 34.7823 46.9354 34.8601 47.1027 34.9727C47.2699 35.0854 47.4127 35.2307 47.5226 35.3998C47.6324 35.569 47.7069 35.7585 47.7417 35.9572L48.4913 39.7049ZM29.0028 10.7645C29.0019 9.11129 29.4216 7.48504 30.2225 6.03878C31.0234 4.59252 32.179 3.3738 33.5808 2.49729C34.9825 1.62079 36.5842 1.11533 38.2351 1.02847C39.886 0.941618 41.5319 1.27622 43.0178 2.0008C44.5038 2.72538 45.7809 3.81611 46.7292 5.17035C47.6774 6.52459 48.2654 8.09782 48.438 9.74198C48.6106 11.3862 48.3621 13.0472 47.7157 14.5688C47.0694 16.0904 46.0466 17.4226 44.7435 18.44V22.0079C44.7435 22.4055 44.5856 22.7868 44.3044 23.0679C44.0233 23.349 43.642 23.507 43.2444 23.507H34.2497C33.8521 23.507 33.4708 23.349 33.1896 23.0679C32.9085 22.7868 32.7506 22.4055 32.7506 22.0079V18.44C31.584 17.5292 30.6402 16.3647 29.9908 15.0348C29.3415 13.7048 29.0036 12.2445 29.0028 10.7645ZM32.001 10.7645C32.0013 11.8872 32.2819 12.9921 32.8172 13.9791C33.3526 14.966 34.1257 15.8036 35.0667 16.4162C35.2754 16.5518 35.447 16.7372 35.5661 16.9558C35.6851 17.1743 35.7479 17.4191 35.7488 17.6679V20.5088H41.7453V17.6679C41.7461 17.4191 41.8089 17.1743 41.928 16.9558C42.0471 16.7372 42.2187 16.5518 42.4274 16.4162C43.407 15.7784 44.2042 14.897 44.7407 13.8584C45.2772 12.8198 45.5345 11.6596 45.4876 10.4916C45.4407 9.32358 45.091 8.18778 44.4729 7.19557C43.8548 6.20337 42.9895 5.3888 41.9618 4.83172C40.9341 4.27465 39.7793 3.99419 38.6106 4.01784C37.4418 4.04149 36.2993 4.36843 35.295 4.96662C34.2906 5.56481 33.459 6.41371 32.8815 7.43011C32.3041 8.4465 32.0006 9.59551 32.001 10.7645ZM34.9992 26.5052C34.6016 26.5052 34.2203 26.6632 33.9392 26.9443C33.6581 27.2254 33.5001 27.6067 33.5001 28.0043C33.5001 28.4019 33.6581 28.7832 33.9392 29.0644C34.2203 29.3455 34.6016 29.5035 34.9992 29.5035H42.4948C42.8924 29.5035 43.2737 29.3455 43.5549 29.0644C43.836 28.7832 43.9939 28.4019 43.9939 28.0043C43.9939 27.6067 43.836 27.2254 43.5549 26.9443C43.2737 26.6632 42.8924 26.5052 42.4948 26.5052H34.9992Z" stroke="#00AFB9" stroke-width="0.576" mask="url(#path-1-outside-1_75_8117)"/>
</svg>
