<svg width="49" height="46" viewBox="0 0 49 46" fill="none" xmlns="http://www.w3.org/2000/svg">
<path d="M37.4547 15.0978L37.489 15.2001H37.5968H41.2357H41.4302L41.3808 15.012C39.2412 6.86118 31.8039 0.850046 22.9909 0.850046C14.1772 0.850046 6.79139 6.8617 4.60123 15.0111L4.55046 15.2001H4.74609H8.38495H8.49278L8.52713 15.0978C10.5799 8.98964 16.236 4.58674 22.9909 4.58674C29.7458 4.58674 35.4019 8.98964 37.4547 15.0978Z" fill="#72C10D" stroke="#72C10D" stroke-width="0.3"/>
<path d="M48.1133 42.3365L48.113 42.3362L37.6973 31.9706C40.0149 29.1208 41.5519 25.6415 41.9275 21.7702H43.7619C44.805 21.7702 45.6303 20.945 45.6303 19.9019C45.6303 18.8588 44.805 18.0335 43.7619 18.0335H28.8527C28.0859 18.0335 27.423 18.4733 27.1468 19.1889L25.9715 21.9915L21.8648 12.2626L21.8648 12.2626L21.8639 12.2605C21.556 11.5606 20.8345 11.2233 20.1346 11.2233C19.4348 11.2233 18.7133 11.5606 18.4053 12.2605L18.4045 12.2626L15.9667 18.0335H2.21835C1.17525 18.0335 0.35 18.8588 0.35 19.9019C0.35 20.945 1.17525 21.7702 2.21835 21.7702H4.05271C4.98282 31.3843 13.1031 38.9537 22.9901 38.9537C27.5772 38.9537 31.765 37.3077 35.0594 34.6092L45.4753 45.0251C45.8582 45.408 46.3011 45.5744 46.7943 45.5744C47.2874 45.5744 47.7304 45.408 48.1133 45.0251L48.1134 45.0251L48.1172 45.0211C48.8255 44.2582 48.831 43.0542 48.1133 42.3365ZM38.035 21.7702C37.1594 29.2978 30.7896 35.1665 22.9901 35.1665C15.1911 35.1665 8.82092 29.2983 7.8958 21.7702H17.1781C17.9449 21.7702 18.6078 21.3305 18.884 20.6149L20.0593 17.8122L24.1651 27.539C24.4423 28.2568 25.1573 28.6942 25.8709 28.6942C26.6376 28.6942 27.3005 28.2545 27.5767 27.539L30.0135 21.7702H38.035Z" fill="#72C10D" stroke="#72C10D" stroke-width="0.3"/>
</svg>
