<svg width="21" height="20" viewBox="0 0 21 20" fill="none" xmlns="http://www.w3.org/2000/svg">
<path d="M9.09576 3.35658C9.22756 3.00907 9.75074 3.00907 9.88254 3.35658C10.4399 4.82639 11.5115 7.38247 12.583 8.45399C13.6574 9.52834 16.0849 10.6027 17.4678 11.1588C17.8055 11.2946 17.8055 11.8013 17.4678 11.9371C16.0847 12.4932 13.6574 13.5676 12.583 14.6418C11.5115 15.7133 10.4399 18.2695 9.88254 19.7393C9.75074 20.0867 9.22756 20.0867 9.09576 19.7393C8.5384 18.2695 7.46683 15.7133 6.39528 14.6418C5.32371 13.5702 2.76758 12.4988 1.29775 11.9414C0.950231 11.8096 0.950231 11.2864 1.29774 11.1546C2.76757 10.5971 5.32371 9.52556 6.39528 8.45399C7.46683 7.38247 8.5384 4.82639 9.09576 3.35658Z" fill="#1FB6FF"/>
<path d="M16.8134 0.25766C16.956 -0.085561 17.4922 -0.085561 17.6348 0.25766C17.9309 0.970786 18.351 1.84713 18.771 2.2672C19.1936 2.68986 20.0352 3.11253 20.7117 3.409C21.045 3.55511 21.045 4.07328 20.7117 4.21937C20.0352 4.51581 19.1936 4.93845 18.771 5.36112C18.351 5.78118 17.9309 6.65752 17.6348 7.37065C17.4922 7.71387 16.956 7.71387 16.8134 7.37065C16.5173 6.65752 16.0971 5.78118 15.6771 5.36112C15.257 4.94105 14.3806 4.52099 13.6675 4.22483C13.3244 4.08229 13.3244 3.54609 13.6675 3.40353C14.3806 3.10735 15.257 2.68726 15.6771 2.2672C16.0971 1.84713 16.5173 0.970786 16.8134 0.25766Z" fill="#F0AF05"/>
<path d="M1.84089 2.31198C1.99648 1.97446 2.54268 1.97446 2.69827 2.31198C2.87492 2.69518 3.08791 3.08411 3.3009 3.29709C3.51671 3.51292 3.89638 3.72874 4.26491 3.90676C4.59266 4.06509 4.59266 4.59178 4.26491 4.75009C3.89636 4.9281 3.51671 5.14391 3.3009 5.35973C3.08791 5.57271 2.87492 5.96164 2.69827 6.34484C2.54268 6.68237 1.99648 6.68237 1.84089 6.34484C1.66423 5.96164 1.45125 5.57271 1.23826 5.35973C1.02528 5.14674 0.636347 4.93376 0.253154 4.75712C-0.0843742 4.60152 -0.0843897 4.05533 0.253138 3.89974C0.636332 3.72308 1.02528 3.51008 1.23826 3.29709C1.45125 3.08411 1.66423 2.69518 1.84089 2.31198Z" fill="#F07243"/>
</svg>
