<svg width="22" height="20" viewBox="0 0 22 20" fill="none" xmlns="http://www.w3.org/2000/svg">
<path d="M9.25201 3.35652C9.38381 3.00901 9.90699 3.00901 10.0388 3.35652C10.5962 4.82633 11.6677 7.38241 12.7393 8.45393C13.8136 9.52828 16.2411 10.6026 17.6241 11.1588C17.9618 11.2946 17.9618 11.8012 17.6241 11.937C16.241 12.4932 13.8136 13.5675 12.7393 14.6417C11.6677 15.7133 10.5962 18.2694 10.0388 19.7392C9.90699 20.0866 9.38381 20.0866 9.25201 19.7392C8.69465 18.2694 7.62308 15.7133 6.55153 14.6417C5.47996 13.5701 2.92383 12.4987 1.454 11.9414C1.10648 11.8096 1.10648 11.2864 1.45399 11.1546C2.92382 10.5971 5.47996 9.5255 6.55153 8.45393C7.62308 7.38241 8.69465 4.82633 9.25201 3.35652Z" fill="white"/>
<path d="M16.9696 0.257599C17.1122 -0.085622 17.6484 -0.085622 17.791 0.257599C18.0871 0.970725 18.5073 1.84707 18.9273 2.26714C19.3499 2.6898 20.1914 3.11247 20.8679 3.40894C21.2013 3.55505 21.2013 4.07321 20.8679 4.21931C20.1914 4.51575 19.3499 4.93839 18.9273 5.36106C18.5073 5.78112 18.0871 6.65746 17.791 7.37059C17.6484 7.71381 17.1122 7.71381 16.9696 7.37059C16.6735 6.65746 16.2534 5.78112 15.8334 5.36106C15.4132 4.94099 14.5369 4.52093 13.8237 4.22477C13.4806 4.08223 13.4806 3.54603 13.8237 3.40347C14.5369 3.10729 15.4132 2.6872 15.8334 2.26714C16.2534 1.84707 16.6735 0.970725 16.9696 0.257599Z" fill="white"/>
<path d="M1.99714 2.31192C2.15273 1.97439 2.69893 1.97439 2.85452 2.31192C3.03117 2.69512 3.24416 3.08405 3.45715 3.29703C3.67296 3.51286 4.05263 3.72868 4.42116 3.9067C4.74891 4.06503 4.74891 4.59172 4.42116 4.75003C4.05261 4.92804 3.67296 5.14385 3.45715 5.35967C3.24416 5.57265 3.03117 5.96158 2.85452 6.34478C2.69893 6.6823 2.15273 6.6823 1.99714 6.34478C1.82048 5.96158 1.6075 5.57265 1.39451 5.35967C1.18153 5.14668 0.792597 4.9337 0.409404 4.75705C0.0718758 4.60146 0.0718603 4.05527 0.409388 3.89968C0.792582 3.72301 1.18153 3.51002 1.39451 3.29703C1.6075 3.08405 1.82048 2.69512 1.99714 2.31192Z" fill="white"/>
</svg>
