<svg width="100" height="100" viewBox="0 0 100 100" fill="none" xmlns="http://www.w3.org/2000/svg">
<rect width="100" height="100" rx="50" fill="#E8EEFD"/>
<path d="M75.1025 51.6761C74.8392 51.3075 74.3654 51.0969 73.8915 51.0969H54.6744L53.9373 48.2012C53.7794 47.5167 53.1476 47.0428 52.4632 47.0428H49.1462C49.4095 47.622 49.5674 48.3065 49.4095 48.9383C49.3568 49.3595 49.1989 49.728 48.9883 50.0439H51.3049L55.043 64.9967C55.2009 65.6811 55.8327 66.155 56.5172 66.155H70.9958C71.6803 66.155 72.3121 65.6811 72.47 64.9967L75.3657 52.9924C75.471 52.5185 75.3657 52.0446 75.1025 51.6761Z" fill="#B5C9F8"/>
<path d="M58.6226 72.8943C60.1056 72.8943 61.3078 71.6921 61.3078 70.2091C61.3078 68.7261 60.1056 67.5239 58.6226 67.5239C57.1397 67.5239 55.9375 68.7261 55.9375 70.2091C55.9375 71.6921 57.1397 72.8943 58.6226 72.8943Z" fill="#6890F1"/>
<path d="M68.1539 72.8943C69.6368 72.8943 70.839 71.6921 70.839 70.2091C70.839 68.7261 69.6368 67.5239 68.1539 67.5239C66.6709 67.5239 65.4688 68.7261 65.4688 70.2091C65.4688 71.6921 66.6709 72.8943 68.1539 72.8943Z" fill="#6890F1"/>
<path d="M46.7763 46.3058L42.3011 44.9895C42.3011 44.9895 39.4054 39.198 39.1948 38.6715C39.0895 38.4609 38.9842 38.3029 38.8789 38.1976C38.405 37.5658 37.8259 37.0393 37.0888 36.776C35.1408 36.0916 33.2454 36.8287 32.2977 38.4082L32.1924 38.6188C31.5079 39.7771 29.6125 42.8309 28.4543 46.9376L25.4532 57.5203C25.2426 58.1521 25.7691 58.8366 26.4536 58.8366H29.8231L30.139 70.4197C30.1917 71.8413 31.4026 72.9469 32.8242 72.789C34.0878 72.6837 34.9828 71.5254 35.0355 70.2618L35.3514 58.8366H38.7736C39.458 58.8366 39.9845 58.1521 39.7213 57.4677L37.2994 50.5178C37.1941 50.2019 37.1941 49.8334 37.2467 49.4648L38.1418 46.1478L38.9315 47.7274C39.1948 48.2539 39.6686 48.6751 40.2478 48.833L45.7233 50.4125C45.9339 50.4652 46.1445 50.5178 46.3025 50.5178C47.3028 50.5178 48.1979 49.8334 48.4085 48.7804C48.6191 47.6747 47.882 46.6217 46.7763 46.3058Z" fill="#6890F1"/>
<path d="M38.5122 35.8283C41.0129 35.8283 43.0401 33.8011 43.0401 31.3004C43.0401 28.7997 41.0129 26.7725 38.5122 26.7725C36.0116 26.7725 33.9844 28.7997 33.9844 31.3004C33.9844 33.8011 36.0116 35.8283 38.5122 35.8283Z" fill="#B5C9F8"/>
<path d="M58.9352 39.5665C59.1985 39.8298 59.567 39.8298 59.8303 39.5665L62.2521 37.1446V46.8323C62.2521 47.2008 62.5154 47.4641 62.8839 47.4641H64.9899C65.3585 47.4641 65.6217 47.2008 65.6217 46.8323V37.0919L68.0436 39.5139C68.3068 39.7771 68.6754 39.7771 68.9386 39.5139L70.4128 38.0396C70.6761 37.7764 70.6761 37.4078 70.4128 37.1446L64.4108 31.0898C64.1475 30.8265 63.779 30.8265 63.5157 31.0898L57.4084 37.1446C57.1451 37.4078 57.1451 37.7764 57.4084 38.0396L58.9352 39.5665Z" fill="#6890F1"/>
</svg>
