<svg width="101" height="100" viewBox="0 0 101 100" fill="none" xmlns="http://www.w3.org/2000/svg">
<rect x="0.5" width="100" height="100" rx="50" fill="#EBEAFE"/>
<path d="M68.1712 44.2749V46.1706H52.0195V44.2749C52.0195 41.3175 53.5361 38.6635 56.1143 37.2227V33.8862C56.266 33.9621 56.4935 33.9621 56.721 33.9621H63.5456C63.7731 33.9621 63.9247 33.9621 64.1522 33.8862V37.2227C64.7589 37.6019 65.3655 38.0568 65.8963 38.5118C67.3371 40.1042 68.1712 42.1516 68.1712 44.2749Z" fill="#8660FE"/>
<path d="M68.1712 47.308V65.2037H58.6925V51.2511C58.6925 50.3412 57.9342 49.5071 56.9484 49.5071H52.0195V47.2322H68.1712V47.308Z" fill="#C3B2FE"/>
<path d="M68.1733 66.3412V73.4692C68.1733 73.7725 67.9458 74 67.5667 74H58.543C58.6188 73.8483 58.6188 73.6208 58.6188 73.4692V66.3412H68.1733Z" fill="#C3B2FE"/>
<path d="M64.077 26.6066V32.2938C64.077 32.5972 63.8495 32.9005 63.4703 32.9005H56.6457C56.3424 32.9005 56.0391 32.673 56.0391 32.2938V26.6066C56.0391 26.3033 56.2666 26 56.6457 26H63.4703C63.8495 26 64.077 26.3033 64.077 26.6066Z" fill="#8660FE"/>
<path d="M49.2929 61.9431C49.2929 62.3223 48.9896 62.7014 48.5346 62.7014H41.255C40.2692 62.7014 40.2692 61.1848 41.255 61.1848H48.5346C48.9137 61.1848 49.2929 61.4881 49.2929 61.9431Z" fill="#C3B2FE"/>
<path d="M56.9479 50.6445H50.8815V56.9384C50.8815 57.6208 50.5024 58.2275 49.8957 58.455C49.7441 58.5308 49.4408 58.6066 49.1374 58.6066C48.7583 58.6066 48.3791 58.455 48.0758 58.2275L46.9384 57.3933L45.8009 58.2275C45.4976 58.455 45.1185 58.6066 44.7393 58.6066C44.3602 58.6066 43.981 58.455 43.6777 58.3033L42.5403 57.4692L41.4028 58.3033C40.2654 59.1374 38.673 58.3033 38.673 56.9384V50.6445H32.6066C32.3033 50.6445 32 50.872 32 51.2512V73.4692C32 73.7725 32.2275 74 32.6066 74H56.7962C57.0995 74 57.4028 73.7725 57.4028 73.4692V51.2512C57.5545 50.9478 57.2512 50.6445 56.9479 50.6445ZM48.5308 63.8388H41.2512C38.7488 63.8388 38.7488 60.0474 41.2512 60.0474H48.5308C49.5924 60.0474 50.4265 60.8815 50.4265 61.9431C50.4265 63.0047 49.5924 63.8388 48.5308 63.8388Z" fill="#8660FE"/>
<path d="M40.0391 50.6445V56.9384C40.0391 57.3933 40.5699 57.6967 40.949 57.3933L42.7689 56.0284L44.5888 57.3933C44.8163 57.545 45.0438 57.545 45.2713 57.3933L47.0912 56.0284L48.9111 57.3933C48.9869 57.4692 49.1386 57.545 49.2902 57.545C49.3661 57.545 49.4419 57.545 49.5177 57.4692C49.7452 57.3933 49.8211 57.1659 49.8211 56.9384V50.6445H40.0391Z" fill="#C3B2FE"/>
</svg>
