<svg width="100" height="100" viewBox="0 0 100 100" fill="none" xmlns="http://www.w3.org/2000/svg">
<rect width="100" height="100" rx="50" fill="#E4F9FF"/>
<path d="M66.2035 53.7974C66.2035 52.0759 64.7858 50.6582 63.0643 50.6582C61.9504 50.6582 60.9377 51.2658 60.3807 52.1265V52.0759C60.3807 50.3544 58.963 48.9367 57.2415 48.9367C56.1276 48.9367 55.1149 49.5443 54.558 50.405V50.3038C54.558 48.5822 53.1402 47.1645 51.4187 47.1645C50.3048 47.1645 49.2921 47.7721 48.7352 48.6329V38.0506C48.7352 37.1898 48.3807 36.4303 47.8238 35.8227C47.1656 35.2151 46.4061 34.8607 45.5453 34.8607C43.8238 34.8607 42.4061 36.2784 42.4061 38V58.7088C42.4061 58.9114 42.3048 59.0632 42.1529 59.1139C42.001 59.1645 41.7985 59.1645 41.6972 59.0126L38.4567 55.8227C37.3934 54.7595 35.6719 54.6076 34.4061 55.4177C33.6466 55.924 33.1402 56.7341 33.039 57.5949C32.8871 58.5063 33.1909 59.4177 33.7478 60.0759L41.7478 69.6962C44.0263 72.4303 47.3174 74 50.9124 74H55.8744C58.6592 74 61.2921 72.9367 63.2162 70.962C65.1909 68.9873 66.2542 66.3544 66.2542 63.6202L66.2035 53.7974Z" fill="#36C5F0"/>
<path d="M45.5472 32.3291C46.2054 32.3291 46.7624 31.7722 46.7624 31.1139V27.2152C46.7624 26.557 46.2054 26 45.5472 26C44.889 26 44.332 26.557 44.332 27.2152V31.1139C44.332 31.7722 44.889 32.3291 45.5472 32.3291Z" fill="#9DE8FF"/>
<path d="M39.8219 34C40.0751 34.2531 40.3789 34.3544 40.6827 34.3544C40.9865 34.3544 41.2902 34.2531 41.5434 34C41.9991 33.5443 41.9991 32.7848 41.5434 32.2784L38.7586 29.4936C38.3029 29.0379 37.4928 29.0379 37.0371 29.4936C36.5814 29.9493 36.5814 30.7088 37.0371 31.2151L39.8219 34Z" fill="#9DE8FF"/>
<path d="M50.4564 34.3544C50.7602 34.3544 51.064 34.2531 51.3172 34L54.102 31.2151C54.5577 30.7595 54.5577 30 54.102 29.4936C53.6463 29.0379 52.8362 29.0379 52.3805 29.4936L49.5957 32.2784C49.14 32.7341 49.14 33.4936 49.5957 34C49.7982 34.2531 50.1526 34.3544 50.4564 34.3544Z" fill="#9DE8FF"/>
</svg>
