<?xml version="1.0" encoding="UTF-8"?>
<svg id="Laag_1" data-name="Laag 1" xmlns="http://www.w3.org/2000/svg" viewBox="0 0 1854.33 426.37">
  <defs>
    <style>
      .cls-1 {
        fill: #e44c3a;
      }

      .cls-1, .cls-2 {
        stroke-width: 0px;
      }

      .cls-2 {
        fill: #ed7346;
      }
    </style>
  </defs>
  <g>
    <path class="cls-2" d="M604.31,119.02h78.82l-108.97,298.36h-72.47l-109.5-298.36h78.82l3.17,9.52c29.62,87.47,50.6,148.83,62.95,184.09,14.46-42.67,35.79-104.21,64.01-184.62l3.17-8.99Z"/>
    <path class="cls-2" d="M779.94,417.38h-80.41V1.59h80.41v415.79Z"/>
    <path class="cls-2" d="M1085.17,153.41c30.68,27.16,46.02,64.19,46.02,111.09,0,37.39-6.7,67.18-20.1,89.4-13.75,22.22-33.33,39.33-58.72,51.31-25.04,11.99-52.37,17.99-81.99,17.99-47.26,0-85.88-13.22-115.85-39.67-29.98-27.15-44.96-65.6-44.96-115.32,0-54.3,17.99-94.86,53.96-121.67,29.62-21.86,65.24-32.8,106.86-32.8,46.55,0,84.81,13.23,114.79,39.68ZM1026.71,336.18c14.99-14.63,22.48-37.64,22.48-69.03,0-29.62-7.59-51.84-22.75-66.65-14.81-14.46-33.51-21.69-56.07-21.69s-41.79,7.23-56.6,21.69c-14.81,14.46-22.22,37.12-22.22,67.98s7.41,53.52,22.22,67.98c14.81,14.46,33.67,21.69,56.6,21.69s41.34-7.32,56.34-21.95Z"/>
    <path class="cls-2" d="M1456,367.12c1.76,4.59,3.7,7.94,5.82,10.05l12.17-2.12v48.14l-11.11,2.12c-3.88.7-8.65,1.06-14.28,1.06-13.75,0-26.8-2.47-39.15-7.41-10.94-4.23-19.4-11.64-25.39-22.22-22.57,15.87-47.79,25.04-75.65,27.51h-9.52c-15.87,0-32.98-2.65-51.31-7.94-18.7-5.64-34.04-13.57-46.02-23.8-12.35-10.22-21.87-22.75-28.57-37.56-7.06-14.46-10.58-29.97-10.58-46.55,0-38.79,14.63-68.94,43.91-90.46,28.21-20.8,61.89-31.21,101.04-31.21,27.15,0,50.6,5.47,70.36,16.4-1.77-7.75-4.76-12.7-8.99-14.81-10.23-4.93-26.28-7.41-48.14-7.41s-47.79,2.3-74.59,6.88l-11.64,2.12-23.28-57.13,15.34-3.17c29.97-5.99,60.31-8.99,90.99-8.99,41.61,0,73.88,6.53,96.81,19.57,8.11,4.94,15.08,11.03,20.9,18.25,5.82,7.23,9.87,14.11,12.17,20.63,2.29,6.53,4.14,13.05,5.55,19.57,1.41,6.53,1.76,11.56,1.06,15.08-.71,3.53-.88,5.65-.53,6.35v111.62c-.36,19.4.53,31.21,2.64,35.44ZM1359.19,354.43c13.04-10.58,19.57-26.27,19.57-47.08s-3.88-36.32-11.64-44.44c-13.41-15.16-31.92-22.75-55.54-22.75-19.04,0-35.44,5.65-49.2,16.93-13.41,10.58-20.1,26.8-20.1,48.67s6.35,38.97,19.04,49.2c13.04,10.58,29.09,15.87,48.14,15.87s35.62-5.46,49.73-16.4Z"/>
    <path class="cls-2" d="M1706.21,243.87l148.12,173.51h-92.58l-98.39-116.91-72.47,93.1v23.81h-73V0h73v288.83l141.24-192.03,80.41.53-106.33,146.53Z"/>
  </g>
  <path class="cls-1" d="M30.59,206.62L0,127.53l341.67-6.44,28.13,72.72L112.92,419.48l-30.59-79.09,8.32-6.88c76.27-63.67,129.7-108.53,160.29-134.61-48.42,2.05-118.46,4.53-210.1,7.42l-10.26.3Z"/>
</svg>